<mxfile host="app.diagrams.net" modified="2020-11-08T16:04:48.213Z" agent="5.0 (Windows NT 10.0; Win64; x64) AppleWebKit/537.36 (KHTML, like Gecko) Chrome/86.0.4240.183 Safari/537.36 Edg/86.0.622.63" etag="aI6xoUK5pfxyC2G30dwi" version="13.9.2" type="github" pages="3">
  <diagram name="Webapp-ACR-DevOps-Flow" id="9f46799a-70d6-7492-0946-bef42562c5a5">
    <mxGraphModel dx="1019" dy="637" grid="1" gridSize="10" guides="1" tooltips="1" connect="1" arrows="1" fold="1" page="1" pageScale="1" pageWidth="1100" pageHeight="850" background="#ffffff" math="0" shadow="0">
      <root>
        <mxCell id="0" />
        <mxCell id="1" parent="0" />
        <mxCell id="uLT7EqP0vHf5cV0kARS1-2" value="" style="rounded=0;whiteSpace=wrap;html=1;" vertex="1" parent="1">
          <mxGeometry x="100" y="20" width="690" height="420" as="geometry" />
        </mxCell>
        <mxCell id="uLT7EqP0vHf5cV0kARS1-27" value="" style="rounded=0;whiteSpace=wrap;html=1;dashed=1;strokeColor=#1A1A1A;" vertex="1" parent="1">
          <mxGeometry x="320" y="322.5" width="180" height="70" as="geometry" />
        </mxCell>
        <mxCell id="uLT7EqP0vHf5cV0kARS1-6" value="" style="rounded=0;whiteSpace=wrap;html=1;dashed=1;strokeColor=#1A1A1A;" vertex="1" parent="1">
          <mxGeometry x="600" y="182.5" width="140" height="67.5" as="geometry" />
        </mxCell>
        <mxCell id="uLT7EqP0vHf5cV0kARS1-3" value="" style="aspect=fixed;html=1;points=[];align=center;image;fontSize=12;image=img/lib/mscae/App_Services.svg;" vertex="1" parent="1">
          <mxGeometry x="680" y="195" width="40" height="40" as="geometry" />
        </mxCell>
        <mxCell id="uLT7EqP0vHf5cV0kARS1-4" value="" style="aspect=fixed;html=1;points=[];align=center;image;fontSize=12;image=img/lib/mscae/App_Service.svg;" vertex="1" parent="1">
          <mxGeometry x="620" y="200" width="35" height="35" as="geometry" />
        </mxCell>
        <mxCell id="uLT7EqP0vHf5cV0kARS1-11" style="edgeStyle=orthogonalEdgeStyle;rounded=0;orthogonalLoop=1;jettySize=auto;html=1;entryX=0;entryY=0.5;entryDx=0;entryDy=0;entryPerimeter=0;" edge="1" parent="1" source="uLT7EqP0vHf5cV0kARS1-7" target="uLT7EqP0vHf5cV0kARS1-8">
          <mxGeometry relative="1" as="geometry" />
        </mxCell>
        <mxCell id="uLT7EqP0vHf5cV0kARS1-12" value="Push docker image" style="edgeLabel;html=1;align=center;verticalAlign=middle;resizable=0;points=[];" vertex="1" connectable="0" parent="uLT7EqP0vHf5cV0kARS1-11">
          <mxGeometry x="-0.4047" y="31" relative="1" as="geometry">
            <mxPoint as="offset" />
          </mxGeometry>
        </mxCell>
        <mxCell id="uLT7EqP0vHf5cV0kARS1-22" style="edgeStyle=orthogonalEdgeStyle;rounded=0;orthogonalLoop=1;jettySize=auto;html=1;" edge="1" parent="1" source="uLT7EqP0vHf5cV0kARS1-7" target="uLT7EqP0vHf5cV0kARS1-16">
          <mxGeometry relative="1" as="geometry">
            <mxPoint x="190" y="422.5" as="targetPoint" />
          </mxGeometry>
        </mxCell>
        <mxCell id="uLT7EqP0vHf5cV0kARS1-7" value="" style="pointerEvents=1;shadow=0;dashed=0;html=1;strokeColor=none;fillColor=#505050;labelPosition=center;verticalLabelPosition=bottom;verticalAlign=top;outlineConnect=0;align=center;shape=mxgraph.office.devices.workstation_visual_studio;" vertex="1" parent="1">
          <mxGeometry x="150" y="225.5" width="53" height="59" as="geometry" />
        </mxCell>
        <mxCell id="uLT7EqP0vHf5cV0kARS1-13" style="edgeStyle=orthogonalEdgeStyle;rounded=0;orthogonalLoop=1;jettySize=auto;html=1;entryX=0.5;entryY=0;entryDx=0;entryDy=0;" edge="1" parent="1" source="uLT7EqP0vHf5cV0kARS1-8" target="uLT7EqP0vHf5cV0kARS1-6">
          <mxGeometry relative="1" as="geometry" />
        </mxCell>
        <mxCell id="uLT7EqP0vHf5cV0kARS1-8" value="" style="shape=cylinder3;whiteSpace=wrap;html=1;boundedLbl=1;backgroundOutline=1;size=15;rounded=0;shadow=0;glass=1;sketch=0;strokeColor=#006EAF;fontColor=#ffffff;fillColor=none;" vertex="1" parent="1">
          <mxGeometry x="380" y="92.5" width="100" height="80" as="geometry" />
        </mxCell>
        <mxCell id="uLT7EqP0vHf5cV0kARS1-9" value="" style="aspect=fixed;perimeter=ellipsePerimeter;html=1;align=center;shadow=0;dashed=0;spacingTop=3;image;image=img/lib/active_directory/database_cube.svg;rounded=0;glass=1;sketch=1;fillColor=#FFFFFF;gradientColor=none;" vertex="1" parent="1">
          <mxGeometry x="400" y="121.76" width="37.333333333333336" height="41.48148148148149" as="geometry" />
        </mxCell>
        <mxCell id="uLT7EqP0vHf5cV0kARS1-10" value="" style="aspect=fixed;html=1;points=[];align=center;image;fontSize=12;image=img/lib/azure2/containers/Container_Registries.svg;rounded=0;shadow=0;glass=1;sketch=0;strokeColor=#660066;fillColor=#FFFFFF;gradientColor=#B3B3B3;opacity=90;" vertex="1" parent="1">
          <mxGeometry x="405.72" y="72.5" width="48.55" height="43.56" as="geometry" />
        </mxCell>
        <mxCell id="uLT7EqP0vHf5cV0kARS1-24" style="edgeStyle=orthogonalEdgeStyle;rounded=0;orthogonalLoop=1;jettySize=auto;html=1;entryX=0.5;entryY=1;entryDx=0;entryDy=0;entryPerimeter=0;" edge="1" parent="1" source="uLT7EqP0vHf5cV0kARS1-15" target="uLT7EqP0vHf5cV0kARS1-8">
          <mxGeometry relative="1" as="geometry">
            <Array as="points">
              <mxPoint x="430" y="381.5" />
            </Array>
          </mxGeometry>
        </mxCell>
        <mxCell id="uLT7EqP0vHf5cV0kARS1-25" value="Push docker image" style="edgeLabel;html=1;align=center;verticalAlign=middle;resizable=0;points=[];" vertex="1" connectable="0" parent="uLT7EqP0vHf5cV0kARS1-24">
          <mxGeometry x="0.1072" y="2" relative="1" as="geometry">
            <mxPoint as="offset" />
          </mxGeometry>
        </mxCell>
        <mxCell id="uLT7EqP0vHf5cV0kARS1-14" value="" style="aspect=fixed;html=1;points=[];align=center;image;fontSize=12;image=img/lib/mscae/Azure_DevOps.svg;dashed=1;strokeColor=#1A1A1A;" vertex="1" parent="1">
          <mxGeometry x="340" y="332.5" width="50" height="50" as="geometry" />
        </mxCell>
        <mxCell id="uLT7EqP0vHf5cV0kARS1-15" value="" style="aspect=fixed;html=1;points=[];align=center;image;fontSize=12;image=img/lib/mscae/Azure_Pipelines	.svg;dashed=1;strokeColor=#1A1A1A;" vertex="1" parent="1">
          <mxGeometry x="411.33" y="332.5" width="48.67" height="48.67" as="geometry" />
        </mxCell>
        <mxCell id="uLT7EqP0vHf5cV0kARS1-23" style="edgeStyle=orthogonalEdgeStyle;rounded=0;orthogonalLoop=1;jettySize=auto;html=1;" edge="1" parent="1" source="uLT7EqP0vHf5cV0kARS1-16" target="uLT7EqP0vHf5cV0kARS1-14">
          <mxGeometry relative="1" as="geometry">
            <mxPoint x="438.67" y="412.5" as="targetPoint" />
          </mxGeometry>
        </mxCell>
        <mxCell id="uLT7EqP0vHf5cV0kARS1-16" value="" style="aspect=fixed;html=1;points=[];align=center;image;fontSize=12;image=img/lib/mscae/Azure_Repos.svg;dashed=1;strokeColor=#1A1A1A;" vertex="1" parent="1">
          <mxGeometry x="120.00000000000001" y="342.5" width="45" height="50" as="geometry" />
        </mxCell>
        <mxCell id="uLT7EqP0vHf5cV0kARS1-31" value="&lt;span style=&quot;font-size: 20px;&quot;&gt;Deployment Workflow-&amp;nbsp; Docker based web application to Azure App Service&lt;/span&gt;" style="text;html=1;align=center;verticalAlign=middle;resizable=0;points=[];autosize=1;fontFamily=Garamond;fontSize=20;fontStyle=4" vertex="1" parent="1">
          <mxGeometry x="130" y="30" width="630" height="30" as="geometry" />
        </mxCell>
      </root>
    </mxGraphModel>
  </diagram>
  <diagram id="GqHfz0C-YfBIgy7RK4qH" name="HighAvailability-MonolithicApp">
    <mxGraphModel dx="1456" dy="910" grid="1" gridSize="10" guides="1" tooltips="1" connect="1" arrows="1" fold="1" page="1" pageScale="1" pageWidth="850" pageHeight="1100" math="0" shadow="0">
      <root>
        <mxCell id="ECh2C6ZyXekCld-dIB_f-0" />
        <mxCell id="ECh2C6ZyXekCld-dIB_f-1" parent="ECh2C6ZyXekCld-dIB_f-0" />
      </root>
    </mxGraphModel>
  </diagram>
  <diagram id="tJT_Ys1JzFLN31kocr9Z" name="Page-3">
    <mxGraphModel dx="1869" dy="637" grid="1" gridSize="10" guides="1" tooltips="1" connect="1" arrows="1" fold="1" page="1" pageScale="1" pageWidth="850" pageHeight="1100" math="0" shadow="0">
      <root>
        <mxCell id="un9lTaKR_ojWKBwgLZ8Q-0" />
        <mxCell id="un9lTaKR_ojWKBwgLZ8Q-1" parent="un9lTaKR_ojWKBwgLZ8Q-0" />
        <mxCell id="hI8kfkjxQy-ftBVGHC26-37" value="" style="rounded=0;whiteSpace=wrap;html=1;strokeColor=#1A1A1A;fontFamily=Garamond;fontSize=20;dashed=1;" vertex="1" parent="un9lTaKR_ojWKBwgLZ8Q-1">
          <mxGeometry x="186" y="1082.5" width="434" height="585" as="geometry" />
        </mxCell>
        <mxCell id="hI8kfkjxQy-ftBVGHC26-36" value="" style="rounded=0;whiteSpace=wrap;html=1;strokeColor=#1A1A1A;fontFamily=Garamond;fontSize=20;dashed=1;" vertex="1" parent="un9lTaKR_ojWKBwgLZ8Q-1">
          <mxGeometry x="-250" y="1070" width="350" height="600" as="geometry" />
        </mxCell>
        <mxCell id="un9lTaKR_ojWKBwgLZ8Q-15" value="" style="rounded=0;whiteSpace=wrap;html=1;strokeColor=#1A1A1A;fontFamily=Garamond;fontSize=20;" vertex="1" parent="un9lTaKR_ojWKBwgLZ8Q-1">
          <mxGeometry x="-730" y="150" width="370" height="450" as="geometry" />
        </mxCell>
        <mxCell id="un9lTaKR_ojWKBwgLZ8Q-5" value="Service-1" style="rounded=1;whiteSpace=wrap;html=1;strokeColor=#6c8ebf;fontFamily=Garamond;fontSize=20;fillColor=#dae8fc;" vertex="1" parent="un9lTaKR_ojWKBwgLZ8Q-1">
          <mxGeometry x="-520" y="170" width="120" height="60" as="geometry" />
        </mxCell>
        <mxCell id="un9lTaKR_ojWKBwgLZ8Q-6" value="Service-4" style="rounded=1;whiteSpace=wrap;html=1;strokeColor=#82b366;fontFamily=Garamond;fontSize=20;fillColor=#d5e8d4;" vertex="1" parent="un9lTaKR_ojWKBwgLZ8Q-1">
          <mxGeometry x="-520" y="480" width="120" height="60" as="geometry" />
        </mxCell>
        <mxCell id="un9lTaKR_ojWKBwgLZ8Q-7" value="Service -3" style="rounded=1;whiteSpace=wrap;html=1;strokeColor=#d6b656;fontFamily=Garamond;fontSize=20;fillColor=#fff2cc;" vertex="1" parent="un9lTaKR_ojWKBwgLZ8Q-1">
          <mxGeometry x="-520" y="380" width="120" height="60" as="geometry" />
        </mxCell>
        <mxCell id="un9lTaKR_ojWKBwgLZ8Q-8" value="Service-2" style="rounded=1;whiteSpace=wrap;html=1;strokeColor=#d79b00;fontFamily=Garamond;fontSize=20;fillColor=#ffe6cc;" vertex="1" parent="un9lTaKR_ojWKBwgLZ8Q-1">
          <mxGeometry x="-520" y="270" width="120" height="60" as="geometry" />
        </mxCell>
        <mxCell id="un9lTaKR_ojWKBwgLZ8Q-10" value="" style="endArrow=none;html=1;fontFamily=Garamond;fontSize=20;" edge="1" parent="un9lTaKR_ojWKBwgLZ8Q-1">
          <mxGeometry width="50" height="50" relative="1" as="geometry">
            <mxPoint x="-290" y="600" as="sourcePoint" />
            <mxPoint x="-290" y="150" as="targetPoint" />
          </mxGeometry>
        </mxCell>
        <mxCell id="un9lTaKR_ojWKBwgLZ8Q-17" style="edgeStyle=orthogonalEdgeStyle;rounded=0;orthogonalLoop=1;jettySize=auto;html=1;entryX=0;entryY=0.5;entryDx=0;entryDy=0;fontFamily=Garamond;fontSize=20;" edge="1" parent="un9lTaKR_ojWKBwgLZ8Q-1" source="un9lTaKR_ojWKBwgLZ8Q-16" target="un9lTaKR_ojWKBwgLZ8Q-7">
          <mxGeometry relative="1" as="geometry" />
        </mxCell>
        <mxCell id="un9lTaKR_ojWKBwgLZ8Q-19" style="edgeStyle=orthogonalEdgeStyle;rounded=0;orthogonalLoop=1;jettySize=auto;html=1;entryX=0.5;entryY=1;entryDx=0;entryDy=0;fontFamily=Garamond;fontSize=20;" edge="1" parent="un9lTaKR_ojWKBwgLZ8Q-1" source="un9lTaKR_ojWKBwgLZ8Q-16" target="un9lTaKR_ojWKBwgLZ8Q-5">
          <mxGeometry relative="1" as="geometry">
            <Array as="points">
              <mxPoint x="-660" y="250" />
              <mxPoint x="-460" y="250" />
            </Array>
          </mxGeometry>
        </mxCell>
        <mxCell id="un9lTaKR_ojWKBwgLZ8Q-20" style="edgeStyle=orthogonalEdgeStyle;rounded=0;orthogonalLoop=1;jettySize=auto;html=1;fontFamily=Garamond;fontSize=20;" edge="1" parent="un9lTaKR_ojWKBwgLZ8Q-1" source="un9lTaKR_ojWKBwgLZ8Q-16" target="un9lTaKR_ojWKBwgLZ8Q-8">
          <mxGeometry relative="1" as="geometry">
            <Array as="points">
              <mxPoint x="-560" y="360" />
              <mxPoint x="-560" y="300" />
            </Array>
          </mxGeometry>
        </mxCell>
        <mxCell id="un9lTaKR_ojWKBwgLZ8Q-22" style="edgeStyle=orthogonalEdgeStyle;rounded=0;orthogonalLoop=1;jettySize=auto;html=1;entryX=0;entryY=0.5;entryDx=0;entryDy=0;fontFamily=Garamond;fontSize=20;" edge="1" parent="un9lTaKR_ojWKBwgLZ8Q-1" source="un9lTaKR_ojWKBwgLZ8Q-16" target="un9lTaKR_ojWKBwgLZ8Q-6">
          <mxGeometry relative="1" as="geometry">
            <Array as="points">
              <mxPoint x="-660" y="510" />
            </Array>
          </mxGeometry>
        </mxCell>
        <mxCell id="un9lTaKR_ojWKBwgLZ8Q-16" value="FacadeLayer&lt;br&gt;all&amp;nbsp; services are tightly coupled" style="whiteSpace=wrap;html=1;aspect=fixed;strokeColor=#1A1A1A;fontFamily=Garamond;fontSize=20;" vertex="1" parent="un9lTaKR_ojWKBwgLZ8Q-1">
          <mxGeometry x="-720" y="330" width="120" height="120" as="geometry" />
        </mxCell>
        <mxCell id="hI8kfkjxQy-ftBVGHC26-0" value="" style="rounded=0;whiteSpace=wrap;html=1;strokeColor=#1A1A1A;fontFamily=Garamond;fontSize=20;" vertex="1" parent="un9lTaKR_ojWKBwgLZ8Q-1">
          <mxGeometry x="-706" y="1070" width="370" height="450" as="geometry" />
        </mxCell>
        <mxCell id="hI8kfkjxQy-ftBVGHC26-1" value="Service-1" style="rounded=1;whiteSpace=wrap;html=1;strokeColor=#6c8ebf;fontFamily=Garamond;fontSize=20;fillColor=#dae8fc;" vertex="1" parent="un9lTaKR_ojWKBwgLZ8Q-1">
          <mxGeometry x="-496" y="1090" width="120" height="60" as="geometry" />
        </mxCell>
        <mxCell id="hI8kfkjxQy-ftBVGHC26-2" value="Service-4" style="rounded=1;whiteSpace=wrap;html=1;strokeColor=#82b366;fontFamily=Garamond;fontSize=20;fillColor=#d5e8d4;" vertex="1" parent="un9lTaKR_ojWKBwgLZ8Q-1">
          <mxGeometry x="-496" y="1400" width="120" height="60" as="geometry" />
        </mxCell>
        <mxCell id="hI8kfkjxQy-ftBVGHC26-3" value="Service -3" style="rounded=1;whiteSpace=wrap;html=1;strokeColor=#d6b656;fontFamily=Garamond;fontSize=20;fillColor=#fff2cc;" vertex="1" parent="un9lTaKR_ojWKBwgLZ8Q-1">
          <mxGeometry x="-496" y="1300" width="120" height="60" as="geometry" />
        </mxCell>
        <mxCell id="hI8kfkjxQy-ftBVGHC26-4" value="Service-2" style="rounded=1;whiteSpace=wrap;html=1;strokeColor=#d79b00;fontFamily=Garamond;fontSize=20;fillColor=#ffe6cc;" vertex="1" parent="un9lTaKR_ojWKBwgLZ8Q-1">
          <mxGeometry x="-496" y="1190" width="120" height="60" as="geometry" />
        </mxCell>
        <mxCell id="hI8kfkjxQy-ftBVGHC26-5" value="" style="endArrow=none;html=1;fontFamily=Garamond;fontSize=20;" edge="1" parent="un9lTaKR_ojWKBwgLZ8Q-1">
          <mxGeometry width="50" height="50" relative="1" as="geometry">
            <mxPoint x="-300" y="1520" as="sourcePoint" />
            <mxPoint x="-300" y="1070" as="targetPoint" />
          </mxGeometry>
        </mxCell>
        <mxCell id="hI8kfkjxQy-ftBVGHC26-6" style="edgeStyle=orthogonalEdgeStyle;rounded=0;orthogonalLoop=1;jettySize=auto;html=1;entryX=0;entryY=0.5;entryDx=0;entryDy=0;fontFamily=Garamond;fontSize=20;" edge="1" parent="un9lTaKR_ojWKBwgLZ8Q-1" source="hI8kfkjxQy-ftBVGHC26-10" target="hI8kfkjxQy-ftBVGHC26-3">
          <mxGeometry relative="1" as="geometry" />
        </mxCell>
        <mxCell id="hI8kfkjxQy-ftBVGHC26-7" style="edgeStyle=orthogonalEdgeStyle;rounded=0;orthogonalLoop=1;jettySize=auto;html=1;entryX=0.5;entryY=1;entryDx=0;entryDy=0;fontFamily=Garamond;fontSize=20;" edge="1" parent="un9lTaKR_ojWKBwgLZ8Q-1" source="hI8kfkjxQy-ftBVGHC26-10" target="hI8kfkjxQy-ftBVGHC26-1">
          <mxGeometry relative="1" as="geometry">
            <Array as="points">
              <mxPoint x="-636" y="1170" />
              <mxPoint x="-436" y="1170" />
            </Array>
          </mxGeometry>
        </mxCell>
        <mxCell id="hI8kfkjxQy-ftBVGHC26-8" style="edgeStyle=orthogonalEdgeStyle;rounded=0;orthogonalLoop=1;jettySize=auto;html=1;fontFamily=Garamond;fontSize=20;" edge="1" parent="un9lTaKR_ojWKBwgLZ8Q-1" source="hI8kfkjxQy-ftBVGHC26-10" target="hI8kfkjxQy-ftBVGHC26-4">
          <mxGeometry relative="1" as="geometry">
            <Array as="points">
              <mxPoint x="-536" y="1280" />
              <mxPoint x="-536" y="1220" />
            </Array>
          </mxGeometry>
        </mxCell>
        <mxCell id="hI8kfkjxQy-ftBVGHC26-9" style="edgeStyle=orthogonalEdgeStyle;rounded=0;orthogonalLoop=1;jettySize=auto;html=1;entryX=0;entryY=0.5;entryDx=0;entryDy=0;fontFamily=Garamond;fontSize=20;" edge="1" parent="un9lTaKR_ojWKBwgLZ8Q-1" source="hI8kfkjxQy-ftBVGHC26-10" target="hI8kfkjxQy-ftBVGHC26-2">
          <mxGeometry relative="1" as="geometry">
            <Array as="points">
              <mxPoint x="-636" y="1430" />
            </Array>
          </mxGeometry>
        </mxCell>
        <mxCell id="hI8kfkjxQy-ftBVGHC26-10" value="FacadeLayer&lt;br&gt;all&amp;nbsp; services are tightly coupled" style="whiteSpace=wrap;html=1;aspect=fixed;strokeColor=#1A1A1A;fontFamily=Garamond;fontSize=20;" vertex="1" parent="un9lTaKR_ojWKBwgLZ8Q-1">
          <mxGeometry x="-696" y="1250" width="120" height="120" as="geometry" />
        </mxCell>
        <mxCell id="hI8kfkjxQy-ftBVGHC26-11" value="Service-1" style="rounded=1;whiteSpace=wrap;html=1;strokeColor=#6c8ebf;fontFamily=Garamond;fontSize=20;fillColor=#dae8fc;" vertex="1" parent="un9lTaKR_ojWKBwgLZ8Q-1">
          <mxGeometry x="-240" y="1090" width="120" height="60" as="geometry" />
        </mxCell>
        <mxCell id="hI8kfkjxQy-ftBVGHC26-13" value="Service-1" style="rounded=1;whiteSpace=wrap;html=1;strokeColor=#6c8ebf;fontFamily=Garamond;fontSize=20;fillColor=#dae8fc;" vertex="1" parent="un9lTaKR_ojWKBwgLZ8Q-1">
          <mxGeometry x="-230" y="1100" width="120" height="60" as="geometry" />
        </mxCell>
        <mxCell id="hI8kfkjxQy-ftBVGHC26-14" value="Service-1" style="rounded=1;whiteSpace=wrap;html=1;strokeColor=#6c8ebf;fontFamily=Garamond;fontSize=20;fillColor=#dae8fc;" vertex="1" parent="un9lTaKR_ojWKBwgLZ8Q-1">
          <mxGeometry x="-220" y="1110" width="120" height="60" as="geometry" />
        </mxCell>
        <mxCell id="hI8kfkjxQy-ftBVGHC26-15" value="Service-2" style="rounded=1;whiteSpace=wrap;html=1;strokeColor=#d79b00;fontFamily=Garamond;fontSize=20;fillColor=#ffe6cc;" vertex="1" parent="un9lTaKR_ojWKBwgLZ8Q-1">
          <mxGeometry x="-230" y="1210" width="120" height="60" as="geometry" />
        </mxCell>
        <mxCell id="hI8kfkjxQy-ftBVGHC26-16" value="Service-2" style="rounded=1;whiteSpace=wrap;html=1;strokeColor=#d79b00;fontFamily=Garamond;fontSize=20;fillColor=#ffe6cc;" vertex="1" parent="un9lTaKR_ojWKBwgLZ8Q-1">
          <mxGeometry x="-220" y="1220" width="120" height="60" as="geometry" />
        </mxCell>
        <mxCell id="hI8kfkjxQy-ftBVGHC26-17" value="Service-2" style="rounded=1;whiteSpace=wrap;html=1;strokeColor=#d79b00;fontFamily=Garamond;fontSize=20;fillColor=#ffe6cc;" vertex="1" parent="un9lTaKR_ojWKBwgLZ8Q-1">
          <mxGeometry x="-210" y="1230" width="120" height="60" as="geometry" />
        </mxCell>
        <mxCell id="hI8kfkjxQy-ftBVGHC26-18" value="Service -3" style="rounded=1;whiteSpace=wrap;html=1;strokeColor=#d6b656;fontFamily=Garamond;fontSize=20;fillColor=#fff2cc;" vertex="1" parent="un9lTaKR_ojWKBwgLZ8Q-1">
          <mxGeometry x="-220" y="1330" width="120" height="60" as="geometry" />
        </mxCell>
        <mxCell id="hI8kfkjxQy-ftBVGHC26-21" value="Service -3" style="rounded=1;whiteSpace=wrap;html=1;strokeColor=#d6b656;fontFamily=Garamond;fontSize=20;fillColor=#fff2cc;" vertex="1" parent="un9lTaKR_ojWKBwgLZ8Q-1">
          <mxGeometry x="-210" y="1340" width="120" height="60" as="geometry" />
        </mxCell>
        <mxCell id="hI8kfkjxQy-ftBVGHC26-22" value="Service -3" style="rounded=1;whiteSpace=wrap;html=1;strokeColor=#d6b656;fontFamily=Garamond;fontSize=20;fillColor=#fff2cc;" vertex="1" parent="un9lTaKR_ojWKBwgLZ8Q-1">
          <mxGeometry x="-200" y="1350" width="120" height="60" as="geometry" />
        </mxCell>
        <mxCell id="hI8kfkjxQy-ftBVGHC26-23" value="Service-4" style="rounded=1;whiteSpace=wrap;html=1;strokeColor=#82b366;fontFamily=Garamond;fontSize=20;fillColor=#d5e8d4;" vertex="1" parent="un9lTaKR_ojWKBwgLZ8Q-1">
          <mxGeometry x="-220" y="1470" width="120" height="60" as="geometry" />
        </mxCell>
        <mxCell id="hI8kfkjxQy-ftBVGHC26-24" value="Service-4" style="rounded=1;whiteSpace=wrap;html=1;strokeColor=#82b366;fontFamily=Garamond;fontSize=20;fillColor=#d5e8d4;" vertex="1" parent="un9lTaKR_ojWKBwgLZ8Q-1">
          <mxGeometry x="-210" y="1480" width="120" height="60" as="geometry" />
        </mxCell>
        <mxCell id="hI8kfkjxQy-ftBVGHC26-25" value="Service-4" style="rounded=1;whiteSpace=wrap;html=1;strokeColor=#82b366;fontFamily=Garamond;fontSize=20;fillColor=#d5e8d4;" vertex="1" parent="un9lTaKR_ojWKBwgLZ8Q-1">
          <mxGeometry x="-200" y="1490" width="120" height="60" as="geometry" />
        </mxCell>
        <mxCell id="hI8kfkjxQy-ftBVGHC26-27" value="" style="aspect=fixed;html=1;points=[];align=center;image;fontSize=12;image=img/lib/mscae/Docker.svg;strokeColor=#1A1A1A;" vertex="1" parent="un9lTaKR_ojWKBwgLZ8Q-1">
          <mxGeometry x="-70" y="1419" width="50" height="41" as="geometry" />
        </mxCell>
        <mxCell id="hI8kfkjxQy-ftBVGHC26-28" value="" style="aspect=fixed;html=1;points=[];align=center;image;fontSize=12;image=img/lib/azure2/databases/Azure_Cosmos_DB.svg;strokeColor=#1A1A1A;" vertex="1" parent="un9lTaKR_ojWKBwgLZ8Q-1">
          <mxGeometry x="525.2" y="1241" width="64" height="64" as="geometry" />
        </mxCell>
        <mxCell id="hI8kfkjxQy-ftBVGHC26-30" value="" style="dashed=0;outlineConnect=0;html=1;align=center;labelPosition=center;verticalLabelPosition=bottom;verticalAlign=top;shape=mxgraph.webicons.mongodb;gradientColor=#DFDEDE;strokeColor=#1A1A1A;fontFamily=Garamond;fontSize=20;" vertex="1" parent="un9lTaKR_ojWKBwgLZ8Q-1">
          <mxGeometry x="510" y="1470" width="94.4" height="80" as="geometry" />
        </mxCell>
        <mxCell id="hI8kfkjxQy-ftBVGHC26-32" value="" style="aspect=fixed;html=1;points=[];align=center;image;fontSize=12;image=img/lib/azure2/compute/Kubernetes_Services.svg;strokeColor=#1A1A1A;" vertex="1" parent="un9lTaKR_ojWKBwgLZ8Q-1">
          <mxGeometry x="-178" y="1585" width="68" height="60" as="geometry" />
        </mxCell>
        <mxCell id="hI8kfkjxQy-ftBVGHC26-34" value="" style="shape=image;verticalLabelPosition=bottom;labelBackgroundColor=#ffffff;verticalAlign=top;aspect=fixed;imageAspect=0;image=data:image/png,iVBORw0KGgoAAAANSUhEUgAAAREAAADsCAYAAABT75L9AAAgAElEQVR4Ae19B3sbZdb29wveH5We0ANJYKm79LYsZVnYAi+wC2xhYffdxaQQSoCQUEInIbFjuXdb7nbs2IljO+5Fmhlpis533Wc0jmJkW5ou6dF1zSXZ0rRzznPP6ef//c///A+JTdBAyICQAbsy8P9IvAQFBAUEBRxQQICIA+KJXQUFBAWIBIgIKRAUEBRwRAEBIo7IVzg7p1IGpfQkpfSE2PKlgaFTKpUqHGb7fKUCRHwmeBCnwwLQlXFKXHiLlOFXwrMNvUJy14skR0O8db5CmjQhQGQdwRUgsg5xiuUrgIg6e5rk6I2kRK8JxSZ37CKpaTvFyjeRVLEldFu8fDPFy7eQ3PcWGbomQGSdxSBAZB3iFMtXKUOlxOgbJHeEA0AAZACReM1WiocYRKSmR0mXJhlAhDmz9moQILI2bYrmGz05T3LPL3nhhkUTkdp2UOwsnvabQ6eFQDOKn91FyfFTZBg6kfCHrLsWBIisS57C/xJP0OTsKZLazad/GECEtZC6beEFEJgx3a+SoSnCjMlhCQgQyYFIhfwTQ0+QPPAUayFydFfw/hD4Qlp3UKwinFoIa0YND5AuXxYAkqPgCxDJkVCF+DMEJbV4H0lh84XUb6P4mU0UD6NDtfJaUqdqyWATRoR1c5F7ASK5UKlAf5NK6ZQc/4Dk9p3BayDpqJDctpNikS0hNGU2U+zMJpK7Xyc9uSz8IHnIvACRPIhVaD814FAdfCZcDtWm7RQPoSkDMyYWuYm05SFKGUahsTrQ6xUgEij5vT25thwlueu28GghCOtWb6FYyCIynBNydiclJytMABHRmLwEU4BIXuQqnB9zVGbi49DkhnByGRyq5ZtCZ8rEK7aS3PM3MgyRVGZHwgWI2KFaAeyTMjSS+x8PjSnDYd1aJJeFLCqD66m9ndTFfhGNsSnXAkRsEi7Mu0EL0ZY7SO64PhSmzIoWUrGJpBCZMiagbaPkhc9ZCyES0Rg7ci1AxA7VQr4PtBDl/F/CpYXUbwtVnQw7Uss3k9z5MulqXGghDmRagIgD4oVxV2ghqNiVOveGBkQkDutuDh2IxGvvID0+JgDEoSALEHFIwLDtjr4h6syPJHVcFxoQiYcwrBuv2EGJ0eMErQ3AK172KSBAxD7tQrmnocuUGPlbqKIyYUsugykjtT5DemJBAIgLUixAxAUihukQunKJ5N77QqGFsEO1eQdngoYlxZ19IdW3kLo8zAAidBDn0itAxDkNQ3MEaOXJuQqSOq4PB4i076IYksvOhKfxUPzsTkqMfk4G2kUKM8YV2RUg4goZw3GQlKGTMvwiAwi0gKDL/qWWcFXrQguR254lPTFvaiECRFwRXAEirpAx+INgPWjSCEnRm8KhhSDFPZ1cFob2h2zGVF5P6mw7wfksXu5RQICIe7QM9EhYGInx90iCBhICLQSVw2HqXBYv30qJdFKZMGPcFVUBIu7SM5CjYVEY6gLJ/Y8FbsKs9E9tTCeXhSBDFQ2XpfbnRG2MR9IpQMQjwvp5WICIttRMcufecIAIkstC0j8VZky8ei+ps63CkeqRUAoQ8Yiwfh7WbD70fig6mHGhXSNGQYSj0A4gkjh3iAwtKUDEI6EUIOIRYf08rKHFSUn3UQ06IiMjrFu1JRSFdgAQqekRM6nMEBkhXsmkABGvKOvjcbVYL8mdu0MRlZGQXFaxOXAQYTOm6hZS5zpEONdjWRQg4jGBvT48/CGJC/8huWNn4FEZNmVqt4YiuQzRGGXwABm66jULSv74AkQKWASQG6InpkjqvDUcWkhIRkGwGdP4MOlihq4v0i1AxBcye3MSaCHqDAZT7QwcRKCFxJBcFnCKO5sxZ68hdbaNDEOktnsjeVcfVYDI1fQoqL8MTSbl/J9DASDcMyQEXdxj5dtI6f8PA4gYf+mPOAsQ8YfOnpxFl0a4YjfoDFX2hTSYyWVBVuuaZsxDpMVGRTjXE4nLflABItnpUhD/VWfPkBy9IfAEM2gh8SqMggi2Whcgkpz4iWtjYOqJlz8UECDiD51dPwvXyoSgjyrm+1phXdYEAhiNyX4QHsL9mkgqc13SNj6gAJGNaRTKX+gKojL7QuEPwUCqoAAEFcJ87sYHSZfEEO4ghFWASBBUd3hOqOrJyWNcsQt/RFBZqjg3ayEBDqRiLeTsNZQcPyWiMQ7lyu7uAkTsUi7A/Qx1ieTeB8OlhQRUrRs7s5nk7r/wEG7hBwlGKAWIBEN322fFQtEWm0nuuCFwEOHOZQFW60ILidXcSpo0KVLbbUuU8x0FiDinoa9HSBkqJS8dCrybO4d16xDW3UxBdC5jM6byOkpOlJMhIjG+yuDqkwkQWU2RkP9tJOdIHng6cC2EO5dVBlfuj0ZDcvdrpCdjIickYJkVIBIwA/I9vbbcTVL05kBBhLWQpu2BFdqxGVN5A2lLQwJA8hUgD34vQMQDonp1SOSGmKbMLpKj1wQXlUH/1IC0EAaQih2UvPgVGYYuQMQrYcvjuAJE8iDWWj+Fs1NRNZqLJ2gurpCS1MjwoAmOocVI7rkncC1EghYSUFgXPhi58xXSNcWRMxU8U3WDluQkzcYUWlZU0kXB3loivu7/BYisS571v4RDDwL4XecYPXG0ifYdqOLt8aNNdKL9Al1elFkw1z9Kbt+y0M9FAgUQbsKcHkjFzY99zk5lZ2rt7aQt9trWQEBHKaFS24U5evWHTrr93Wras7+K7j5cS//8qYcGLi+Sqonq39yk0vyVAJF8qJXxWwjjwOQi/eFEO91UVkk3lUWu2m58u5J+/WkzVQ+6k0WZ0hOkDL8cOIggrBvnat0tPkdlNnMkKHH+YzL0ZAYn8vt4aT5Ob57upb0Hqlb4tfsd8zN49sv36+jLtguU1ISplCtlBYjkSqmM3wFARmaW6d4P6uimtytp9zsRgiBmbhao3PFuDQ1PLdl+cuK0KCXTpWGSu+8MFETMsO7WQFLcuU9J6zOE9gegv50XzJW/ney+Cjyy8ezmdyJ0qHqQEqpm+1x2rq9Q9xEgkifnYMJ0js3RI580sjBmCmG2zwCTxz5ppAUpkeeZrvwci0ad+Z7k6I2BOVMVFNq17QhkFMSKGbNsv8QfNDzdO04ACPAkG6+s/+F7mDjv1w1RTBFd4q9IYvZPAkSy0yXrfyGIXZfmCT6Pm7JoH5YQrn6HuXO6Z8L2Uy1lJCkx8po53S6gqAxrIfVbA3GomkO4j/HwqayMyeGfcKDe/2HDhgBi8Q5AcuvBanonMkDxhEop1gdzOFEJ/kSASI5MR7Sl89I83XbwalvaErr13iGQ/z3bz9GAHE+38jM2ZZIzJHffEZgpAwDhzmUBpLhDC5GaHl8Zwr1CmDw/dF1ayBlAMnkJP8m/K/oopqi2HwJ5XmrB/VyASA4sgwnTNDJDD39smjAbqcOZQmh9/vupHlJUPYezXf0TaD/J6e9Iat8VKIjEG7exL4QXtU9RGTZjqnaTOhflBQxa2H3VDU3TjRuYMRavMt/B670HqqksMiCAZA3iCxBZgzDWvwEgzSMzdO8H9baeZBBICOK/z/Sxx986bq7vhp4gqf+xwAAEYV00gsZAKj+bMANAYhXbKTF63HFSGcAHIV07IGLx75Z3IvTqD120KCWERrJKeAWIrCJI5p+ablDt0BT94mC1IwABiHzdcTHvQjEIvxbrYwCBSRFI3xCYMi3mQCp/tZAtJLc9S0Zi3rE3AnScWVbozsO1jvgI0+aNn3poLmYmumXKSil/FiCShfsQOoQDqwYv0/1HTA3EjgljPcUe/aSJJhelvJ9gPGN34kigWgg7VGvM7mF+gQibMZXXkjrdwP1Ss7Aor39Z/ET+B6IudnkJfkIj+cepHpqPC43EYoIAEYsSGe8AkDM9E3RzOoEMwmNng7AiFDyzbC+3IaUukDL4bDAaSDoKJGEglc8p7mg0lBg6TIaOzNEMxjj4CCDBHJr3aofoFpv8tGQAfH36sxbOVsZxS/0lQGSVBKCe4vvOMUKSmN0nFvZDEtpvP2+lgctmopkdYdOWu0juujUwEGEtBGMxfezizun0bb8lXc1fc1vFyp/9CR4sy0n6oG6InaVO+Lu7LEKvfN9JU0v2HhA/u7gC/ocAkTTzIGDwgXzVfsEVAPnNsWY6P7PMhXh2AASXlWRTJrhqXdZCfK7WjVfvIXW2JW/TL9c1CF6gdgamzT6Hvi4AyfNfttGEDVM11+sthN8JEEFaeboK90TbBdY+nDyhsO9Tx1toYsF8ktoFEENXSO57ODB/CGsh9f51LuNoTPlmUgb+y7UxdumWy6LDsZOqRp82nad9B5w7zVE/ZfE7l/MX229KHkQgUKqm85PpDofee5gwTx5rpt6JBXOMo01pwTVpiy0kd1wXHIggrBvxbxQEO1Mb7idddqdgcSPSg8ZxRaWjTefpNgcaCfwkSKV/6dsojacfHBudu9i+L2kQ4SeSptNHDcMrVZ2W8yzfdwDIE5820/i85Hh0QcrQKDHyeqChXanJP4eqGY25ntT5Lse0y3WBgvfMf1Wjbzoucop7vjy3fs8+sLII/frTJro4W3rtGksWRCBAsI2PNp53FIWxBAje+uHpZce2PK5LV8ZJ6gqmYhcd0+T2XRT3TQtBif82UgbLyND9Ty0HvdFE6njziCumze+/bKPREgOSkgQRFhxVoyP1Q/SLQ86jMI8dbaL+yUVHTlTrCYprU2dP84zdIBLM2BfSvJ3iPoV1WQupvzfQIdwWkCAqd7vDqBycrYjKDTls/2DJQyG8lxyIQGBQlYmCOEuLsNTSfN7NfSvZiboomeXiOLbTF9LcldE3AqvYBYjEqv3pGcLO1IrtpE7VUsowzQun9LO7P3iHEoefesZXgOSmMvv5QQ8caeAHixsyYfee/NqvpEAEDF1Wklze7SRzEQCCFOjnvrjyxHFLWHTlMsm99wbmULUGUnk9S4Y1kIq0GWOEo/kPeJhUdTrZNb6SIg9e5/NwsX6L/eBk7x6fZ3BySz78AoZ8zlMyIAImwhv/95PdtGf/xo1pLGFY/c4ayNuV3FNkbD7uKAqTjVHqXCXJHdcGAiKshfBAqk2etz4EiEhNj5Imp/usuKDFZaNnvv+DnGi6TnXD03SX02hdWYR+9UEdF/8hW7ZYXyUBIhCM+bhC/zzdYzsLFWDCAFJmmjBeOM8QlVHOPRcYgHC1rg/JZayFnN1JyfGTlDLyb4/gx2LUdYPO9E7QnYdNn5kTjeShjxqo/eJc0XaTL3oQAYCgfPvN0z2Oiq8sDQSZqH0Ti54IhC6dI6kjmBaI7FBt8CO5zGy4LHe/ToYHqe1uAQzkBvlDkYHLZi9dm2aN9fB55ONGajw/w1nROHYxvYoaRMAs9DZ9/kTbSkf21eZJrn/DB/LEp01cTAcHnNuCgMFUifH3A2s+xGMxz27yvAkzayF195CeSDevDumCAn+xwQxpHZ2he96vs63FmhpshH5xqJpbS6DAs5heRQsiEAAUR73O3b3NkQ65Akbm7ywN5OnjLTTooJhuI6Ex1HlSBp4KzJSJ+zGQCo2GKq+n5MSZvHurbEQ/r76HHMG0iQxM0j3vmf1InJg2Dxypp/qhadZIXCtR9urmczxuUYIIGD+9rHAq8i0O+kdYAIJMRACIl08Qbamd5K7bSOnwv+COk8tqvA/rQguRu/5CRtJ5Ul6O8u3KzyBPKM5suzBLAAEnIIJ9MdumvG+CHbg4dqG/ig5EwJSLc3Hu92CX2dBEeN+yCD37eetK3wivGI7jJsbRfOjaQMr+uVqXB1Jt9iwqw2ZM1c2kxcfISBWeOg8eYeu4OEdwlDqVLdTrnOoZJ1Uv/CFZRQMiFpMxuvKPX7UTMgftMhr7oRbmd+k8EK/Dc4ahkjzwZHCmDHqGnNlEEsKuHjRhZgCpvJajMaAleFWoL5g27Rfm6NH03CEnMnb3e3U8grXQp+0VFYhgRCKY6waAIAqDPhFeCz3WkxYfJDl6fSAgIrXu9LxzmWnGvEKGGk8DSOGCCAAQMjE8tUyPfdLk7EHFneSr6PPWUVtNvMMCxEUBImDshdkY/YGjMPYyDC0TBoOmYMLgeJZ24yWzkCehjL4ZCIBwWLfe21EQAJBY1R5S582xD17S0q9jW0CC3A83evDefqiau+khpIxjF9qr4EEEREcHMZge0EAyIyv5fIZaijDuU8eb6dzUkivFdLkIg56YIrlzTyAgwgOpvEwuK99MaHeIsQ8pw/8K3Vzob/c3kDs42rsvzXPo365ZYz28bj9Uw71NUFFcaEBS0CCCqXSjMzG678M6BoB8QGP1bwEgvz7aTIuye8V0GwkohEWdORUIgPA8GQ7reuMHgW8Fc2rktucdz43ZiI5BfQ/+YUPk7kEXnK27yyq5NQU0kkJ6FSyIgHnQGH73BRLJnGkgVlNlHM8SDD+YmNJlSoz+NRAQMat1vetcxs7UmttIm+9xZeyDH/ywew74SBC1ccPZetvBGvqsZZR7nEAWC+FVkCAC4vaML7jCNM5ETTdVhnrqJ+N0ZYzk3vtJ8XswFQZSeTwKAmMflKEPPO+XGoZFBpkBkKCHCJpT2X2oofUA9t17oIoOVg2ag8QLAEgKCkTALGwIsTlJ+rHsUPhQfn+ibSUPxE+BhGyg+ZDUcb3vuSFeaiGsgaQrdPUCSypzwv9MIEGjboCBfTCJcN/Wg9WFASQFAyIWk+ARRzGTXQZZAGLmgbSlxzr4q4FAWFOGQcrwy76bMgAQ7hniUecyBpHqfaQtDRd9H43VoGPJ6PnpZR4l4RRI0PPmP2f7aSntp1t9vrD8XTAgAnWx+fzMytAhuyDCjH27kpAHMhOTPc8DWYvRujJBUufuQEAk7uFAqnj5VkoMvU+GGiNDixfRpqzFyqv+DyDBNrkg0bNftDp+2EFbfuNUD5s2V50oRH8UAIiY9mbd0DTd/6HzdGPkgSCj9dKCmfgEhvv9QsVucvITQv8OaAZ+Dur2eiAVayIV2ylesaN4tspreaxnrrKC3+GhB40Ejn+nyY+Y/7s/MrASOfRbXjc6X7hBJF1BWdE3wR2i7GoflgkDJyqa6KKhEJgcxAuYZahLJPc94juAALDijegZ4n3Jvxfp80EcE6AoNT9OujSZl9PdAhIMtXrlu07HOUyYbfO3k92B+O82WiehBREwAdGSqoHLdOuBKwVxq/M7cvnbtE3NjmSWfZnrU2UjAub7Pc6rLbWRHL3ZVw0EAMI9QyJIANvsWZ1MEAvdi3OyRoVs24odpM612w5Tg9+Xl2THPhKW87IIvXm6l2JKuBL3QgsiSLip6Jukez+wX3qdqYFg1OHIjFmCHhSAAHBSKY2S4x/4XrHLWgiSy85sorgHRXZeLOQgjwkQiVXspMTIMcfJcpA3VJa/9E0HR13satTYDxrJmz/1hGqQeChBBI1yv+64SKgpMLUIe8lk2BcmzDOft9D4gtlUOUgAAYgY2jIpg7/135Rp30WxqrQWIkBkw2plpOvLnS9f6X3iwHcGmcM2F1Po9R+7HJs28LFgbCc0nKDlGTIdKhABQdD8BWMN0UrOLmJbGgiI/cI3HTQfTzCxw0BwLdZDctTfqAxrIc3bKSbMmA3BA9oPmzK1t5O2OOjqIoX8zSzL9OoPJpA4le+Xv+ukmWXFvEYHIJevSb7696EBERAYfRU+ax6hOxxMIbMABHkgMGEuzJlO1DAACK4hMfY2ayFY2H5FZRhEar3vXBak+eHWuS0zJjlZwbk8bsoNjoVtNqbQW2d66War+dU7+Q/JMgEowr6W0dnlwAIFodJE4AP5tHGEzQ8nCA0QgQmDatygnairEZujMl23+m7KSG07KHZWmDK5AA2n6w+87WmiHIAEQ9T+dqrbkbZtPTCf/byFppak1eLm29+BayIgaELV6FjLCKFlnBMAwb4AkBe/6aDJRSk0Jgy4ifs009z9zQ1hLaR+m+lQhTkj/CFr0gBaiNTya9Kl9EAtD5chayTLMr1xuoducaCRWEDyhxMdK4EDDy8766EDBREQUlE1erdmkPZZYVwbqp1FSAAIhmujwxnyQHD8sLxSukLK+T+T3LHTNzOGy/3bdlLM4/6pxQBMbMaUbyV1qs6MxngsOJBNbMtyksoiAxx1gRzb2fDwxIaxnUPT/jfBDgxEGECSGn1UP0zoyG6HeNY+FhGf/qyVFuXwOFEz5VCTRkju+ZWvFbuWFsJPWKGFrKuBxDAX+NxBx+HcTJ7n+nlJStAbP/XQ7nfsF+1hLWAdPPN5K3kx3nW9ewkERAAgSJg5XHOObnXJhHn+RDunGVsIv95N+/0dFCJuPhT1d7oddy6LeNczpBg0ENwDh3OjL5ChmQ8g/+UjRQvxBA+aRxsAgIH1gMzn3XqYoooYHdf8ysoOBETiCZXeKu9zVFNgIS9MmCePt3DM3IvJdG4IFIAtMeJ/8yEJyWXClFlTAzEBZDPFa35B6kIfpYxgzF/rwSclNH6wwkeSD3hk/tYCkkc+aaS+iQV449wQ4XWP4SuIgFgAkLLKAUJRUebN5/uZ0boswsV0mHRnMWLduw3gS1yXnpwnqesXvkZl2JSpEVrIetqS6QfZTsmLX6XNmAAEJOOU1vo4UDVIe9KmjROtBJ3WACReN9vyDURAICR9vfZDF/tA7BIHYIN9oYE892Ubd2UPmxM1Qy4Y3JJTX5Hs82Q7PwZSrbdAw/4dAARmjNL7JhlaOmErk3EBfLYehHJSpWPNI46CDVgj2O79oI7qh6c9nd7oC4iAOMjZePX7Ll78+Wodmb83iYPBUm0U87Gpsl2ZMnSFHarQDHxNLqtJD6QSId2s5gwARGp6lPTEXKiieJAzrBckXn7ccN6stXGgtWO9YGwnugF69bD1HEQsDeSfp3schbEyNRCksiOMi2OH+YXr44rdjmt8M2UAVl73Tw27lrHR9bEWgsHiU9W2q3O9ljvIjpzUeIzErS6UgEAjqTk3xWUlbq8bT0EEF4uio1e+i7rmRH3i02azmC4dZ/eamU6OnzI0Slw66BuAQNNhX0id1TNkS9an8EaLrJi/Zz/ImU2kDB4MdRNprB1syOT+qv0CoVUitIpMrTyfz9gXYzsjA5ddN208AxEQYEFKcCMVFMLlc8Orf8vEK4twLQyScywCO1ngfuyrJ2dJHnjKNzOGk8vad1G8ZivFK7eQFFljw3c5bDhG5iad3UK8rbEvn9P6zvptHu/xs1vI2vg86WI4N0GNw7mtv73iBykAbRYZ3R/UDdHeNJDYBRMTSGqpYXjaVY3EExDBIp9YlOnP35sdnezeNMAE+8KJ+sLXHdyToVAABCClLbWT1LXXVxCBJiK3X9mkjM+Z///Z57ZdJPO2k+S2DbZW6/sdJONzesNcX2uz/ie37iC5JYeteQdJGZuMz+jCVoFUfXfS9dmMqbuLtAXMwkn5EPx051GFawWQnGi7QLe7UJx65+Ea+qlnnLUcN67QdRDBDSMK8+I3UQYAgIBdELEA5MljLXxMrxxDbhBy9TGY8ePv8YL2y6HK50EUKCMSJEevcRfEVo6/y8y+XXUunM+Nc7JZ1mCaZa6ByJlN6SZDhTWqkgEvbdp82TbqimmDSnn4SHBspy9XQQQXNL3svPGKpYHADHr52yj3YHDjZp0SK9f9wRdDi5Hce5+v/hBfwcptcMo4HjuHUXns0pxgK5wrd75EhmYWZubKyzD9DmsAPhJoJG60y7jrcC1VDkzyMZ2sL9dABBeBytnnTzjrbm35Q2DC/OGrdppYlDwLTXklIMzs+VqS213WAjIWWrEARrb7YC3ExcpjgIjU9DAZiQVXnrxeyc2Gx007W9H570zvBN15uNa2r9GyEFA5/0PXJfaRbHj+NX7gCojAukSjFWgN1sVZYGDvPcIAEk83pHWCkmvct6f/ThkqKcMvCi3EBuixFtKyw72O9Egqi9xI6lRNYQPIKonVNJ2+7xxbcbbaW2dmej38LNWDl7mHyqrT5PSnYxDBAp+JKWbLNxeqEAFC//tNlNBqH8cuOABBmrs8SnL37e76ImwsyGxP+bD/Dw7fGKJLLlQdm2bMZlL6/48MTc5pQRTKj7AuoJGc7hmne96rs+13BPhgzcG0Ke+bSId/8/OTOAIR3Ah8IL8/0e6KBgIT5qnPWmh62ZxMVygMzbxO0ESd+Z7kqP8zdsMOELlcn4ResC4VDTIQNT5EenKx4B5GmTKV7TPkDBuCDZX9k+wjsauNWNYD+hpXDV7Om1a2QQQ3gCaxaDqLi7B7A9Z+6Df5v99GqVBNGIvRaD6UGHnd91qZXBZo2H8DUyZW7ZYWsoWkmttcb7Zs8Tks71iHum6wRnLXe7WO1iLW8T3v1VLj+Zm8EtJsgQh8IGhX/6evOxxnogJEoIGgpeF4gZowmQKlK5Ok9Nwt/CH5ml+YztcEX4g7vWAxxjMxepwMXc1kT1F+toCkbmiK7vvQ+ZymO9+tYcctqn9zedkCETRQ+eNXHY5QD+AB5AOAYLg2WgSAGIX+UmdPCS0kXwCJXsNzid1qJs1mTMsT7AcpBpnKZU3gPmHa1J6bolsPOk+Rh7O1eWSGcknJywtEcKEI41q1MJYpYvcd07xe+7FrZb5ooTPc0BMkDzwptJA8QeRKSNf5eE8GkPp7SItfKoqHUi4AYv0G6wfaA0r/H/640fGQLJhHmIOt6utrJLmDCFLZFyR6+ngLaxBO/SA3lkXYhIFfpZAyUS2GZXvXY90kdVwnQCRPEOE2ji6NtIhXXkfJyXKWKSoCzTabnK31P4AIA4luUHRsjh4CkDjskgZn68nucdLX6fqWM4gkNJ3eqRxwhG7WDQGAHj/aRIvpYrq1iFJI/0+ldEpe2i8AJE8AYWdq/TaKl29yXCMDLUTpfp2zUgtJdry4VmgkSEiDtu/kgY990SFtvdYbOYPI+Zllx04bC0T2Haims/2TjJqFbsJYAmAkZ0jpf1yASJ4gIrXsoPhKSNd+oZ1pxjF2h6AAACAASURBVNxLulR6Zowlg5nvWFcYx+KG7xJd6D9qGF7TPMwNRFIpno8LVHKCahaIPJqeDVMsAALmaYtNJHf6W7Eb9pDtRteXGdKNO+jABgCJR24gfcmcnVtMcpUJDPl8Bg3QeLpxeNrxmsWaR1MjNJLO9soJRNBFHXMx3AAQAAnQcVFKZruegvwfGJZExW6eT+GNFlkxf8/OVHSjd8OMObuDEuePkGFo6C1YkDLkxUVDLpG4ibEs1gPc9ntZhEZnY1kvM2cQefk7sy7G9kVkOHjQJmBZKZ74PYRX6X9MmDJ5gCjS2+PVWzkvxEnTodiZTSS1/IZ0ZWZNdTur5JfAPwGneFjf8a79Qj1rvUOB6J9czEq13EDEMFzVRNClHT1HiuGFB58W6yO541pRK5MjiLAW0ryD4mc2OaqRgRkTq7yetOW0vS60kJ8tqfH5OO094J4mks1UzAlEsOP3nZd4zJ+FTE7e7/2wns5NLf3shgvxHylDp8Twy0ILyRFAYKJxSNdhrxDTD3I9JSdOUSrHzMpClC8n14x1+0XbqGM3BLSQhz9qIAkJoVkuKGcQGZ2J0f1HGhxfEINPWYSON4/4Mp0ryz27+i8jOUvK4LMk9z9OSv+jpPQ/TEr/g6T0YbuflL77SOm9l5TeX5HS+0tOiVd67iKlG9sdpKDat+u29HYrKV37SOncQ0rnLaREbyYlupuU6E2kRG8ghYv6riM5em3a/4IxFLmPosjFZwMtAZtX/hjWQurMcRYcUbHpUMW+cs9fSVcLt8mQq4KY5WCLUoLu/cBZGjzWK0DkaOP5NXNvcgaRpKrRsaYRx63ZrItCZ6bOMczCyIZtWSgSwn8B6c1EOYNHD6RSBj8V8W4Yep6bxo5B+FdWNl3l2g/Uf/x8SxIyZHnTFE7xRrm7ocVJ12Kkq8ukq0ukq4ukJxd4Cp+enCM0j9YTM6QnpklPTJGeuEy6MkG6Mk6adIHkvoe9BZHWnRRDA2gHpf6shdTcTtryiPCDrLEuMG4Cs66dBENugh+zLEK/P9FG00trD/jKGUSwYJbkBB2MDDouusONYXvwowZqGZ2x3QxlDfr59m/QxNrMk6Y4OnD1/7y8HFQ2XLkG87xmgALugXw3PdZPUvQGz0DE1EKQWLaZ7IZ0sS/8IMmZhqLJdHZbQjTdoE+bztPtLsyrefp4Mw1eXly3qjcnEMFNWgtD13V664w5jNuJX8TSSBB/Hp1ddpuO4nh5UgD8TVx8m+SOnd6ZMm070x3LkJ1qbyZOvGIrKcMfpjW+wtVi82RPzj9Hpur7dUP8kHakhZRFuMQFI1o2KkvJGURwFxaQXF6U6KV0K0QnQLKikRypp86x+YI2bXLmcgh/iKVoqIsk93jXWNrqWIa8ELumDO/X8jRpUv6Nc0JIdtcvCRmq8F3sPWC/itdak3/8qj0959rUdNe72LxAxDoQkGlsLsb1L07QztJG0A4A+fldl+aFjWsR2cd3PBwwI0fuhCPX/ebSMGMwU8YpgMTO7iJ1Pmo6+HykTyGcCibMR/VDhMbLN71dacsXYgEIfCDo7bORBmLRxRaIWBrJ+EKcHnVYcmxpMgASlC+PzccEkFjc8ekdjuDkxMee9UFhLYQTy+yZMaYPZTslx77JWbB9Il0oTgMnKibkWSBgrSk77+hvnIsJk3njtkAEBwCQwP6CYxR5H25pJHC2RmHaiMShTD55+tnQFVLOPeeZQ1VCevtKkV3+vhD4QeTu10hX5RWT2lOCFNDBWQNpGObUdidrEPuiuyCqdXPVQCwy2QYRHICBRDeo9cIs3eKw5DjTtHnoowb2COfSVcm6EfFunwK6PEJy9CZPQIS1kMotjtoextPhXAg3ZU13sn/vhbwnAOQ/Ff10M6Kdb9vvcwwAee3HbpKSat4AAvo5AhEcAEAC5qJ1PXozOkHDTCB59Ggj5+oXch5JIQgo+Je49K43AIK+qekhVJKNvBA2Y85eQ8mJM7aEuxDob/caUXv2bvW5Ff+HnXWHfbD9/VQ3zS6beSCQh3xfroAITgzP8GfNI6yR2LHFMvfBjVk+EnRosnNj+RKiVH9vqEskdXvTWBrDveO2O5Yhl2QrKefeJV0vjv67bslYUtNof9UA7XMQheH1Vhahf53p4zG1+ZowmffiGESsg2Ghq5pG/1fRxzU2dpAxE0jwGV5mOG4RCRJAYlHavXfm2UI9SR07XddErMQys9Tfhh+kfAtJLU+RroiHiMVx8EtJmmvMbgSG11VZhDCi5f/K+3gAltO15SqImDep0r/Ke+mWjNL/1eCQ69+sbr1dyaHknokF4Wy1pMmld4z7TF74NyeYYdG7Gd510jeVzZjIDaTONAozJoPXmIhwsHpwxf9o50HN+5RF6D9n+2kunnDl4ewaiOBeASJQi9AIBaEiOzeZCTAMImy3VdKvjzat2c8gg87iYx4UQN2MF31Q5PadFK+270yNlW+hZHpmjNOnZB7kCPVPEyo0kP6V2jU7awv7oOfqezVDK2FcN27aVRCxLghAgs7waMZsAUEmONj5fFNZJT15rHllwJV1LvFunwLaYjPJqBh2McGMzRhOLLM3hCoOMyb6v8IPksFWaCD/PdvPfkI74GGttz37q+hg1SDJ6RlPbgG0JyBiaSRDU0v05PEW1zrEA0ie+LSJ+iaLb7Zqhsz48hE8SowfJqnD3QxVaCGx6nSVro2IjFR3D2mL/a6o2b4Q0uOTqJpO79Wec5zKfsv+Kq7qxeA5t8DDunVPQMQ6ODSSgcuLrnWJt7QaaDgX57L3e7TOLd7XpwD8IXLvA647VCUehWkvMxWtDpOXTppNhmyEGte/48L7Nqnp9M/TvY41EJgwaOOB9hQmgOQfxl2Pep6CiKWR9E8u0DOfuaORQDUDmPz281aCpuM2qq5HrGL5DjTTFltI6rjWVRCRoIVE8u8VYqa1byOl7y3S9aTgKREtyUnaHxkwE8lsBimwThDg+LBuiGKKFSZ3F0CwJjwHEQtIzk8v0zOftTp2tlogAgI98WkzDQjTJm9sS6U0UoZfcRVA2BfSsI2gTQAU8in159+3PLkSznVfzPMmUaA7wImKTFQn1bhYJ/CBHG8eXQEQr+jqKYhc4YQZtRmdWaYHPzJnhAIELIePnXfsj+2Zz1sJzWiFRnKF2ht9MpQJkjr3ugYiABCpdYet+hjWQqp2kzrdUPI9QiDD0Bj+dabXUUAC6wID4j5lEwZd9zYu599IZtb73icQuRL+RYkxCn1gp9kBj8x9LCB59vNWbvwsgGQ9VpvfgUbqzEmeGexWVIa1EPRNtdErBOHcxNBhMjT3HX4bUyNcv8BwqLLKAdq731k/EGggnzSep5himoZerwvfQATsws2gFgaaw/Nftjk2bSwQwftTx1toZEY4WzdaFildocToG65pIQAipLfHOL09P4cqtBC5/fcrzZa9FvaNaBPk98hERQ2Lk0JWrANEYU60X+AyFNDTD5r6CiJXgMSgqSWZ/vR1O980bj5Tw8j3swUmf/iqnSYXRffv9RaDrlwmue8h10CEtZCa/Lu3sxlTdzdpS+bMGD+EfT26BPndgpTgchFLjvOVf/we++47WM2dzeBT8ZOevoNIJpAgs/Ufp3ocAYhFcIsBT3/WQhhv4ScRgxTAfM+tzteRHL3RFRBhX0izOQqTnaN59E2NV2ynxMWvuYt9KfMKhav/Lu9zxYT5vHWUkJjmpJguX3nC7wMBEetC0VELdturP3Q67iBvoTHA5PkTbXR50WxgY51LvMOcNEgZed21WhnuFRLJLzOVNRCYMdGXSS9hPwiAc1lJ0svfRh3lgbAGcqCKfugcM8EjgH4rAYOIGbUBkLxTOcDqmKVZOHkHYV/4uoMuzomojQWeEFojMUVS1z5XtBD4QuKN29IDuXOv0mUQaXqMNGW2pLVFFL/983SPo4cn5HzP/gidaLtAStLKA7E47t97oCCC22ThNgxOrjlY5WzYjgU8IC42RG0uivAvSxPonJz+1kUtJJ1YhoHa+Zgx1beUfHUuxlH+5YcuR/5AyDf6iZzunSD4QGDCBPUKHESsGwcRQIwDVYOO+0VmggmqiWdia0/vss5f7O9mH9XfuaKFwBcSQ2IZhlDlmFiG3yGcqwweIENPFju5s94fgHw2lqA/f9/p2IS5/d0a+t4yYXyKwmS9qaB9IpkXBQLz01LVeXrXbQ6ndwFIgNYYA2iaNqXrbAVd9fggyd13OAcRTizbSbEKMzM1HxCRWn6zkpWayftS+bwoJ+nvp3q4IRDLpo10dksD+TY6RujyHoZXaDQREMMCEmgkx5pHVvpHWpqFnXcQHRvCv4gGleILdFWnvyG543rHZf8riWVIb8/RjGE/SPVeUpeGfI8chIXfcUUlDITCQ80pgJztn3SlI5lbtAkViFg3xUKv6fRF6wW663AtE94OgFj7MNPKIvT6D10ladqgYlcZedW5FoLEspYd6cSy3Otj4hU7KDFytGTDuXh4/fVkN4OHEwCBCfNNx0VCj1XrgWutmSDfQwsiIBI0ku+iY+ZULxcS0ti0+SZKkyUW/tWTMyR33+kYRNgXUruV4nkU2UELkdufJz2BManBOf+CWmTQQAAgTjNRbz1YRT92XeIeq2ECENA1lCBiMRzEwmyN8r4JuuOQ83EU0EzwJHj5uyibNjh+sb9wj+rM9yR17HIEIgCQfEdhshlTcwfpynSonpx+8Bx0n40phJGUaKblRAP5xaFqquibDK0pGGoQAbPBDF03qGrgMj1wpME2MzJNGxT//eX7rpJIkUdURu5/0lFolwGkzQzpIiKT6wyZeGQ3JScryUiVlgYCmb28JDtOogTwYLbut9GLrJXjuGF8FQSIgHiqrlPT+Rnae8C+Y8rSRPipAGfriXau4Qkrc5wKDGROj/U5bj4EEDETy/II6Z7ZRErfv8jQSixzOJWiRSnJsuXUiXrboRqqOTdFaJHodyp7PrIXehCxbgYLHYTsHJsnjNkEgyztws67qV5G6G8nu11rnW9da1jezUHdRwh9T52U/Uttu/LqWMZmDHqlSpOsSYaFHl5fB2R0YlGiP33d4diEuePdGvqh6xJHYby+bqfHLxgQwY1aQILZv4980uiaaYPkH1QVF5tGYqiLJA86SzBjUyaPxDIznLuHtIXuUD89nS6cbPvDB/LK952OeuWwCXOomk52X3GiZjtXmP5XUCACwllAMjy9RHcfrnUMJJaJ89K3UUJJdjG99FgvJ5g500KQWGaZMRuHdbk6d/R40QHyenIBmYTs/OZYs2MNxDJhLPOlEB5sBQcimUBybmqJGzY7NW3YHCqL0Bs/9dC8By311xNAL79LTn3J/hC7IMK+kNrce4Ug9MtNhlBc5+WNhezYl+bj3K0P86NNM7kqb1Mb+8GEOdk9TujyDvAoBAABKwoSRHDhILBuGNwW8YljTVyLYMc3Yu0DJiJq88p3nRyaKxQGrrWeUimdlHPPOQrrcmLZihayfqUuzJhY1c2kLQ0WjPCvRbt8/r8gJemFr8x2n04ABGHcyMBkupiusCC4YEHEAhKofdNLMj33ZRvXJFigYPcdg5KRHAT7tpCBRJdGuPmQfS1kJ8XRsSyHAjv2g1ReR8nLkZJptgzZGJ+XeCojwMMJgPzy/TqKDFwuWB9SQYNIJpBApUR5tV1mWqCD/dGnspCBBFGZxNh++1pIxzUkoWNZushuo1L/eMU2Uvr/TbpafM7pbFpJilI0sWCaME4BBGUd0ECS6ZaGhfjgKngQyQQS+DNQaGcyNn+7NBNIoJG8+A2crYVXto6ojNR9t20Q4Y5llbk5U1kLqb2LdNnMqMy26Irtf3MxhX7zqXMn6p2Ha6lzbI50vbB8IKv5WRQgYt0UUBxd0l5DwxcbZdYWiOAdQAQfyVune2lRKpxxBqCBtlBPUscNtnJDOKSLjmU51McwgERuJHWmmQw4Ai1GFOk7aIvxrUhSxEMGMpIpM7l+xn4wYSoHJtMAUtgEKzoQAaPRXxXt9+0y2RIG7A/T5vUfu8yoTQEsE1TsJscOkGxzULeUTm8HQGxsxqSrcw1/u4sHseQgV6jGRTk/Hi52ZQv73f1eLdUNTbEJA59eob+KCkQsZoDhclKlf5zqdtQAJhNM/n6ymzUS6xxhfTeS8yQPPm3LlOGQLieWbdzyMH5mM0ltvyNdmS9oB3QufIQ8YRTJox+bUUAnAHLP+7XUOjq74kTFsQv9VbQgAubAR4KZpnhyWIBg5x1Cg6li/z3bT7FEcA1xcxE2LdZNss0RmVeGUK2vhUBLiVXeSOpcBy+GXK6rUH8DOULDb3THc5oHcs97tWzCoA6sGMDD4mlRgoh1c1AVkUn4dmW/o0xCAA+ABD0h0N4Orf7DKAR4qCXGPySpPf+yf2ghMSSWbdQ3Fd9XbKfk+ElKFbkZAx7DhPndF22OO5LBhGkZmeVC0jDKjrVm7LwXNYiAIGAYqiA/rB92pbnR7nci9K/yPo7ahE0YDC1Gcs+9eZsy7ExFx7IcQroczu17kwyjuJ6mqxcPHMUorXjyOKIwznwgKBhtHplhWQybzKy+bzt/Fz2IgCjQSBC1Qd9WJ04xSyPZc6CK3jrTyxPc7RDdi30YLDkqc40tEImzFrJp/V4hcLY2PEBabNTUxIrAnl+LF6OzMU5gdFJSAfD51Qd11DQyww+yYgQQ0K8kQAQ3iieLpuvco9INIIF9DCDBGMQwvFIpjZTzr+UNIMholdqghVh5IWult2Pkw2ZSp2uK2g+ChX55SaIHjtS74gMZmlripkzFCiAlBSJgIjZkBmJi2B2HnbVbxFNm74FqerfmXLp1f4BedvRaUcbZlMk3zR29RmJVWyhevrYWwvkgaLZ87hAZevGGcyEfg5fNok6nTlSYMI3np7m+q5gBpKRAxNIWwFDM68DksFsPVtuO91umzd79VTyQGVPNKCD1Hvekzp0lKbo7rwQzDuk2bjyQGyBiVucWbzgXNETpxDOftTiqwcLD5f4P6yl6ca4onajWOsp8LxlzJvOmITDwk1QPXubEHzDeTujXAhI8tQ5UDZCUCMa0QZQkcfG/3Iw5H02EtZAItJC1Q7qshVTdTOpcOxfXZdKxWD7D1D0/s0z3fVjvihO1d2KB5QtyVgqvkgQRMBYMRt8GdJK/ywXTBlrN+3VD7CPxOwHcUJdJ7ns4L3/IlcSytX0hphmzjRKjx8kwwp0fY3exQg6svjROHybwoyAKgwkFpQIgoHvJgogFJAj/tl2YdUUjuWV/hHNSYC75KUTqYgvJHdflByLtuyjGRXZrZ6cCRJTu10nXrNqh4nqygkdIJHvsaBMhdO9EG33wSD2du7xUEj6Q1YBd8iACQYJp035hlh4/auYEOBEmJKQdqhn0LfwLU0YZ/nN+AILu7Rt0LGMTp/Eh0mIXfAXE1QLq1d+GkaLOS/P08MfOxpBAe0FbxO7x0jJhMvlS0iBiEQJAgvAvhOpBh7NtIFT7DlTRgapBSqi6dQpP3qEX6Mo4O1RhnuTqD+GOZeXmQO7sRXYI524ldbKcjCLNSh24vERPHGtmDcSuGYP9EIXpGV8oORMmU6AFiGRQA818Ls1L9NgnjY5GUkC4sAFIOI/EIwcbwC85/R0PplJyBBGATaxmC8UQ0s0ykJv9IOVbSOn7d1GGc+FERe4G6ljsggdrqgCQIw0sLzgmeFGqLwEiGZy3TJu+iQV69otWR0IGAYWz9YO6Ic5NyTiNax8NTSJl+OU8TBmMwty+7kDuePkWszpXjfPCKKbFgXvpuDhHjx9tcsxb+FHaL8yVVBRmLcEVILKKMhA0NIBG85lnP3cOJMgjOVQ9yJGgVady/Kcuj5Dce2/OZgxrIdVb1m04FK/eS+psmxnOLbKn68jMMj3qcF4RHg4Pf9xIA5cX2QQuJpC1K5ACRLJQDoIBZ+uluTg9/yUGMjsrwMJA5++iYwxOWU5n+1/qXDnJ0dw6mHFId53EMpgxMZgxQ++Roau2rymMO4Kfk4sy3X/EzANx4jgHCPWOm0l3AkBMbgsQWVPqASSo5FymP31t9W21FwYECKEaFILs1oubMY/8NSdTBgDCHcvSfVM58rLKHwIzRu54gYzEUtHZ96pucA4P+GAHQKyHyIMfNbAJU2p5IBvJrACRdSiEJw22JTlBGLVpVwghuPsOVFPD+el1zpbfV4a6QHLXbTmDSLx+m+lMzZKdyqBSeydp8fGiHPkwG0vQs1+YGqVdEMHY1rG5OOkllkiWi1QKENmAShaQYFYvJuTZnfQOAPq89cIGZ8vta1xTcurrnJsPyeibutK9fXWV7maKVeyg5Ni3RdsjBGX9DxxpsK2FPH28heBsh4kL2ovX1RQQIHI1PbL+BcGBAM0uy1xsZwdIACIfNQxnPX6+/0zpMsn9v2EtBKbKevkh7AupQ8ey7Hkh6Ooud71GRjoak++1FMLvh6aW6d4P6vMGEfDssaONJZuJmitvBYjkSinU2xhmA2j0WkXP1fzMmwh9Gx1z/CQDoGkY1B29cUNThn0hLajSzV4fwzkhDQ+SnkDPi+J9wo7Nxzmiko8pA97Cj3VhNsY8ExrI2gtFgMjatMnyjekjmY8rdKj6HI+TyBVIMKgoOjbnAojolJw8Zo6E2EgLad9J8WqrSndVpS6ApXoPJafritIPksm8RTlJL30bzRn0wdOnP2shVOMKH0gmJbN/FiCSnS5r/tcybeSExolkmEuz0RMOQvmnrzsI4OP0iYY+qsrwi+wPWc+MwXdS89ody9CESBl4h4yV4ro1b7ngv0Dez9cdF3MCEfAKtTDj8/GSLKazw2wBInaolm4lgL6tSCRD9W42jQT/w4Z5q+hy5dRkAADp0nmSu+/a0JSR0LEMWsiZn6e3c1Zq82OkJxYcg5pN8vm6G+iGDv2vfBddU3tk/pVF6JnPWml4ygxzOwV8X28ywJMJELFJfAgYnK3LcpJ9HSjmglZigQne0T7xhW86qGUUPSacd0fHOZPT35LUsX4zZnamNmX3hXA4t+4u0paGit6MsVgLumGDJni45hyPsAR/MnkFcxM9c7mcX4RxLdLl9C5AJCcyrf0jC0yglaAhzccN52l/1SB92jTC1Z0owMNv3HilUjrJAxtPt+PEsrPZozFx9Eq9+DWHc924pkI6BvgAMMeY1Z96x7k/LjTJk93jbL5YIVy3+FVItHFyrQJEnFAvY18I3npbxk9tf9TiAyRHr984pIvEMpgxmYllSGs/s5nkrj+Tnlw0a2NsX0nh7rgejwR42OOrABF7dPN9L05zH9u/sS8kM7EsA0Q4nFv3S9KkSZE05Tv3ivuEAkQKhL+GOkdy3yPrgoiVWLZ6/AMDSGQ3qTNNrplWBUI2cZk+UECAiA9EdnoKqNnaUgtJnXtpzeZDKLK7ahTmlbwQdClTBveToTkPMTu9F7F/8VFAgEgB8BSmTHLiI5I7rl0TRKCFxKq38vgHjsCkq3TjZzZTvP4e0pVZoYUUAK8L8RIFiBQA1wxdJuXc79Y0Za6EdK/OCWEzpnofaQs9JRPOLQB2Ft0lChApAJbq0hDJnbesDSIY/8Dp7atA5Ow1lLjwxZXqXJdCzQVAMnGJPlJAgIiPxLZzKvhDEuPvETJQoXGsTnXP1EKuMmMw+rLjj6QnFoUZY4fwYp+cKSBAJGdS+f9DAIihLpHcffeaALLSsSwjL4TNmNrbSVseIvhTxEtQwEsKCBDxkroOj81RmcVmkjrW1kJi3CvkSqk/A0jldZScaaaU4TzV3uEtiN1LgAICRELMZB7UPfZOVi2Eq3Rbd/xs/EO8Yhspg+9ws2WAkHgJCnhNAQEiXlPYwfGN5CwpA0//zA/CfhGMwqwzQ7rWECpOdW96hLT4JdMPIkDEAfXFrrlSQIBIrpQK4HfacifJnXuyggj7QiquNmNiFTtJne8UjtQAeFXKpxQgElLuQ4lIjL+ftfmQ3L6LO5ax5pEGkjjCuaPHzbqYkN6TuKzipIAAkZDy1dAVknsf/pk/JFtIF85UOfqSWZ0rTJiQcrR4L0uASAh5y1GZpTaS2n/efAhaCBLL0HwZvhAASKxqN2mLfayFhPB2xCUVOQUEiISQwYjKKKNvkNy+8yp/CGshPArT9IVwOPfsNZQc//FKVmoI70dcUnFTQIBIyPgLa0RXJkjqvvPnpgy0kLNXAMSszkU4173uaSEjh7icAqCAAJGQMQmmjDp3lufKZKa4sxZSv424V0jajJGaH78Szg3ZfYjLKR0KCBAJGa8NQ6XExf+ac2Wi17A5AwDhXiEZWki8Yiclp+s5K5WEMzVkXCytyxEgEjJ+G8l5kvsfu8qUYS0kYxQmmzHnjwg/SMh4V6qXI0AkZJzXFltNU8aq2IUWkpHejpkxcsefyEiK8Y4hY13JXo4AkRCxHv4QZfQfV2kh1hAqayB3vHofqfNdotlyiPhW6pciQCREEmAkZ0jq3LcCImzGNG/n8Q+cD1KxPZ2VKqpzQ8S2kr8UASIhEQGOysz8SFLHrisgstKxDGHdraT0/oMMTRbFdSHhmbgMkwICREIiCUhzV4ZfWAEQLvXPHIXZ9Ajp8pQorgsJv8RlXKGAAJErtAj0ky4Nk9zzyxUQYV9IZAubMrGz11JyspIMXQ/0GsXJBQWyUUCASDaqBPC/5MwpkqI3MoiwL6TBTCxDjYxy7iAZWkJoIQHwRZxyYwoIENmYRp7/ImUgKvP3lWbMHNKtSA/kbnmKDFUAiOdMECewTQEBIrZJ596OZjPmu65oIXXbuEo3Xn0rqbMtwpHqHqnFkTyggAARD4iazyHNWpkKbj7EZkw6sQwNhxLDH3GvVJHWng9FxW/9poAAEb8pvup8hp4keeApUwtBSLdmK8XObCap/Q+kq5Lwg6yil/gzfBQQIBIwT7T4OZI7rmMQkTiku4niDfeRtjzCAAJNRbwEBcJMAQEiAXLHHNT9SVoL2Ukx8eH3bQAAAP5JREFUhHQrdlFy/BQX1wkzJkDmiFPnTAEBIjmTyv0fprTllQSzODqWVWwhuecfwoxxn9TiiB5SQICIh8Td6NA8qLvHjMpAC4k3P056Yt40YzbaWXwvKBASCggQCYgRcHWo09+S1HEtxRu3Ubx6D6lzbcIPEhA/xGntU0CAiH3aOdqTmzEP/Z7iCOlWbKbE8PtkaIqIxjiiqtg5CAoIEAmC6kSkyxdI6rjRHIWJ4rrkMhkciRHRmIBYIk5rkwICRGwSzsluHJUZP0Lx5h0Ub7ibtPhFYcY4IajYN1AKCBDxmfzQMzjNve8RijfcSMlLP5hDp0Q+iM+cEKdziwL/H+zh3PCP5KDEAAAAAElFTkSuQmCC;" vertex="1" parent="un9lTaKR_ojWKBwgLZ8Q-1">
          <mxGeometry y="1575" width="92.54" height="80" as="geometry" />
        </mxCell>
        <mxCell id="hI8kfkjxQy-ftBVGHC26-38" value="" style="endArrow=none;html=1;fontFamily=Garamond;fontSize=20;" edge="1" parent="un9lTaKR_ojWKBwgLZ8Q-1">
          <mxGeometry width="50" height="50" relative="1" as="geometry">
            <mxPoint x="150" y="1540" as="sourcePoint" />
            <mxPoint x="150" y="1090" as="targetPoint" />
          </mxGeometry>
        </mxCell>
        <mxCell id="hI8kfkjxQy-ftBVGHC26-39" value="Service-1" style="rounded=1;whiteSpace=wrap;html=1;strokeColor=#6c8ebf;fontFamily=Garamond;fontSize=20;fillColor=#dae8fc;" vertex="1" parent="un9lTaKR_ojWKBwgLZ8Q-1">
          <mxGeometry x="196" y="1105" width="120" height="60" as="geometry" />
        </mxCell>
        <mxCell id="hI8kfkjxQy-ftBVGHC26-40" value="Service-1" style="rounded=1;whiteSpace=wrap;html=1;strokeColor=#6c8ebf;fontFamily=Garamond;fontSize=20;fillColor=#dae8fc;" vertex="1" parent="un9lTaKR_ojWKBwgLZ8Q-1">
          <mxGeometry x="206" y="1115" width="120" height="60" as="geometry" />
        </mxCell>
        <mxCell id="hI8kfkjxQy-ftBVGHC26-41" value="Service-1" style="rounded=1;whiteSpace=wrap;html=1;strokeColor=#6c8ebf;fontFamily=Garamond;fontSize=20;fillColor=#dae8fc;" vertex="1" parent="un9lTaKR_ojWKBwgLZ8Q-1">
          <mxGeometry x="216" y="1125" width="120" height="60" as="geometry" />
        </mxCell>
        <mxCell id="hI8kfkjxQy-ftBVGHC26-42" value="Service-2" style="rounded=1;whiteSpace=wrap;html=1;strokeColor=#d79b00;fontFamily=Garamond;fontSize=20;fillColor=#ffe6cc;" vertex="1" parent="un9lTaKR_ojWKBwgLZ8Q-1">
          <mxGeometry x="206" y="1225" width="120" height="60" as="geometry" />
        </mxCell>
        <mxCell id="hI8kfkjxQy-ftBVGHC26-43" value="Service-2" style="rounded=1;whiteSpace=wrap;html=1;strokeColor=#d79b00;fontFamily=Garamond;fontSize=20;fillColor=#ffe6cc;" vertex="1" parent="un9lTaKR_ojWKBwgLZ8Q-1">
          <mxGeometry x="216" y="1235" width="120" height="60" as="geometry" />
        </mxCell>
        <mxCell id="hI8kfkjxQy-ftBVGHC26-44" value="Service-2" style="rounded=1;whiteSpace=wrap;html=1;strokeColor=#d79b00;fontFamily=Garamond;fontSize=20;fillColor=#ffe6cc;" vertex="1" parent="un9lTaKR_ojWKBwgLZ8Q-1">
          <mxGeometry x="226" y="1245" width="120" height="60" as="geometry" />
        </mxCell>
        <mxCell id="hI8kfkjxQy-ftBVGHC26-45" value="Service -3" style="rounded=1;whiteSpace=wrap;html=1;strokeColor=#d6b656;fontFamily=Garamond;fontSize=20;fillColor=#fff2cc;" vertex="1" parent="un9lTaKR_ojWKBwgLZ8Q-1">
          <mxGeometry x="216" y="1345" width="120" height="60" as="geometry" />
        </mxCell>
        <mxCell id="hI8kfkjxQy-ftBVGHC26-46" value="Service -3" style="rounded=1;whiteSpace=wrap;html=1;strokeColor=#d6b656;fontFamily=Garamond;fontSize=20;fillColor=#fff2cc;" vertex="1" parent="un9lTaKR_ojWKBwgLZ8Q-1">
          <mxGeometry x="226" y="1355" width="120" height="60" as="geometry" />
        </mxCell>
        <mxCell id="hI8kfkjxQy-ftBVGHC26-47" value="Service -3" style="rounded=1;whiteSpace=wrap;html=1;strokeColor=#d6b656;fontFamily=Garamond;fontSize=20;fillColor=#fff2cc;" vertex="1" parent="un9lTaKR_ojWKBwgLZ8Q-1">
          <mxGeometry x="236" y="1365" width="120" height="60" as="geometry" />
        </mxCell>
        <mxCell id="hI8kfkjxQy-ftBVGHC26-48" value="Service-4" style="rounded=1;whiteSpace=wrap;html=1;strokeColor=#82b366;fontFamily=Garamond;fontSize=20;fillColor=#d5e8d4;" vertex="1" parent="un9lTaKR_ojWKBwgLZ8Q-1">
          <mxGeometry x="216" y="1485" width="120" height="60" as="geometry" />
        </mxCell>
        <mxCell id="hI8kfkjxQy-ftBVGHC26-49" value="Service-4" style="rounded=1;whiteSpace=wrap;html=1;strokeColor=#82b366;fontFamily=Garamond;fontSize=20;fillColor=#d5e8d4;" vertex="1" parent="un9lTaKR_ojWKBwgLZ8Q-1">
          <mxGeometry x="226" y="1495" width="120" height="60" as="geometry" />
        </mxCell>
        <mxCell id="hI8kfkjxQy-ftBVGHC26-50" value="Service-4" style="rounded=1;whiteSpace=wrap;html=1;strokeColor=#82b366;fontFamily=Garamond;fontSize=20;fillColor=#d5e8d4;" vertex="1" parent="un9lTaKR_ojWKBwgLZ8Q-1">
          <mxGeometry x="236" y="1505" width="120" height="60" as="geometry" />
        </mxCell>
        <mxCell id="hI8kfkjxQy-ftBVGHC26-51" value="" style="aspect=fixed;html=1;points=[];align=center;image;fontSize=12;image=img/lib/mscae/Docker.svg;strokeColor=#1A1A1A;" vertex="1" parent="un9lTaKR_ojWKBwgLZ8Q-1">
          <mxGeometry x="396" y="1305" width="50" height="41" as="geometry" />
        </mxCell>
        <mxCell id="hI8kfkjxQy-ftBVGHC26-52" value="" style="aspect=fixed;html=1;points=[];align=center;image;fontSize=12;image=img/lib/azure2/compute/Kubernetes_Services.svg;strokeColor=#1A1A1A;" vertex="1" parent="un9lTaKR_ojWKBwgLZ8Q-1">
          <mxGeometry x="236" y="1590" width="68" height="60" as="geometry" />
        </mxCell>
        <mxCell id="hI8kfkjxQy-ftBVGHC26-53" value="" style="shape=image;verticalLabelPosition=bottom;labelBackgroundColor=#ffffff;verticalAlign=top;aspect=fixed;imageAspect=0;image=data:image/png,iVBORw0KGgoAAAANSUhEUgAAAREAAADsCAYAAABT75L9AAAgAElEQVR4Ae19B3sbZdb29wveH5We0ANJYKm79LYsZVnYAi+wC2xhYffdxaQQSoCQUEInIbFjuXdb7nbs2IljO+5Fmhlpis533Wc0jmJkW5ou6dF1zSXZ0rRzznPP6ef//c///A+JTdBAyICQAbsy8P9IvAQFBAUEBRxQQICIA+KJXQUFBAWIBIgIKRAUEBRwRAEBIo7IVzg7p1IGpfQkpfSE2PKlgaFTKpUqHGb7fKUCRHwmeBCnwwLQlXFKXHiLlOFXwrMNvUJy14skR0O8db5CmjQhQGQdwRUgsg5xiuUrgIg6e5rk6I2kRK8JxSZ37CKpaTvFyjeRVLEldFu8fDPFy7eQ3PcWGbomQGSdxSBAZB3iFMtXKUOlxOgbJHeEA0AAZACReM1WiocYRKSmR0mXJhlAhDmz9moQILI2bYrmGz05T3LPL3nhhkUTkdp2UOwsnvabQ6eFQDOKn91FyfFTZBg6kfCHrLsWBIisS57C/xJP0OTsKZLazad/GECEtZC6beEFEJgx3a+SoSnCjMlhCQgQyYFIhfwTQ0+QPPAUayFydFfw/hD4Qlp3UKwinFoIa0YND5AuXxYAkqPgCxDJkVCF+DMEJbV4H0lh84XUb6P4mU0UD6NDtfJaUqdqyWATRoR1c5F7ASK5UKlAf5NK6ZQc/4Dk9p3BayDpqJDctpNikS0hNGU2U+zMJpK7Xyc9uSz8IHnIvACRPIhVaD814FAdfCZcDtWm7RQPoSkDMyYWuYm05SFKGUahsTrQ6xUgEij5vT25thwlueu28GghCOtWb6FYyCIynBNydiclJytMABHRmLwEU4BIXuQqnB9zVGbi49DkhnByGRyq5ZtCZ8rEK7aS3PM3MgyRVGZHwgWI2KFaAeyTMjSS+x8PjSnDYd1aJJeFLCqD66m9ndTFfhGNsSnXAkRsEi7Mu0EL0ZY7SO64PhSmzIoWUrGJpBCZMiagbaPkhc9ZCyES0Rg7ci1AxA7VQr4PtBDl/F/CpYXUbwtVnQw7Uss3k9z5MulqXGghDmRagIgD4oVxV2ghqNiVOveGBkQkDutuDh2IxGvvID0+JgDEoSALEHFIwLDtjr4h6syPJHVcFxoQiYcwrBuv2EGJ0eMErQ3AK172KSBAxD7tQrmnocuUGPlbqKIyYUsugykjtT5DemJBAIgLUixAxAUihukQunKJ5N77QqGFsEO1eQdngoYlxZ19IdW3kLo8zAAidBDn0itAxDkNQ3MEaOXJuQqSOq4PB4i076IYksvOhKfxUPzsTkqMfk4G2kUKM8YV2RUg4goZw3GQlKGTMvwiAwi0gKDL/qWWcFXrQguR254lPTFvaiECRFwRXAEirpAx+INgPWjSCEnRm8KhhSDFPZ1cFob2h2zGVF5P6mw7wfksXu5RQICIe7QM9EhYGInx90iCBhICLQSVw2HqXBYv30qJdFKZMGPcFVUBIu7SM5CjYVEY6gLJ/Y8FbsKs9E9tTCeXhSBDFQ2XpfbnRG2MR9IpQMQjwvp5WICIttRMcufecIAIkstC0j8VZky8ei+ps63CkeqRUAoQ8Yiwfh7WbD70fig6mHGhXSNGQYSj0A4gkjh3iAwtKUDEI6EUIOIRYf08rKHFSUn3UQ06IiMjrFu1JRSFdgAQqekRM6nMEBkhXsmkABGvKOvjcbVYL8mdu0MRlZGQXFaxOXAQYTOm6hZS5zpEONdjWRQg4jGBvT48/CGJC/8huWNn4FEZNmVqt4YiuQzRGGXwABm66jULSv74AkQKWASQG6InpkjqvDUcWkhIRkGwGdP4MOlihq4v0i1AxBcye3MSaCHqDAZT7QwcRKCFxJBcFnCKO5sxZ68hdbaNDEOktnsjeVcfVYDI1fQoqL8MTSbl/J9DASDcMyQEXdxj5dtI6f8PA4gYf+mPOAsQ8YfOnpxFl0a4YjfoDFX2hTSYyWVBVuuaZsxDpMVGRTjXE4nLflABItnpUhD/VWfPkBy9IfAEM2gh8SqMggi2Whcgkpz4iWtjYOqJlz8UECDiD51dPwvXyoSgjyrm+1phXdYEAhiNyX4QHsL9mkgqc13SNj6gAJGNaRTKX+gKojL7QuEPwUCqoAAEFcJ87sYHSZfEEO4ghFWASBBUd3hOqOrJyWNcsQt/RFBZqjg3ayEBDqRiLeTsNZQcPyWiMQ7lyu7uAkTsUi7A/Qx1ieTeB8OlhQRUrRs7s5nk7r/wEG7hBwlGKAWIBEN322fFQtEWm0nuuCFwEOHOZQFW60ILidXcSpo0KVLbbUuU8x0FiDinoa9HSBkqJS8dCrybO4d16xDW3UxBdC5jM6byOkpOlJMhIjG+yuDqkwkQWU2RkP9tJOdIHng6cC2EO5dVBlfuj0ZDcvdrpCdjIickYJkVIBIwA/I9vbbcTVL05kBBhLWQpu2BFdqxGVN5A2lLQwJA8hUgD34vQMQDonp1SOSGmKbMLpKj1wQXlUH/1IC0EAaQih2UvPgVGYYuQMQrYcvjuAJE8iDWWj+Fs1NRNZqLJ2gurpCS1MjwoAmOocVI7rkncC1EghYSUFgXPhi58xXSNcWRMxU8U3WDluQkzcYUWlZU0kXB3loivu7/BYisS571v4RDDwL4XecYPXG0ifYdqOLt8aNNdKL9Al1elFkw1z9Kbt+y0M9FAgUQbsKcHkjFzY99zk5lZ2rt7aQt9trWQEBHKaFS24U5evWHTrr93Wras7+K7j5cS//8qYcGLi+Sqonq39yk0vyVAJF8qJXxWwjjwOQi/eFEO91UVkk3lUWu2m58u5J+/WkzVQ+6k0WZ0hOkDL8cOIggrBvnat0tPkdlNnMkKHH+YzL0ZAYn8vt4aT5Ob57upb0Hqlb4tfsd8zN49sv36+jLtguU1ISplCtlBYjkSqmM3wFARmaW6d4P6uimtytp9zsRgiBmbhao3PFuDQ1PLdl+cuK0KCXTpWGSu+8MFETMsO7WQFLcuU9J6zOE9gegv50XzJW/ney+Cjyy8ezmdyJ0qHqQEqpm+1x2rq9Q9xEgkifnYMJ0js3RI580sjBmCmG2zwCTxz5ppAUpkeeZrvwci0ad+Z7k6I2BOVMVFNq17QhkFMSKGbNsv8QfNDzdO04ACPAkG6+s/+F7mDjv1w1RTBFd4q9IYvZPAkSy0yXrfyGIXZfmCT6Pm7JoH5YQrn6HuXO6Z8L2Uy1lJCkx8po53S6gqAxrIfVbA3GomkO4j/HwqayMyeGfcKDe/2HDhgBi8Q5AcuvBanonMkDxhEop1gdzOFEJ/kSASI5MR7Sl89I83XbwalvaErr13iGQ/z3bz9GAHE+38jM2ZZIzJHffEZgpAwDhzmUBpLhDC5GaHl8Zwr1CmDw/dF1ayBlAMnkJP8m/K/oopqi2HwJ5XmrB/VyASA4sgwnTNDJDD39smjAbqcOZQmh9/vupHlJUPYezXf0TaD/J6e9Iat8VKIjEG7exL4QXtU9RGTZjqnaTOhflBQxa2H3VDU3TjRuYMRavMt/B670HqqksMiCAZA3iCxBZgzDWvwEgzSMzdO8H9baeZBBICOK/z/Sxx986bq7vhp4gqf+xwAAEYV00gsZAKj+bMANAYhXbKTF63HFSGcAHIV07IGLx75Z3IvTqD120KCWERrJKeAWIrCJI5p+ablDt0BT94mC1IwABiHzdcTHvQjEIvxbrYwCBSRFI3xCYMi3mQCp/tZAtJLc9S0Zi3rE3AnScWVbozsO1jvgI0+aNn3poLmYmumXKSil/FiCShfsQOoQDqwYv0/1HTA3EjgljPcUe/aSJJhelvJ9gPGN34kigWgg7VGvM7mF+gQibMZXXkjrdwP1Ss7Aor39Z/ET+B6IudnkJfkIj+cepHpqPC43EYoIAEYsSGe8AkDM9E3RzOoEMwmNng7AiFDyzbC+3IaUukDL4bDAaSDoKJGEglc8p7mg0lBg6TIaOzNEMxjj4CCDBHJr3aofoFpv8tGQAfH36sxbOVsZxS/0lQGSVBKCe4vvOMUKSmN0nFvZDEtpvP2+lgctmopkdYdOWu0juujUwEGEtBGMxfezizun0bb8lXc1fc1vFyp/9CR4sy0n6oG6InaVO+Lu7LEKvfN9JU0v2HhA/u7gC/ocAkTTzIGDwgXzVfsEVAPnNsWY6P7PMhXh2AASXlWRTJrhqXdZCfK7WjVfvIXW2JW/TL9c1CF6gdgamzT6Hvi4AyfNfttGEDVM11+sthN8JEEFaeboK90TbBdY+nDyhsO9Tx1toYsF8ktoFEENXSO57ODB/CGsh9f51LuNoTPlmUgb+y7UxdumWy6LDsZOqRp82nad9B5w7zVE/ZfE7l/MX229KHkQgUKqm85PpDofee5gwTx5rpt6JBXOMo01pwTVpiy0kd1wXHIggrBvxbxQEO1Mb7idddqdgcSPSg8ZxRaWjTefpNgcaCfwkSKV/6dsojacfHBudu9i+L2kQ4SeSptNHDcMrVZ2W8yzfdwDIE5820/i85Hh0QcrQKDHyeqChXanJP4eqGY25ntT5Lse0y3WBgvfMf1Wjbzoucop7vjy3fs8+sLII/frTJro4W3rtGksWRCBAsI2PNp53FIWxBAje+uHpZce2PK5LV8ZJ6gqmYhcd0+T2XRT3TQtBif82UgbLyND9Ty0HvdFE6njziCumze+/bKPREgOSkgQRFhxVoyP1Q/SLQ86jMI8dbaL+yUVHTlTrCYprU2dP84zdIBLM2BfSvJ3iPoV1WQupvzfQIdwWkCAqd7vDqBycrYjKDTls/2DJQyG8lxyIQGBQlYmCOEuLsNTSfN7NfSvZiboomeXiOLbTF9LcldE3AqvYBYjEqv3pGcLO1IrtpE7VUsowzQun9LO7P3iHEoefesZXgOSmMvv5QQ8caeAHixsyYfee/NqvpEAEDF1Wklze7SRzEQCCFOjnvrjyxHFLWHTlMsm99wbmULUGUnk9S4Y1kIq0GWOEo/kPeJhUdTrZNb6SIg9e5/NwsX6L/eBk7x6fZ3BySz78AoZ8zlMyIAImwhv/95PdtGf/xo1pLGFY/c4ayNuV3FNkbD7uKAqTjVHqXCXJHdcGAiKshfBAqk2etz4EiEhNj5Imp/usuKDFZaNnvv+DnGi6TnXD03SX02hdWYR+9UEdF/8hW7ZYXyUBIhCM+bhC/zzdYzsLFWDCAFJmmjBeOM8QlVHOPRcYgHC1rg/JZayFnN1JyfGTlDLyb4/gx2LUdYPO9E7QnYdNn5kTjeShjxqo/eJc0XaTL3oQAYCgfPvN0z2Oiq8sDQSZqH0Ti54IhC6dI6kjmBaI7FBt8CO5zGy4LHe/ToYHqe1uAQzkBvlDkYHLZi9dm2aN9fB55ONGajw/w1nROHYxvYoaRMAs9DZ9/kTbSkf21eZJrn/DB/LEp01cTAcHnNuCgMFUifH3A2s+xGMxz27yvAkzayF195CeSDevDumCAn+xwQxpHZ2he96vs63FmhpshH5xqJpbS6DAs5heRQsiEAAUR73O3b3NkQ65Akbm7ywN5OnjLTTooJhuI6Ex1HlSBp4KzJSJ+zGQCo2GKq+n5MSZvHurbEQ/r76HHMG0iQxM0j3vmf1InJg2Dxypp/qhadZIXCtR9urmczxuUYIIGD+9rHAq8i0O+kdYAIJMRACIl08Qbamd5K7bSOnwv+COk8tqvA/rQguRu/5CRtJ5Ul6O8u3KzyBPKM5suzBLAAEnIIJ9MdumvG+CHbg4dqG/ig5EwJSLc3Hu92CX2dBEeN+yCD37eetK3wivGI7jJsbRfOjaQMr+uVqXB1Jt9iwqw2ZM1c2kxcfISBWeOg8eYeu4OEdwlDqVLdTrnOoZJ1Uv/CFZRQMiFpMxuvKPX7UTMgftMhr7oRbmd+k8EK/Dc4ahkjzwZHCmDHqGnNlEEsKuHjRhZgCpvJajMaAleFWoL5g27Rfm6NH03CEnMnb3e3U8grXQp+0VFYhgRCKY6waAIAqDPhFeCz3WkxYfJDl6fSAgIrXu9LxzmWnGvEKGGk8DSOGCCAAQMjE8tUyPfdLk7EHFneSr6PPWUVtNvMMCxEUBImDshdkY/YGjMPYyDC0TBoOmYMLgeJZ24yWzkCehjL4ZCIBwWLfe21EQAJBY1R5S582xD17S0q9jW0CC3A83evDefqiau+khpIxjF9qr4EEEREcHMZge0EAyIyv5fIZaijDuU8eb6dzUkivFdLkIg56YIrlzTyAgwgOpvEwuK99MaHeIsQ8pw/8K3Vzob/c3kDs42rsvzXPo365ZYz28bj9Uw71NUFFcaEBS0CCCqXSjMzG678M6BoB8QGP1bwEgvz7aTIuye8V0GwkohEWdORUIgPA8GQ7reuMHgW8Fc2rktucdz43ZiI5BfQ/+YUPk7kEXnK27yyq5NQU0kkJ6FSyIgHnQGH73BRLJnGkgVlNlHM8SDD+YmNJlSoz+NRAQMat1vetcxs7UmttIm+9xZeyDH/ywew74SBC1ccPZetvBGvqsZZR7nEAWC+FVkCAC4vaML7jCNM5ETTdVhnrqJ+N0ZYzk3vtJ8XswFQZSeTwKAmMflKEPPO+XGoZFBpkBkKCHCJpT2X2oofUA9t17oIoOVg2ag8QLAEgKCkTALGwIsTlJ+rHsUPhQfn+ibSUPxE+BhGyg+ZDUcb3vuSFeaiGsgaQrdPUCSypzwv9MIEGjboCBfTCJcN/Wg9WFASQFAyIWk+ARRzGTXQZZAGLmgbSlxzr4q4FAWFOGQcrwy76bMgAQ7hniUecyBpHqfaQtDRd9H43VoGPJ6PnpZR4l4RRI0PPmP2f7aSntp1t9vrD8XTAgAnWx+fzMytAhuyDCjH27kpAHMhOTPc8DWYvRujJBUufuQEAk7uFAqnj5VkoMvU+GGiNDixfRpqzFyqv+DyDBNrkg0bNftDp+2EFbfuNUD5s2V50oRH8UAIiY9mbd0DTd/6HzdGPkgSCj9dKCmfgEhvv9QsVucvITQv8OaAZ+Dur2eiAVayIV2ylesaN4tspreaxnrrKC3+GhB40Ejn+nyY+Y/7s/MrASOfRbXjc6X7hBJF1BWdE3wR2i7GoflgkDJyqa6KKhEJgcxAuYZahLJPc94juAALDijegZ4n3Jvxfp80EcE6AoNT9OujSZl9PdAhIMtXrlu07HOUyYbfO3k92B+O82WiehBREwAdGSqoHLdOuBKwVxq/M7cvnbtE3NjmSWfZnrU2UjAub7Pc6rLbWRHL3ZVw0EAMI9QyJIANvsWZ1MEAvdi3OyRoVs24odpM612w5Tg9+Xl2THPhKW87IIvXm6l2JKuBL3QgsiSLip6Jukez+wX3qdqYFg1OHIjFmCHhSAAHBSKY2S4x/4XrHLWgiSy85sorgHRXZeLOQgjwkQiVXspMTIMcfJcpA3VJa/9E0HR13satTYDxrJmz/1hGqQeChBBI1yv+64SKgpMLUIe8lk2BcmzDOft9D4gtlUOUgAAYgY2jIpg7/135Rp30WxqrQWIkBkw2plpOvLnS9f6X3iwHcGmcM2F1Po9R+7HJs28LFgbCc0nKDlGTIdKhABQdD8BWMN0UrOLmJbGgiI/cI3HTQfTzCxw0BwLdZDctTfqAxrIc3bKSbMmA3BA9oPmzK1t5O2OOjqIoX8zSzL9OoPJpA4le+Xv+ukmWXFvEYHIJevSb7696EBERAYfRU+ax6hOxxMIbMABHkgMGEuzJlO1DAACK4hMfY2ayFY2H5FZRhEar3vXBak+eHWuS0zJjlZwbk8bsoNjoVtNqbQW2d66War+dU7+Q/JMgEowr6W0dnlwAIFodJE4AP5tHGEzQ8nCA0QgQmDatygnairEZujMl23+m7KSG07KHZWmDK5AA2n6w+87WmiHIAEQ9T+dqrbkbZtPTCf/byFppak1eLm29+BayIgaELV6FjLCKFlnBMAwb4AkBe/6aDJRSk0Jgy4ifs009z9zQ1hLaR+m+lQhTkj/CFr0gBaiNTya9Kl9EAtD5chayTLMr1xuoducaCRWEDyhxMdK4EDDy8766EDBREQUlE1erdmkPZZYVwbqp1FSAAIhmujwxnyQHD8sLxSukLK+T+T3LHTNzOGy/3bdlLM4/6pxQBMbMaUbyV1qs6MxngsOJBNbMtyksoiAxx1gRzb2fDwxIaxnUPT/jfBDgxEGECSGn1UP0zoyG6HeNY+FhGf/qyVFuXwOFEz5VCTRkju+ZWvFbuWFsJPWKGFrKuBxDAX+NxBx+HcTJ7n+nlJStAbP/XQ7nfsF+1hLWAdPPN5K3kx3nW9ewkERAAgSJg5XHOObnXJhHn+RDunGVsIv95N+/0dFCJuPhT1d7oddy6LeNczpBg0ENwDh3OjL5ChmQ8g/+UjRQvxBA+aRxsAgIH1gMzn3XqYoooYHdf8ysoOBETiCZXeKu9zVFNgIS9MmCePt3DM3IvJdG4IFIAtMeJ/8yEJyWXClFlTAzEBZDPFa35B6kIfpYxgzF/rwSclNH6wwkeSD3hk/tYCkkc+aaS+iQV449wQ4XWP4SuIgFgAkLLKAUJRUebN5/uZ0boswsV0mHRnMWLduw3gS1yXnpwnqesXvkZl2JSpEVrIetqS6QfZTsmLX6XNmAAEJOOU1vo4UDVIe9KmjROtBJ3WACReN9vyDURAICR9vfZDF/tA7BIHYIN9oYE892Ubd2UPmxM1Qy4Y3JJTX5Hs82Q7PwZSrbdAw/4dAARmjNL7JhlaOmErk3EBfLYehHJSpWPNI46CDVgj2O79oI7qh6c9nd7oC4iAOMjZePX7Ll78+Wodmb83iYPBUm0U87Gpsl2ZMnSFHarQDHxNLqtJD6QSId2s5gwARGp6lPTEXKiieJAzrBckXn7ccN6stXGgtWO9YGwnugF69bD1HEQsDeSfp3schbEyNRCksiOMi2OH+YXr44rdjmt8M2UAVl73Tw27lrHR9bEWgsHiU9W2q3O9ljvIjpzUeIzErS6UgEAjqTk3xWUlbq8bT0EEF4uio1e+i7rmRH3i02azmC4dZ/eamU6OnzI0Slw66BuAQNNhX0id1TNkS9an8EaLrJi/Zz/ImU2kDB4MdRNprB1syOT+qv0CoVUitIpMrTyfz9gXYzsjA5ddN208AxEQYEFKcCMVFMLlc8Orf8vEK4twLQyScywCO1ngfuyrJ2dJHnjKNzOGk8vad1G8ZivFK7eQFFljw3c5bDhG5iad3UK8rbEvn9P6zvptHu/xs1vI2vg86WI4N0GNw7mtv73iBykAbRYZ3R/UDdHeNJDYBRMTSGqpYXjaVY3EExDBIp9YlOnP35sdnezeNMAE+8KJ+sLXHdyToVAABCClLbWT1LXXVxCBJiK3X9mkjM+Z///Z57ZdJPO2k+S2DbZW6/sdJONzesNcX2uz/ie37iC5JYeteQdJGZuMz+jCVoFUfXfS9dmMqbuLtAXMwkn5EPx051GFawWQnGi7QLe7UJx65+Ea+qlnnLUcN67QdRDBDSMK8+I3UQYAgIBdELEA5MljLXxMrxxDbhBy9TGY8ePv8YL2y6HK50EUKCMSJEevcRfEVo6/y8y+XXUunM+Nc7JZ1mCaZa6ByJlN6SZDhTWqkgEvbdp82TbqimmDSnn4SHBspy9XQQQXNL3svPGKpYHADHr52yj3YHDjZp0SK9f9wRdDi5Hce5+v/hBfwcptcMo4HjuHUXns0pxgK5wrd75EhmYWZubKyzD9DmsAPhJoJG60y7jrcC1VDkzyMZ2sL9dABBeBytnnTzjrbm35Q2DC/OGrdppYlDwLTXklIMzs+VqS213WAjIWWrEARrb7YC3ExcpjgIjU9DAZiQVXnrxeyc2Gx007W9H570zvBN15uNa2r9GyEFA5/0PXJfaRbHj+NX7gCojAukSjFWgN1sVZYGDvPcIAEk83pHWCkmvct6f/ThkqKcMvCi3EBuixFtKyw72O9Egqi9xI6lRNYQPIKonVNJ2+7xxbcbbaW2dmej38LNWDl7mHyqrT5PSnYxDBAp+JKWbLNxeqEAFC//tNlNBqH8cuOABBmrs8SnL37e76ImwsyGxP+bD/Dw7fGKJLLlQdm2bMZlL6/48MTc5pQRTKj7AuoJGc7hmne96rs+13BPhgzcG0Ke+bSId/8/OTOAIR3Ah8IL8/0e6KBgIT5qnPWmh62ZxMVygMzbxO0ESd+Z7kqP8zdsMOELlcn4ResC4VDTIQNT5EenKx4B5GmTKV7TPkDBuCDZX9k+wjsauNWNYD+hpXDV7Om1a2QQQ3gCaxaDqLi7B7A9Z+6Df5v99GqVBNGIvRaD6UGHnd91qZXBZo2H8DUyZW7ZYWsoWkmttcb7Zs8Tks71iHum6wRnLXe7WO1iLW8T3v1VLj+Zm8EtJsgQh8IGhX/6evOxxnogJEoIGgpeF4gZowmQKlK5Ok9Nwt/CH5ml+YztcEX4g7vWAxxjMxepwMXc1kT1F+toCkbmiK7vvQ+ZymO9+tYcctqn9zedkCETRQ+eNXHY5QD+AB5AOAYLg2WgSAGIX+UmdPCS0kXwCJXsNzid1qJs1mTMsT7AcpBpnKZU3gPmHa1J6bolsPOk+Rh7O1eWSGcknJywtEcKEI41q1MJYpYvcd07xe+7FrZb5ooTPc0BMkDzwptJA8QeRKSNf5eE8GkPp7SItfKoqHUi4AYv0G6wfaA0r/H/640fGQLJhHmIOt6utrJLmDCFLZFyR6+ngLaxBO/SA3lkXYhIFfpZAyUS2GZXvXY90kdVwnQCRPEOE2ji6NtIhXXkfJyXKWKSoCzTabnK31P4AIA4luUHRsjh4CkDjskgZn68nucdLX6fqWM4gkNJ3eqRxwhG7WDQGAHj/aRIvpYrq1iFJI/0+ldEpe2i8AJE8AYWdq/TaKl29yXCMDLUTpfp2zUgtJdry4VmgkSEiDtu/kgY990SFtvdYbOYPI+Zllx04bC0T2Haims/2TjJqFbsJYAmAkZ0jpf1yASJ4gIrXsoPhKSNd+oZ1pxjF2h6AAACAASURBVNxLulR6Zowlg5nvWFcYx+KG7xJd6D9qGF7TPMwNRFIpno8LVHKCahaIPJqeDVMsAALmaYtNJHf6W7Eb9pDtRteXGdKNO+jABgCJR24gfcmcnVtMcpUJDPl8Bg3QeLpxeNrxmsWaR1MjNJLO9soJRNBFHXMx3AAQAAnQcVFKZruegvwfGJZExW6eT+GNFlkxf8/OVHSjd8OMObuDEuePkGFo6C1YkDLkxUVDLpG4ibEs1gPc9ntZhEZnY1kvM2cQefk7sy7G9kVkOHjQJmBZKZ74PYRX6X9MmDJ5gCjS2+PVWzkvxEnTodiZTSS1/IZ0ZWZNdTur5JfAPwGneFjf8a79Qj1rvUOB6J9czEq13EDEMFzVRNClHT1HiuGFB58W6yO541pRK5MjiLAW0ryD4mc2OaqRgRkTq7yetOW0vS60kJ8tqfH5OO094J4mks1UzAlEsOP3nZd4zJ+FTE7e7/2wns5NLf3shgvxHylDp8Twy0ILyRFAYKJxSNdhrxDTD3I9JSdOUSrHzMpClC8n14x1+0XbqGM3BLSQhz9qIAkJoVkuKGcQGZ2J0f1HGhxfEINPWYSON4/4Mp0ryz27+i8jOUvK4LMk9z9OSv+jpPQ/TEr/g6T0YbuflL77SOm9l5TeX5HS+0tOiVd67iKlG9sdpKDat+u29HYrKV37SOncQ0rnLaREbyYlupuU6E2kRG8ghYv6riM5em3a/4IxFLmPosjFZwMtAZtX/hjWQurMcRYcUbHpUMW+cs9fSVcLt8mQq4KY5WCLUoLu/cBZGjzWK0DkaOP5NXNvcgaRpKrRsaYRx63ZrItCZ6bOMczCyIZtWSgSwn8B6c1EOYNHD6RSBj8V8W4Yep6bxo5B+FdWNl3l2g/Uf/x8SxIyZHnTFE7xRrm7ocVJ12Kkq8ukq0ukq4ukJxd4Cp+enCM0j9YTM6QnpklPTJGeuEy6MkG6Mk6adIHkvoe9BZHWnRRDA2gHpf6shdTcTtryiPCDrLEuMG4Cs66dBENugh+zLEK/P9FG00trD/jKGUSwYJbkBB2MDDouusONYXvwowZqGZ2x3QxlDfr59m/QxNrMk6Y4OnD1/7y8HFQ2XLkG87xmgALugXw3PdZPUvQGz0DE1EKQWLaZ7IZ0sS/8IMmZhqLJdHZbQjTdoE+bztPtLsyrefp4Mw1eXly3qjcnEMFNWgtD13V664w5jNuJX8TSSBB/Hp1ddpuO4nh5UgD8TVx8m+SOnd6ZMm070x3LkJ1qbyZOvGIrKcMfpjW+wtVi82RPzj9Hpur7dUP8kHakhZRFuMQFI1o2KkvJGURwFxaQXF6U6KV0K0QnQLKikRypp86x+YI2bXLmcgh/iKVoqIsk93jXWNrqWIa8ELumDO/X8jRpUv6Nc0JIdtcvCRmq8F3sPWC/itdak3/8qj0959rUdNe72LxAxDoQkGlsLsb1L07QztJG0A4A+fldl+aFjWsR2cd3PBwwI0fuhCPX/ebSMGMwU8YpgMTO7iJ1Pmo6+HykTyGcCibMR/VDhMbLN71dacsXYgEIfCDo7bORBmLRxRaIWBrJ+EKcHnVYcmxpMgASlC+PzccEkFjc8ekdjuDkxMee9UFhLYQTy+yZMaYPZTslx77JWbB9Il0oTgMnKibkWSBgrSk77+hvnIsJk3njtkAEBwCQwP6CYxR5H25pJHC2RmHaiMShTD55+tnQFVLOPeeZQ1VCevtKkV3+vhD4QeTu10hX5RWT2lOCFNDBWQNpGObUdidrEPuiuyCqdXPVQCwy2QYRHICBRDeo9cIs3eKw5DjTtHnoowb2COfSVcm6EfFunwK6PEJy9CZPQIS1kMotjtoextPhXAg3ZU13sn/vhbwnAOQ/Ff10M6Kdb9vvcwwAee3HbpKSat4AAvo5AhEcAEAC5qJ1PXozOkHDTCB59Ggj5+oXch5JIQgo+Je49K43AIK+qekhVJKNvBA2Y85eQ8mJM7aEuxDob/caUXv2bvW5Ff+HnXWHfbD9/VQ3zS6beSCQh3xfroAITgzP8GfNI6yR2LHFMvfBjVk+EnRosnNj+RKiVH9vqEskdXvTWBrDveO2O5Yhl2QrKefeJV0vjv67bslYUtNof9UA7XMQheH1Vhahf53p4zG1+ZowmffiGESsg2Ghq5pG/1fRxzU2dpAxE0jwGV5mOG4RCRJAYlHavXfm2UI9SR07XddErMQys9Tfhh+kfAtJLU+RroiHiMVx8EtJmmvMbgSG11VZhDCi5f/K+3gAltO15SqImDep0r/Ke+mWjNL/1eCQ69+sbr1dyaHknokF4Wy1pMmld4z7TF74NyeYYdG7Gd510jeVzZjIDaTONAozJoPXmIhwsHpwxf9o50HN+5RF6D9n+2kunnDl4ewaiOBeASJQi9AIBaEiOzeZCTAMImy3VdKvjzat2c8gg87iYx4UQN2MF31Q5PadFK+270yNlW+hZHpmjNOnZB7kCPVPEyo0kP6V2jU7awv7oOfqezVDK2FcN27aVRCxLghAgs7waMZsAUEmONj5fFNZJT15rHllwJV1LvFunwLaYjPJqBh2McGMzRhOLLM3hCoOMyb6v8IPksFWaCD/PdvPfkI74GGttz37q+hg1SDJ6RlPbgG0JyBiaSRDU0v05PEW1zrEA0ie+LSJ+iaLb7Zqhsz48hE8SowfJqnD3QxVaCGx6nSVro2IjFR3D2mL/a6o2b4Q0uOTqJpO79Wec5zKfsv+Kq7qxeA5t8DDunVPQMQ6ODSSgcuLrnWJt7QaaDgX57L3e7TOLd7XpwD8IXLvA647VCUehWkvMxWtDpOXTppNhmyEGte/48L7Nqnp9M/TvY41EJgwaOOB9hQmgOQfxl2Pep6CiKWR9E8u0DOfuaORQDUDmPz281aCpuM2qq5HrGL5DjTTFltI6rjWVRCRoIVE8u8VYqa1byOl7y3S9aTgKREtyUnaHxkwE8lsBimwThDg+LBuiGKKFSZ3F0CwJjwHEQtIzk8v0zOftTp2tlogAgI98WkzDQjTJm9sS6U0UoZfcRVA2BfSsI2gTQAU8in159+3PLkSznVfzPMmUaA7wImKTFQn1bhYJ/CBHG8eXQEQr+jqKYhc4YQZtRmdWaYHPzJnhAIELIePnXfsj+2Zz1sJzWiFRnKF2ht9MpQJkjr3ugYiABCpdYet+hjWQqp2kzrdUPI9QiDD0Bj+dabXUUAC6wID4j5lEwZd9zYu599IZtb73icQuRL+RYkxCn1gp9kBj8x9LCB59vNWbvwsgGQ9VpvfgUbqzEmeGexWVIa1EPRNtdErBOHcxNBhMjT3HX4bUyNcv8BwqLLKAdq731k/EGggnzSep5himoZerwvfQATsws2gFgaaw/Nftjk2bSwQwftTx1toZEY4WzdaFildocToG65pIQAipLfHOL09P4cqtBC5/fcrzZa9FvaNaBPk98hERQ2Lk0JWrANEYU60X+AyFNDTD5r6CiJXgMSgqSWZ/vR1O980bj5Tw8j3swUmf/iqnSYXRffv9RaDrlwmue8h10CEtZCa/Lu3sxlTdzdpS+bMGD+EfT26BPndgpTgchFLjvOVf/we++47WM2dzeBT8ZOevoNIJpAgs/Ufp3ocAYhFcIsBT3/WQhhv4ScRgxTAfM+tzteRHL3RFRBhX0izOQqTnaN59E2NV2ynxMWvuYt9KfMKhav/Lu9zxYT5vHWUkJjmpJguX3nC7wMBEetC0VELdturP3Q67iBvoTHA5PkTbXR50WxgY51LvMOcNEgZed21WhnuFRLJLzOVNRCYMdGXSS9hPwiAc1lJ0svfRh3lgbAGcqCKfugcM8EjgH4rAYOIGbUBkLxTOcDqmKVZOHkHYV/4uoMuzomojQWeEFojMUVS1z5XtBD4QuKN29IDuXOv0mUQaXqMNGW2pLVFFL/983SPo4cn5HzP/gidaLtAStLKA7E47t97oCCC22ThNgxOrjlY5WzYjgU8IC42RG0uivAvSxPonJz+1kUtJJ1YhoHa+Zgx1beUfHUuxlH+5YcuR/5AyDf6iZzunSD4QGDCBPUKHESsGwcRQIwDVYOO+0VmggmqiWdia0/vss5f7O9mH9XfuaKFwBcSQ2IZhlDlmFiG3yGcqwweIENPFju5s94fgHw2lqA/f9/p2IS5/d0a+t4yYXyKwmS9qaB9IpkXBQLz01LVeXrXbQ6ndwFIgNYYA2iaNqXrbAVd9fggyd13OAcRTizbSbEKMzM1HxCRWn6zkpWayftS+bwoJ+nvp3q4IRDLpo10dksD+TY6RujyHoZXaDQREMMCEmgkx5pHVvpHWpqFnXcQHRvCv4gGleILdFWnvyG543rHZf8riWVIb8/RjGE/SPVeUpeGfI8chIXfcUUlDITCQ80pgJztn3SlI5lbtAkViFg3xUKv6fRF6wW663AtE94OgFj7MNPKIvT6D10ladqgYlcZedW5FoLEspYd6cSy3Otj4hU7KDFytGTDuXh4/fVkN4OHEwCBCfNNx0VCj1XrgWutmSDfQwsiIBI0ku+iY+ZULxcS0ti0+SZKkyUW/tWTMyR33+kYRNgXUruV4nkU2UELkdufJz2BManBOf+CWmTQQAAgTjNRbz1YRT92XeIeq2ECENA1lCBiMRzEwmyN8r4JuuOQ83EU0EzwJHj5uyibNjh+sb9wj+rM9yR17HIEIgCQfEdhshlTcwfpynSonpx+8Bx0n40phJGUaKblRAP5xaFqquibDK0pGGoQAbPBDF03qGrgMj1wpME2MzJNGxT//eX7rpJIkUdURu5/0lFolwGkzQzpIiKT6wyZeGQ3JScryUiVlgYCmb28JDtOogTwYLbut9GLrJXjuGF8FQSIgHiqrlPT+Rnae8C+Y8rSRPipAGfriXau4Qkrc5wKDGROj/U5bj4EEDETy/II6Z7ZRErfv8jQSixzOJWiRSnJsuXUiXrboRqqOTdFaJHodyp7PrIXehCxbgYLHYTsHJsnjNkEgyztws67qV5G6G8nu11rnW9da1jezUHdRwh9T52U/Uttu/LqWMZmDHqlSpOsSYaFHl5fB2R0YlGiP33d4diEuePdGvqh6xJHYby+bqfHLxgQwY1aQILZv4980uiaaYPkH1QVF5tGYqiLJA86SzBjUyaPxDIznLuHtIXuUD89nS6cbPvDB/LK952OeuWwCXOomk52X3GiZjtXmP5XUCACwllAMjy9RHcfrnUMJJaJ89K3UUJJdjG99FgvJ5g500KQWGaZMRuHdbk6d/R40QHyenIBmYTs/OZYs2MNxDJhLPOlEB5sBQcimUBybmqJGzY7NW3YHCqL0Bs/9dC8By311xNAL79LTn3J/hC7IMK+kNrce4Ug9MtNhlBc5+WNhezYl+bj3K0P86NNM7kqb1Mb+8GEOdk9TujyDvAoBAABKwoSRHDhILBuGNwW8YljTVyLYMc3Yu0DJiJq88p3nRyaKxQGrrWeUimdlHPPOQrrcmLZihayfqUuzJhY1c2kLQ0WjPCvRbt8/r8gJemFr8x2n04ABGHcyMBkupiusCC4YEHEAhKofdNLMj33ZRvXJFigYPcdg5KRHAT7tpCBRJdGuPmQfS1kJ8XRsSyHAjv2g1ReR8nLkZJptgzZGJ+XeCojwMMJgPzy/TqKDFwuWB9SQYNIJpBApUR5tV1mWqCD/dGnspCBBFGZxNh++1pIxzUkoWNZushuo1L/eMU2Uvr/TbpafM7pbFpJilI0sWCaME4BBGUd0ECS6ZaGhfjgKngQyQQS+DNQaGcyNn+7NBNIoJG8+A2crYVXto6ojNR9t20Q4Y5llbk5U1kLqb2LdNnMqMy26Irtf3MxhX7zqXMn6p2Ha6lzbI50vbB8IKv5WRQgYt0UUBxd0l5DwxcbZdYWiOAdQAQfyVune2lRKpxxBqCBtlBPUscNtnJDOKSLjmU51McwgERuJHWmmQw4Ai1GFOk7aIvxrUhSxEMGMpIpM7l+xn4wYSoHJtMAUtgEKzoQAaPRXxXt9+0y2RIG7A/T5vUfu8yoTQEsE1TsJscOkGxzULeUTm8HQGxsxqSrcw1/u4sHseQgV6jGRTk/Hi52ZQv73f1eLdUNTbEJA59eob+KCkQsZoDhclKlf5zqdtQAJhNM/n6ymzUS6xxhfTeS8yQPPm3LlOGQLieWbdzyMH5mM0ltvyNdmS9oB3QufIQ8YRTJox+bUUAnAHLP+7XUOjq74kTFsQv9VbQgAubAR4KZpnhyWIBg5x1Cg6li/z3bT7FEcA1xcxE2LdZNss0RmVeGUK2vhUBLiVXeSOpcBy+GXK6rUH8DOULDb3THc5oHcs97tWzCoA6sGMDD4mlRgoh1c1AVkUn4dmW/o0xCAA+ABD0h0N4Orf7DKAR4qCXGPySpPf+yf2ghMSSWbdQ3Fd9XbKfk+ElKFbkZAx7DhPndF22OO5LBhGkZmeVC0jDKjrVm7LwXNYiAIGAYqiA/rB92pbnR7nci9K/yPo7ahE0YDC1Gcs+9eZsy7ExFx7IcQroczu17kwyjuJ6mqxcPHMUorXjyOKIwznwgKBhtHplhWQybzKy+bzt/Fz2IgCjQSBC1Qd9WJ04xSyPZc6CK3jrTyxPc7RDdi30YLDkqc40tEImzFrJp/V4hcLY2PEBabNTUxIrAnl+LF6OzMU5gdFJSAfD51Qd11DQyww+yYgQQ0K8kQAQ3iieLpuvco9INIIF9DCDBGMQwvFIpjZTzr+UNIMholdqghVh5IWult2Pkw2ZSp2uK2g+ChX55SaIHjtS74gMZmlripkzFCiAlBSJgIjZkBmJi2B2HnbVbxFNm74FqerfmXLp1f4BedvRaUcbZlMk3zR29RmJVWyhevrYWwvkgaLZ87hAZevGGcyEfg5fNok6nTlSYMI3np7m+q5gBpKRAxNIWwFDM68DksFsPVtuO91umzd79VTyQGVPNKCD1Hvekzp0lKbo7rwQzDuk2bjyQGyBiVucWbzgXNETpxDOftTiqwcLD5f4P6yl6ca4onajWOsp8LxlzJvOmITDwk1QPXubEHzDeTujXAhI8tQ5UDZCUCMa0QZQkcfG/3Iw5H02EtZAItJC1Q7qshVTdTOpcOxfXZdKxWD7D1D0/s0z3fVjvihO1d2KB5QtyVgqvkgQRMBYMRt8GdJK/ywXTBlrN+3VD7CPxOwHcUJdJ7ns4L3/IlcSytX0hphmzjRKjx8kwwp0fY3exQg6svjROHybwoyAKgwkFpQIgoHvJgogFJAj/tl2YdUUjuWV/hHNSYC75KUTqYgvJHdflByLtuyjGRXZrZ6cCRJTu10nXrNqh4nqygkdIJHvsaBMhdO9EG33wSD2du7xUEj6Q1YBd8iACQYJp035hlh4/auYEOBEmJKQdqhn0LfwLU0YZ/nN+AILu7Rt0LGMTp/Eh0mIXfAXE1QLq1d+GkaLOS/P08MfOxpBAe0FbxO7x0jJhMvlS0iBiEQJAgvAvhOpBh7NtIFT7DlTRgapBSqi6dQpP3qEX6Mo4O1RhnuTqD+GOZeXmQO7sRXYI524ldbKcjCLNSh24vERPHGtmDcSuGYP9EIXpGV8oORMmU6AFiGRQA818Ls1L9NgnjY5GUkC4sAFIOI/EIwcbwC85/R0PplJyBBGATaxmC8UQ0s0ykJv9IOVbSOn7d1GGc+FERe4G6ljsggdrqgCQIw0sLzgmeFGqLwEiGZy3TJu+iQV69otWR0IGAYWz9YO6Ic5NyTiNax8NTSJl+OU8TBmMwty+7kDuePkWszpXjfPCKKbFgXvpuDhHjx9tcsxb+FHaL8yVVBRmLcEVILKKMhA0NIBG85lnP3cOJMgjOVQ9yJGgVady/Kcuj5Dce2/OZgxrIdVb1m04FK/eS+psmxnOLbKn68jMMj3qcF4RHg4Pf9xIA5cX2QQuJpC1K5ACRLJQDoIBZ+uluTg9/yUGMjsrwMJA5++iYwxOWU5n+1/qXDnJ0dw6mHFId53EMpgxMZgxQ++Roau2rymMO4Kfk4sy3X/EzANx4jgHCPWOm0l3AkBMbgsQWVPqASSo5FymP31t9W21FwYECKEaFILs1oubMY/8NSdTBgDCHcvSfVM58rLKHwIzRu54gYzEUtHZ96pucA4P+GAHQKyHyIMfNbAJU2p5IBvJrACRdSiEJw22JTlBGLVpVwghuPsOVFPD+el1zpbfV4a6QHLXbTmDSLx+m+lMzZKdyqBSeydp8fGiHPkwG0vQs1+YGqVdEMHY1rG5OOkllkiWi1QKENmAShaQYFYvJuTZnfQOAPq89cIGZ8vta1xTcurrnJsPyeibutK9fXWV7maKVeyg5Ni3RdsjBGX9DxxpsK2FPH28heBsh4kL2ovX1RQQIHI1PbL+BcGBAM0uy1xsZwdIACIfNQxnPX6+/0zpMsn9v2EtBKbKevkh7AupQ8ey7Hkh6Ooud71GRjoak++1FMLvh6aW6d4P6vMGEfDssaONJZuJmitvBYjkSinU2xhmA2j0WkXP1fzMmwh9Gx1z/CQDoGkY1B29cUNThn0hLajSzV4fwzkhDQ+SnkDPi+J9wo7Nxzmiko8pA97Cj3VhNsY8ExrI2gtFgMjatMnyjekjmY8rdKj6HI+TyBVIMKgoOjbnAojolJw8Zo6E2EgLad9J8WqrSndVpS6ApXoPJafritIPksm8RTlJL30bzRn0wdOnP2shVOMKH0gmJbN/FiCSnS5r/tcybeSExolkmEuz0RMOQvmnrzsI4OP0iYY+qsrwi+wPWc+MwXdS89ody9CESBl4h4yV4ro1b7ngv0Dez9cdF3MCEfAKtTDj8/GSLKazw2wBInaolm4lgL6tSCRD9W42jQT/w4Z5q+hy5dRkAADp0nmSu+/a0JSR0LEMWsiZn6e3c1Zq82OkJxYcg5pN8vm6G+iGDv2vfBddU3tk/pVF6JnPWml4ygxzOwV8X28ywJMJELFJfAgYnK3LcpJ9HSjmglZigQne0T7xhW86qGUUPSacd0fHOZPT35LUsX4zZnamNmX3hXA4t+4u0paGit6MsVgLumGDJni45hyPsAR/MnkFcxM9c7mcX4RxLdLl9C5AJCcyrf0jC0yglaAhzccN52l/1SB92jTC1Z0owMNv3HilUjrJAxtPt+PEsrPZozFx9Eq9+DWHc924pkI6BvgAMMeY1Z96x7k/LjTJk93jbL5YIVy3+FVItHFyrQJEnFAvY18I3npbxk9tf9TiAyRHr984pIvEMpgxmYllSGs/s5nkrj+Tnlw0a2NsX0nh7rgejwR42OOrABF7dPN9L05zH9u/sS8kM7EsA0Q4nFv3S9KkSZE05Tv3ivuEAkQKhL+GOkdy3yPrgoiVWLZ6/AMDSGQ3qTNNrplWBUI2cZk+UECAiA9EdnoKqNnaUgtJnXtpzeZDKLK7ahTmlbwQdClTBveToTkPMTu9F7F/8VFAgEgB8BSmTHLiI5I7rl0TRKCFxKq38vgHjsCkq3TjZzZTvP4e0pVZoYUUAK8L8RIFiBQA1wxdJuXc79Y0Za6EdK/OCWEzpnofaQs9JRPOLQB2Ft0lChApAJbq0hDJnbesDSIY/8Dp7atA5Ow1lLjwxZXqXJdCzQVAMnGJPlJAgIiPxLZzKvhDEuPvETJQoXGsTnXP1EKuMmMw+rLjj6QnFoUZY4fwYp+cKSBAJGdS+f9DAIihLpHcffeaALLSsSwjL4TNmNrbSVseIvhTxEtQwEsKCBDxkroOj81RmcVmkjrW1kJi3CvkSqk/A0jldZScaaaU4TzV3uEtiN1LgAICRELMZB7UPfZOVi2Eq3Rbd/xs/EO8Yhspg+9ws2WAkHgJCnhNAQEiXlPYwfGN5CwpA0//zA/CfhGMwqwzQ7rWECpOdW96hLT4JdMPIkDEAfXFrrlSQIBIrpQK4HfacifJnXuyggj7QiquNmNiFTtJne8UjtQAeFXKpxQgElLuQ4lIjL+ftfmQ3L6LO5ax5pEGkjjCuaPHzbqYkN6TuKzipIAAkZDy1dAVknsf/pk/JFtIF85UOfqSWZ0rTJiQcrR4L0uASAh5y1GZpTaS2n/efAhaCBLL0HwZvhAASKxqN2mLfayFhPB2xCUVOQUEiISQwYjKKKNvkNy+8yp/CGshPArT9IVwOPfsNZQc//FKVmoI70dcUnFTQIBIyPgLa0RXJkjqvvPnpgy0kLNXAMSszkU4173uaSEjh7icAqCAAJGQMQmmjDp3lufKZKa4sxZSv424V0jajJGaH78Szg3ZfYjLKR0KCBAJGa8NQ6XExf+ac2Wi17A5AwDhXiEZWki8Yiclp+s5K5WEMzVkXCytyxEgEjJ+G8l5kvsfu8qUYS0kYxQmmzHnjwg/SMh4V6qXI0AkZJzXFltNU8aq2IUWkpHejpkxcsefyEiK8Y4hY13JXo4AkRCxHv4QZfQfV2kh1hAqayB3vHofqfNdotlyiPhW6pciQCREEmAkZ0jq3LcCImzGNG/n8Q+cD1KxPZ2VKqpzQ8S2kr8UASIhEQGOysz8SFLHrisgstKxDGHdraT0/oMMTRbFdSHhmbgMkwICREIiCUhzV4ZfWAEQLvXPHIXZ9Ajp8pQorgsJv8RlXKGAAJErtAj0ky4Nk9zzyxUQYV9IZAubMrGz11JyspIMXQ/0GsXJBQWyUUCASDaqBPC/5MwpkqI3MoiwL6TBTCxDjYxy7iAZWkJoIQHwRZxyYwoIENmYRp7/ImUgKvP3lWbMHNKtSA/kbnmKDFUAiOdMECewTQEBIrZJ596OZjPmu65oIXXbuEo3Xn0rqbMtwpHqHqnFkTyggAARD4iazyHNWpkKbj7EZkw6sQwNhxLDH3GvVJHWng9FxW/9poAAEb8pvup8hp4keeApUwtBSLdmK8XObCap/Q+kq5Lwg6yil/gzfBQQIBIwT7T4OZI7rmMQkTiku4niDfeRtjzCAAJNRbwEBcJMAQEiAXLHHNT9SVoL2Ukx8eH3bQAAAP5JREFUhHQrdlFy/BQX1wkzJkDmiFPnTAEBIjmTyv0fprTllQSzODqWVWwhuecfwoxxn9TiiB5SQICIh8Td6NA8qLvHjMpAC4k3P056Yt40YzbaWXwvKBASCggQCYgRcHWo09+S1HEtxRu3Ubx6D6lzbcIPEhA/xGntU0CAiH3aOdqTmzEP/Z7iCOlWbKbE8PtkaIqIxjiiqtg5CAoIEAmC6kSkyxdI6rjRHIWJ4rrkMhkciRHRmIBYIk5rkwICRGwSzsluHJUZP0Lx5h0Ub7ibtPhFYcY4IajYN1AKCBDxmfzQMzjNve8RijfcSMlLP5hDp0Q+iM+cEKdziwL/H+zh3PCP5KDEAAAAAElFTkSuQmCC;" vertex="1" parent="un9lTaKR_ojWKBwgLZ8Q-1">
          <mxGeometry x="396" y="1585" width="92.54" height="80" as="geometry" />
        </mxCell>
        <mxCell id="hI8kfkjxQy-ftBVGHC26-71" value="&lt;span style=&quot;color: rgba(0 , 0 , 0 , 0) ; font-family: monospace ; font-size: 0px&quot;&gt;%3CmxGraphModel%3E%3Croot%3E%3CmxCell%20id%3D%220%22%2F%3E%3CmxCell%20id%3D%221%22%20parent%3D%220%22%2F%3E%3CmxCell%20id%3D%222%22%20value%3D%22%22%20style%3D%22rounded%3D0%3BwhiteSpace%3Dwrap%3Bhtml%3D1%3BstrokeColor%3D%231A1A1A%3BfontFamily%3DGaramond%3BfontSize%3D20%3Bdashed%3D1%3B%22%20vertex%3D%221%22%20parent%3D%221%22%3E%3CmxGeometry%20x%3D%22-250%22%20y%3D%221070%22%20width%3D%22350%22%20height%3D%22490%22%20as%3D%22geometry%22%2F%3E%3C%2FmxCell%3E%3CmxCell%20id%3D%223%22%20value%3D%22%22%20style%3D%22endArrow%3Dnone%3Bhtml%3D1%3BfontFamily%3DGaramond%3BfontSize%3D20%3B%22%20edge%3D%221%22%20parent%3D%221%22%3E%3CmxGeometry%20width%3D%2250%22%20height%3D%2250%22%20relative%3D%221%22%20as%3D%22geometry%22%3E%3CmxPoint%20x%3D%22-266%22%20y%3D%221520%22%20as%3D%22sourcePoint%22%2F%3E%3CmxPoint%20x%3D%22-266%22%20y%3D%221070%22%20as%3D%22targetPoint%22%2F%3E%3C%2FmxGeometry%3E%3C%2FmxCell%3E%3CmxCell%20id%3D%224%22%20value%3D%22Service-1%22%20style%3D%22rounded%3D1%3BwhiteSpace%3Dwrap%3Bhtml%3D1%3BstrokeColor%3D%236c8ebf%3BfontFamily%3DGaramond%3BfontSize%3D20%3BfillColor%3D%23dae8fc%3B%22%20vertex%3D%221%22%20parent%3D%221%22%3E%3CmxGeometry%20x%3D%22-240%22%20y%3D%221090%22%20width%3D%22120%22%20height%3D%2260%22%20as%3D%22geometry%22%2F%3E%3C%2FmxCell%3E%3CmxCell%20id%3D%225%22%20value%3D%22Service-1%22%20style%3D%22rounded%3D1%3BwhiteSpace%3Dwrap%3Bhtml%3D1%3BstrokeColor%3D%236c8ebf%3BfontFamily%3DGaramond%3BfontSize%3D20%3BfillColor%3D%23dae8fc%3B%22%20vertex%3D%221%22%20parent%3D%221%22%3E%3CmxGeometry%20x%3D%22-230%22%20y%3D%221100%22%20width%3D%22120%22%20height%3D%2260%22%20as%3D%22geometry%22%2F%3E%3C%2FmxCell%3E%3CmxCell%20id%3D%226%22%20value%3D%22Service-1%22%20style%3D%22rounded%3D1%3BwhiteSpace%3Dwrap%3Bhtml%3D1%3BstrokeColor%3D%236c8ebf%3BfontFamily%3DGaramond%3BfontSize%3D20%3BfillColor%3D%23dae8fc%3B%22%20vertex%3D%221%22%20parent%3D%221%22%3E%3CmxGeometry%20x%3D%22-220%22%20y%3D%221110%22%20width%3D%22120%22%20height%3D%2260%22%20as%3D%22geometry%22%2F%3E%3C%2FmxCell%3E%3CmxCell%20id%3D%227%22%20value%3D%22Service-2%22%20style%3D%22rounded%3D1%3BwhiteSpace%3Dwrap%3Bhtml%3D1%3BstrokeColor%3D%23d79b00%3BfontFamily%3DGaramond%3BfontSize%3D20%3BfillColor%3D%23ffe6cc%3B%22%20vertex%3D%221%22%20parent%3D%221%22%3E%3CmxGeometry%20x%3D%22-230%22%20y%3D%221210%22%20width%3D%22120%22%20height%3D%2260%22%20as%3D%22geometry%22%2F%3E%3C%2FmxCell%3E%3CmxCell%20id%3D%228%22%20value%3D%22Service-2%22%20style%3D%22rounded%3D1%3BwhiteSpace%3Dwrap%3Bhtml%3D1%3BstrokeColor%3D%23d79b00%3BfontFamily%3DGaramond%3BfontSize%3D20%3BfillColor%3D%23ffe6cc%3B%22%20vertex%3D%221%22%20parent%3D%221%22%3E%3CmxGeometry%20x%3D%22-220%22%20y%3D%221220%22%20width%3D%22120%22%20height%3D%2260%22%20as%3D%22geometry%22%2F%3E%3C%2FmxCell%3E%3CmxCell%20id%3D%229%22%20value%3D%22Service-2%22%20style%3D%22rounded%3D1%3BwhiteSpace%3Dwrap%3Bhtml%3D1%3BstrokeColor%3D%23d79b00%3BfontFamily%3DGaramond%3BfontSize%3D20%3BfillColor%3D%23ffe6cc%3B%22%20vertex%3D%221%22%20parent%3D%221%22%3E%3CmxGeometry%20x%3D%22-210%22%20y%3D%221230%22%20width%3D%22120%22%20height%3D%2260%22%20as%3D%22geometry%22%2F%3E%3C%2FmxCell%3E%3CmxCell%20id%3D%2210%22%20value%3D%22Service%20-3%22%20style%3D%22rounded%3D1%3BwhiteSpace%3Dwrap%3Bhtml%3D1%3BstrokeColor%3D%23d6b656%3BfontFamily%3DGaramond%3BfontSize%3D20%3BfillColor%3D%23fff2cc%3B%22%20vertex%3D%221%22%20parent%3D%221%22%3E%3CmxGeometry%20x%3D%22-220%22%20y%3D%221330%22%20width%3D%22120%22%20height%3D%2260%22%20as%3D%22geometry%22%2F%3E%3C%2FmxCell%3E%3CmxCell%20id%3D%2211%22%20value%3D%22Service%20-3%22%20style%3D%22rounded%3D1%3BwhiteSpace%3Dwrap%3Bhtml%3D1%3BstrokeColor%3D%23d6b656%3BfontFamily%3DGaramond%3BfontSize%3D20%3BfillColor%3D%23fff2cc%3B%22%20vertex%3D%221%22%20parent%3D%221%22%3E%3CmxGeometry%20x%3D%22-210%22%20y%3D%221340%22%20width%3D%22120%22%20height%3D%2260%22%20as%3D%22geometry%22%2F%3E%3C%2FmxCell%3E%3CmxCell%20id%3D%2212%22%20value%3D%22Service%20-3%22%20style%3D%22rounded%3D1%3BwhiteSpace%3Dwrap%3Bhtml%3D1%3BstrokeColor%3D%23d6b656%3BfontFamily%3DGaramond%3BfontSize%3D20%3BfillColor%3D%23fff2cc%3B%22%20vertex%3D%221%22%20parent%3D%221%22%3E%3CmxGeometry%20x%3D%22-200%22%20y%3D%221350%22%20width%3D%22120%22%20height%3D%2260%22%20as%3D%22geometry%22%2F%3E%3C%2FmxCell%3E%3CmxCell%20id%3D%2213%22%20value%3D%22Service-4%22%20style%3D%22rounded%3D1%3BwhiteSpace%3Dwrap%3Bhtml%3D1%3BstrokeColor%3D%2382b366%3BfontFamily%3DGaramond%3BfontSize%3D20%3BfillColor%3D%23d5e8d4%3B%22%20vertex%3D%221%22%20parent%3D%221%22%3E%3CmxGeometry%20x%3D%22-220%22%20y%3D%221470%22%20width%3D%22120%22%20height%3D%2260%22%20as%3D%22geometry%22%2F%3E%3C%2FmxCell%3E%3CmxCell%20id%3D%2214%22%20value%3D%22Service-4%22%20style%3D%22rounded%3D1%3BwhiteSpace%3Dwrap%3Bhtml%3D1%3BstrokeColor%3D%2382b366%3BfontFamily%3DGaramond%3BfontSize%3D20%3BfillColor%3D%23d5e8d4%3B%22%20vertex%3D%221%22%20parent%3D%221%22%3E%3CmxGeometry%20x%3D%22-210%22%20y%3D%221480%22%20width%3D%22120%22%20height%3D%2260%22%20as%3D%22geometry%22%2F%3E%3C%2FmxCell%3E%3CmxCell%20id%3D%2215%22%20value%3D%22Service-4%22%20style%3D%22rounded%3D1%3BwhiteSpace%3Dwrap%3Bhtml%3D1%3BstrokeColor%3D%2382b366%3BfontFamily%3DGaramond%3BfontSize%3D20%3BfillColor%3D%23d5e8d4%3B%22%20vertex%3D%221%22%20parent%3D%221%22%3E%3CmxGeometry%20x%3D%22-200%22%20y%3D%221490%22%20width%3D%22120%22%20height%3D%2260%22%20as%3D%22geometry%22%2F%3E%3C%2FmxCell%3E%3CmxCell%20id%3D%2216%22%20value%3D%22%22%20style%3D%22aspect%3Dfixed%3Bhtml%3D1%3Bpoints%3D%5B%5D%3Balign%3Dcenter%3Bimage%3BfontSize%3D12%3Bimage%3Dimg%2Flib%2Fmscae%2FDocker.svg%3BstrokeColor%3D%231A1A1A%3B%22%20vertex%3D%221%22%20parent%3D%221%22%3E%3CmxGeometry%20x%3D%22-20%22%20y%3D%221209%22%20width%3D%2250%22%20height%3D%2241%22%20as%3D%22geometry%22%2F%3E%3C%2FmxCell%3E%3CmxCell%20id%3D%2217%22%20value%3D%22%22%20style%3D%22aspect%3Dfixed%3Bhtml%3D1%3Bpoints%3D%5B%5D%3Balign%3Dcenter%3Bimage%3BfontSize%3D12%3Bimage%3Dimg%2Flib%2Fazure2%2Fcompute%2FKubernetes_Services.svg%3BstrokeColor%3D%231A1A1A%3B%22%20vertex%3D%221%22%20parent%3D%221%22%3E%3CmxGeometry%20x%3D%22-20%22%20y%3D%221350%22%20width%3D%2268%22%20height%3D%2260%22%20as%3D%22geometry%22%2F%3E%3C%2FmxCell%3E%3CmxCell%20id%3D%2218%22%20value%3D%22%22%20style%3D%22shape%3Dimage%3BverticalLabelPosition%3Dbottom%3BlabelBackgroundColor%3D%23ffffff%3BverticalAlign%3Dtop%3Baspect%3Dfixed%3BimageAspect%3D0%3Bimage%3Ddata%3Aimage%2Fpng%2CiVBORw0KGgoAAAANSUhEUgAAAREAAADsCAYAAABT75L9AAAgAElEQVR4Ae19B3sbZdb29wveH5We0ANJYKm79LYsZVnYAi%2BwC2xhYffdxaQQSoCQUEInIbFjuXdb7nbs2IljO%2B5Fmhlpis533Wc0jmJkW5ou6dF1zSXZ0rRzznPP6ef%2F%2Fc%2F%2F%2FA%2BJTdBAyICQAbsy8P9IvAQFBAUEBRxQQICIA%2BKJXQUFBAWIBIgIKRAUEBRwRAEBIo7IVzg7p1IGpfQkpfSE2PKlgaFTKpUqHGb7fKUCRHwmeBCnwwLQlXFKXHiLlOFXwrMNvUJy14skR0O8db5CmjQhQGQdwRUgsg5xiuUrgIg6e5rk6I2kRK8JxSZ37CKpaTvFyjeRVLEldFu8fDPFy7eQ3PcWGbomQGSdxSBAZB3iFMtXKUOlxOgbJHeEA0AAZACReM1WiocYRKSmR0mXJhlAhDmz9moQILI2bYrmGz05T3LPL3nhhkUTkdp2UOwsnvabQ6eFQDOKn91FyfFTZBg6kfCHrLsWBIisS57C%2FxJP0OTsKZLazad%2FGECEtZC6beEFEJgx3a%2BSoSnCjMlhCQgQyYFIhfwTQ0%2BQPPAUayFydFfw%2FhD4Qlp3UKwinFoIa0YND5AuXxYAkqPgCxDJkVCF%2BDMEJbV4H0lh84XUb6P4mU0UD6NDtfJaUqdqyWATRoR1c5F7ASK5UKlAf5NK6ZQc%2F4Dk9p3BayDpqJDctpNikS0hNGU2U%2BzMJpK7Xyc9uSz8IHnIvACRPIhVaD814FAdfCZcDtWm7RQPoSkDMyYWuYm05SFKGUahsTrQ6xUgEij5vT25thwlueu28GghCOtWb6FYyCIynBNydiclJytMABHRmLwEU4BIXuQqnB9zVGbi49DkhnByGRyq5ZtCZ8rEK7aS3PM3MgyRVGZHwgWI2KFaAeyTMjSS%2Bx8PjSnDYd1aJJeFLCqD66m9ndTFfhGNsSnXAkRsEi7Mu0EL0ZY7SO64PhSmzIoWUrGJpBCZMiagbaPkhc9ZCyES0Rg7ci1AxA7VQr4PtBDl%2FF%2FCpYXUbwtVnQw7Uss3k9z5MulqXGghDmRagIgD4oVxV2ghqNiVOveGBkQkDutuDh2IxGvvID0%2BJgDEoSALEHFIwLDtjr4h6syPJHVcFxoQiYcwrBuv2EGJ0eMErQ3AK172KSBAxD7tQrmnocuUGPlbqKIyYUsugykjtT5DemJBAIgLUixAxAUihukQunKJ5N77QqGFsEO1eQdngoYlxZ19IdW3kLo8zAAidBDn0itAxDkNQ3MEaOXJuQqSOq4PB4i076IYksvOhKfxUPzsTkqMfk4G2kUKM8YV2RUg4goZw3GQlKGTMvwiAwi0gKDL%2FqWWcFXrQguR254lPTFvaiECRFwRXAEirpAx%2BINgPWjSCEnRm8KhhSDFPZ1cFob2h2zGVF5P6mw7wfksXu5RQICIe7QM9EhYGInx90iCBhICLQSVw2HqXBYv30qJdFKZMGPcFVUBIu7SM5CjYVEY6gLJ%2FY8FbsKs9E9tTCeXhSBDFQ2XpfbnRG2MR9IpQMQjwvp5WICIttRMcufecIAIkstC0j8VZky8ei%2Bps63CkeqRUAoQ8Yiwfh7WbD70fig6mHGhXSNGQYSj0A4gkjh3iAwtKUDEI6EUIOIRYf08rKHFSUn3UQ06IiMjrFu1JRSFdgAQqekRM6nMEBkhXsmkABGvKOvjcbVYL8mdu0MRlZGQXFaxOXAQYTOm6hZS5zpEONdjWRQg4jGBvT48%2FCGJC%2F8huWNn4FEZNmVqt4YiuQzRGGXwABm66jULSv74AkQKWASQG6InpkjqvDUcWkhIRkGwGdP4MOlihq4v0i1AxBcye3MSaCHqDAZT7QwcRKCFxJBcFnCKO5sxZ68hdbaNDEOktnsjeVcfVYDI1fQoqL8MTSbl%2FJ9DASDcMyQEXdxj5dtI6f8PA4gYf%2BmPOAsQ8YfOnpxFl0a4YjfoDFX2hTSYyWVBVuuaZsxDpMVGRTjXE4nLflABItnpUhD%2FVWfPkBy9IfAEM2gh8SqMggi2Whcgkpz4iWtjYOqJlz8UECDiD51dPwvXyoSgjyrm%2B1phXdYEAhiNyX4QHsL9mkgqc13SNj6gAJGNaRTKX%2BgKojL7QuEPwUCqoAAEFcJ87sYHSZfEEO4ghFWASBBUd3hOqOrJyWNcsQt%2FRFBZqjg3ayEBDqRiLeTsNZQcPyWiMQ7lyu7uAkTsUi7A%2FQx1ieTeB8OlhQRUrRs7s5nk7r%2FwEG7hBwlGKAWIBEN322fFQtEWm0nuuCFwEOHOZQFW60ILidXcSpo0KVLbbUuU8x0FiDinoa9HSBkqJS8dCrybO4d16xDW3UxBdC5jM6byOkpOlJMhIjG%2ByuDqkwkQWU2RkP9tJOdIHng6cC2EO5dVBlfuj0ZDcvdrpCdjIickYJkVIBIwA%2FI9vbbcTVL05kBBhLWQpu2BFdqxGVN5A2lLQwJA8hUgD34vQMQDonp1SOSGmKbMLpKj1wQXlUH%2F1IC0EAaQih2UvPgVGYYuQMQrYcvjuAJE8iDWWj%2BFs1NRNZqLJ2gurpCS1MjwoAmOocVI7rkncC1EghYSUFgXPhi58xXSNcWRMxU8U3WDluQkzcYUWlZU0kXB3loivu7%2FBYisS571v4RDDwL4XecYPXG0ifYdqOLt8aNNdKL9Al1elFkw1z9Kbt%2By0M9FAgUQbsKcHkjFzY99zk5lZ2rt7aQt9trWQEBHKaFS24U5evWHTrr93Wras7%2BK7j5cS%2F%2F8qYcGLi%2BSqonq39yk0vyVAJF8qJXxWwjjwOQi%2FeFEO91UVkk3lUWu2m58u5J%2B%2FWkzVQ%2B6k0WZ0hOkDL8cOIggrBvnat0tPkdlNnMkKHH%2BYzL0ZAYn8vt4aT5Ob57upb0Hqlb4tfsd8zN49sv36%2BjLtguU1ISplCtlBYjkSqmM3wFARmaW6d4P6uimtytp9zsRgiBmbhao3PFuDQ1PLdl%2BcuK0KCXTpWGSu%2B8MFETMsO7WQFLcuU9J6zOE9gegv50XzJW%2Fney%2BCjyy8ezmdyJ0qHqQEqpm%2B1x2rq9Q9xEgkifnYMJ0js3RI580sjBmCmG2zwCTxz5ppAUpkeeZrvwci0ad%2BZ7k6I2BOVMVFNq17QhkFMSKGbNsv8QfNDzdO04ACPAkG6%2Bs%2F%2BF7mDjv1w1RTBFd4q9IYvZPAkSy0yXrfyGIXZfmCT6Pm7JoH5YQrn6HuXO6Z8L2Uy1lJCkx8po53S6gqAxrIfVbA3GomkO4j%2FHwqayMyeGfcKDe%2F2HDhgBi8Q5AcuvBanonMkDxhEop1gdzOFEJ%2FkSASI5MR7Sl89I83XbwalvaErr13iGQ%2Fz3bz9GAHE%2B38jM2ZZIzJHffEZgpAwDhzmUBpLhDC5GaHl8Zwr1CmDw%2FdF1ayBlAMnkJP8m%2FK%2Foopqi2HwJ5XmrB%2FVyASA4sgwnTNDJDD39smjAbqcOZQmh9%2FvupHlJUPYezXf0TaD%2FJ6e9Iat8VKIjEG7exL4QXtU9RGTZjqnaTOhflBQxa2H3VDU3TjRuYMRavMt%2FB670HqqksMiCAZA3iCxBZgzDWvwEgzSMzdO8H9baeZBBICOK%2Fz%2FSxx986bq7vhp4gqf%2BxwAAEYV00gsZAKj%2BbMANAYhXbKTF63HFSGcAHIV07IGLx75Z3IvTqD120KCWERrJKeAWIrCJI5p%2BablDt0BT94mC1IwABiHzdcTHvQjEIvxbrYwCBSRFI3xCYMi3mQCp%2FtZAtJLc9S0Zi3rE3AnScWVbozsO1jvgI0%2BaNn3poLmYmumXKSil%2FFiCShfsQOoQDqwYv0%2F1HTA3EjgljPcUe%2FaSJJhelvJ9gPGN34kigWgg7VGvM7mF%2BgQibMZXXkjrdwP1Ss7Aor39Z%2FET%2BB6IudnkJfkIj%2BcepHpqPC43EYoIAEYsSGe8AkDM9E3RzOoEMwmNng7AiFDyzbC%2B3IaUukDL4bDAaSDoKJGEglc8p7mg0lBg6TIaOzNEMxjj4CCDBHJr3aofoFpv8tGQAfH36sxbOVsZxS%2F0lQGSVBKCe4vvOMUKSmN0nFvZDEtpvP2%2BlgctmopkdYdOWu0juujUwEGEtBGMxfezizun0bb8lXc1fc1vFyp%2F9CR4sy0n6oG6InaVO%2BLu7LEKvfN9JU0v2HhA%2Fu7gC%2FocAkTTzIGDwgXzVfsEVAPnNsWY6P7PMhXh2AASXlWRTJrhqXdZCfK7WjVfvIXW2JW%2FTL9c1CF6gdgamzT6Hvi4AyfNfttGEDVM11%2BsthN8JEEFaeboK90TbBdY%2BnDyhsO9Tx1toYsF8ktoFEENXSO57ODB%2FCGsh9f51LuNoTPlmUgb%2By7UxdumWy6LDsZOqRp82nad9B5w7zVE%2FZfE7l%2FMX229KHkQgUKqm85PpDofee5gwTx5rpt6JBXOMo01pwTVpiy0kd1wXHIggrBvxbxQEO1Mb7idddqdgcSPSg8ZxRaWjTefpNgcaCfwkSKV%2F6dsojacfHBudu9i%2BL2kQ4SeSptNHDcMrVZ2W8yzfdwDIE5820%2Fi85Hh0QcrQKDHyeqChXanJP4eqGY25ntT5Lse0y3WBgvfMf1Wjbzoucop7vjy3fs8%2BsLII%2FfrTJro4W3rtGksWRCBAsI2PNp53FIWxBAje%2BuHpZce2PK5LV8ZJ6gqmYhcd0%2BT2XRT3TQtBif82UgbLyND9Ty0HvdFE6njziCumze%2B%2FbKPREgOSkgQRFhxVoyP1Q%2FSLQ86jMI8dbaL%2ByUVHTlTrCYprU2dP84zdIBLM2BfSvJ3iPoV1WQupvzfQIdwWkCAqd7vDqBycrYjKDTls%2F2DJQyG8lxyIQGBQlYmCOEuLsNTSfN7NfSvZiboomeXiOLbTF9LcldE3AqvYBYjEqv3pGcLO1IrtpE7VUsowzQun9LO7P3iHEoefesZXgOSmMvv5QQ8caeAHixsyYfee%2FNqvpEAEDF1Wklze7SRzEQCCFOjnvrjyxHFLWHTlMsm99wbmULUGUnk9S4Y1kIq0GWOEo%2FkPeJhUdTrZNb6SIg9e5%2FNwsX6L%2FeBk7x6fZ3BySz78AoZ8zlMyIAImwhv%2F95PdtGf%2Fxo1pLGFY%2Fc4ayNuV3FNkbD7uKAqTjVHqXCXJHdcGAiKshfBAqk2etz4EiEhNj5Imp%2FusuKDFZaNnvv%2BDnGi6TnXD03SX02hdWYR%2B9UEdF%2F8hW7ZYXyUBIhCM%2BbhC%2FzzdYzsLFWDCAFJmmjBeOM8QlVHOPRcYgHC1rg%2FJZayFnN1JyfGTlDLyb4%2Fgx2LUdYPO9E7QnYdNn5kTjeShjxqo%2FeJc0XaTL3oQAYCgfPvN0z2Oiq8sDQSZqH0Ti54IhC6dI6kjmBaI7FBt8CO5zGy4LHe%2FToYHqe1uAQzkBvlDkYHLZi9dm2aN9fB55ONGajw%2Fw1nROHYxvYoaRMAs9DZ9%2FkTbSkf21eZJrn%2FDB%2FLEp01cTAcHnNuCgMFUifH3A2s%2BxGMxz27yvAkzayF195CeSDevDumCAn%2BxwQxpHZ2he96vs63FmhpshH5xqJpbS6DAs5heRQsiEAAUR73O3b3NkQ65Akbm7ywN5OnjLTTooJhuI6Ex1HlSBp4KzJSJ%2BzGQCo2GKq%2Bn5MSZvHurbEQ%2Fr76HHMG0iQxM0j3vmf1InJg2Dxypp%2FqhadZIXCtR9urmczxuUYIIGD%2B9rHAq8i0O%2BkdYAIJMRACIl08Qbamd5K7bSOnwv%2BCOk8tqvA%2FrQguRu%2F5CRtJ5Ul6O8u3KzyBPKM5suzBLAAEnIIJ9MdumvG%2BCHbg4dqG%2Fig5EwJSLc3Hu92CX2dBEeN%2ByCD37eetK3wivGI7jJsbRfOjaQMr%2BuVqXB1Jt9iwqw2ZM1c2kxcfISBWeOg8eYeu4OEdwlDqVLdTrnOoZJ1Uv%2FCFZRQMiFpMxuvKPX7UTMgftMhr7oRbmd%2Bk8EK%2FDc4ahkjzwZHCmDHqGnNlEEsKuHjRhZgCpvJajMaAleFWoL5g27Rfm6NH03CEnMnb3e3U8grXQp%2B0VFYhgRCKY6waAIAqDPhFeCz3WkxYfJDl6fSAgIrXu9LxzmWnGvEKGGk8DSOGCCAAQMjE8tUyPfdLk7EHFneSr6PPWUVtNvMMCxEUBImDshdkY%2FYGjMPYyDC0TBoOmYMLgeJZ24yWzkCehjL4ZCIBwWLfe21EQAJBY1R5S582xD17S0q9jW0CC3A83evDefqiau%2BkhpIxjF9qr4EEEREcHMZge0EAyIyv5fIZaijDuU8eb6dzUkivFdLkIg56YIrlzTyAgwgOpvEwuK99MaHeIsQ8pw%2F8K3Vzob%2Fc3kDs42rsvzXPo365ZYz28bj9Uw71NUFFcaEBS0CCCqXSjMzG678M6BoB8QGP1bwEgvz7aTIuye8V0GwkohEWdORUIgPA8GQ7reuMHgW8Fc2rktucdz43ZiI5BfQ%2F%2BYUPk7kEXnK27yyq5NQU0kkJ6FSyIgHnQGH73BRLJnGkgVlNlHM8SDD%2BYmNJlSoz%2BNRAQMat1vetcxs7UmttIm%2B9xZeyDH%2Fywew74SBC1ccPZetvBGvqsZZR7nEAWC%2BFVkCAC4vaML7jCNM5ETTdVhnrqJ%2BN0ZYzk3vtJ8XswFQZSeTwKAmMflKEPPO%2BXGoZFBpkBkKCHCJpT2X2oofUA9t17oIoOVg2ag8QLAEgKCkTALGwIsTlJ%2BrHsUPhQfn%2BibSUPxE%2BBhGyg%2BZDUcb3vuSFeaiGsgaQrdPUCSypzwv9MIEGjboCBfTCJcN%2FWg9WFASQFAyIWk%2BARRzGTXQZZAGLmgbSlxzr4q4FAWFOGQcrwy76bMgAQ7hniUecyBpHqfaQtDRd9H43VoGPJ6PnpZR4l4RRI0PPmP2f7aSntp1t9vrD8XTAgAnWx%2BfzMytAhuyDCjH27kpAHMhOTPc8DWYvRujJBUufuQEAk7uFAqnj5VkoMvU%2BGGiNDixfRpqzFyqv%2BDyDBNrkg0bNftDp%2B2EFbfuNUD5s2V50oRH8UAIiY9mbd0DTd%2F6HzdGPkgSCj9dKCmfgEhvv9QsVucvITQv8OaAZ%2BDur2eiAVayIV2ylesaN4tspreaxnrrKC3%2BGhB40Ejn%2BnyY%2BY%2F7s%2FMrASOfRbXjc6X7hBJF1BWdE3wR2i7GoflgkDJyqa6KKhEJgcxAuYZahLJPc94juAALDijegZ4n3Jvxfp80EcE6AoNT9OujSZl9PdAhIMtXrlu07HOUyYbfO3k92B%2BO82WiehBREwAdGSqoHLdOuBKwVxq%2FM7cvnbtE3NjmSWfZnrU2UjAub7Pc6rLbWRHL3ZVw0EAMI9QyJIANvsWZ1MEAvdi3OyRoVs24odpM612w5Tg9%2BXl2THPhKW87IIvXm6l2JKuBL3QgsiSLip6Jukez%2BwX3qdqYFg1OHIjFmCHhSAAHBSKY2S4x%2F4XrHLWgiSy85sorgHRXZeLOQgjwkQiVXspMTIMcfJcpA3VJa%2F9E0HR13satTYDxrJmz%2F1hGqQeChBBI1yv%2B64SKgpMLUIe8lk2BcmzDOft9D4gtlUOUgAAYgY2jIpg7%2F135Rp30WxqrQWIkBkw2plpOvLnS9f6X3iwHcGmcM2F1Po9R%2B7HJs28LFgbCc0nKDlGTIdKhABQdD8BWMN0UrOLmJbGgiI%2FcI3HTQfTzCxw0BwLdZDctTfqAxrIc3bKSbMmA3BA9oPmzK1t5O2OOjqIoX8zSzL9OoPJpA4le%2BXv%2BukmWXFvEYHIJevSb7696EBERAYfRU%2Bax6hOxxMIbMABHkgMGEuzJlO1DAACK4hMfY2ayFY2H5FZRhEar3vXBak%2BeHWuS0zJjlZwbk8bsoNjoVtNqbQW2d66War%2BdU7%2BQ%2FJMgEowr6W0dnlwAIFodJE4AP5tHGEzQ8nCA0QgQmDatygnairEZujMl23%2Bm7KSG07KHZWmDK5AA2n6w%2B87WmiHIAEQ9T%2BdqrbkbZtPTCf%2FbyFppak1eLm29%2BBayIgaELV6FjLCKFlnBMAwb4AkBe%2F6aDJRSk0Jgy4ifs009z9zQ1hLaR%2Bm%2BlQhTkj%2FCFr0gBaiNTya9Kl9EAtD5chayTLMr1xuoducaCRWEDyhxMdK4EDDy8766EDBREQUlE1erdmkPZZYVwbqp1FSAAIhmujwxnyQHD8sLxSukLK%2BT%2BT3LHTNzOGy%2F3bdlLM4%2F6pxQBMbMaUbyV1qs6MxngsOJBNbMtyksoiAxx1gRzb2fDwxIaxnUPT%2FjfBDgxEGECSGn1UP0zoyG6HeNY%2BFhGf%2FqyVFuXwOFEz5VCTRkju%2BZWvFbuWFsJPWKGFrKuBxDAX%2BNxBx%2BHcTJ7n%2BnlJStAbP%2FXQ7nfsF%2B1hLWAdPPN5K3kx3nW9ewkERAAgSJg5XHOObnXJhHn%2BRDunGVsIv95N%2B%2F0dFCJuPhT1d7oddy6LeNczpBg0ENwDh3OjL5ChmQ8g%2F%2BUjRQvxBA%2BaRxsAgIH1gMzn3XqYoooYHdf8ysoOBETiCZXeKu9zVFNgIS9MmCePt3DM3IvJdG4IFIAtMeJ%2F8yEJyWXClFlTAzEBZDPFa35B6kIfpYxgzF%2FrwSclNH6wwkeSD3hk%2FtYCkkc%2BaaS%2BiQV449wQ4XWP4SuIgFgAkLLKAUJRUebN5%2FuZ0boswsV0mHRnMWLduw3gS1yXnpwnqesXvkZl2JSpEVrIetqS6QfZTsmLX6XNmAAEJOOU1vo4UDVIe9KmjROtBJ3WACReN9vyDURAICR9vfZDF%2FtA7BIHYIN9oYE892Ubd2UPmxM1Qy4Y3JJTX5Hs82Q7PwZSrbdAw%2F4dAARmjNL7JhlaOmErk3EBfLYehHJSpWPNI46CDVgj2O79oI7qh6c9nd7oC4iAOMjZePX7Ll78%2BWodmb83iYPBUm0U87Gpsl2ZMnSFHarQDHxNLqtJD6QSId2s5gwARGp6lPTEXKiieJAzrBckXn7ccN6stXGgtWO9YGwnugF69bD1HEQsDeSfp3schbEyNRCksiOMi2OH%2BYXr44rdjmt8M2UAVl73Tw27lrHR9bEWgsHiU9W2q3O9ljvIjpzUeIzErS6UgEAjqTk3xWUlbq8bT0EEF4uio1e%2Bi7rmRH3i02azmC4dZ%2FeamU6OnzI0Slw66BuAQNNhX0id1TNkS9an8EaLrJi%2FZz%2FImU2kDB4MdRNprB1syOT%2Bqv0CoVUitIpMrTyfz9gXYzsjA5ddN208AxEQYEFKcCMVFMLlc8Orf8vEK4twLQyScywCO1ngfuyrJ2dJHnjKNzOGk8vad1G8ZivFK7eQFFljw3c5bDhG5iad3UK8rbEvn9P6zvptHu%2Fxs1vI2vg86WI4N0GNw7mtv73iBykAbRYZ3R%2FUDdHeNJDYBRMTSGqpYXjaVY3EExDBIp9YlOnP35sdnezeNMAE%2B8KJ%2BsLXHdyToVAABCClLbWT1LXXVxCBJiK3X9mkjM%2BZ%2F%2F%2FZ57ZdJPO2k%2BS2DbZW6%2FsdJONzesNcX2uz%2Fie37iC5JYeteQdJGZuMz%2BjCVoFUfXfS9dmMqbuLtAXMwkn5EPx051GFawWQnGi7QLe7UJx65%2BEa%2BqlnnLUcN67QdRDBDSMK8%2BI3UQYAgIBdELEA5MljLXxMrxxDbhBy9TGY8ePv8YL2y6HK50EUKCMSJEevcRfEVo6%2Fy8y%2BXXUunM%2BNc7JZ1mCaZa6ByJlN6SZDhTWqkgEvbdp82TbqimmDSnn4SHBspy9XQQQXNL3svPGKpYHADHr52yj3YHDjZp0SK9f9wRdDi5Hce5%2Bv%2FhBfwcptcMo4HjuHUXns0pxgK5wrd75EhmYWZubKyzD9DmsAPhJoJG60y7jrcC1VDkzyMZ2sL9dABBeBytnnTzjrbm35Q2DC%2FOGrdppYlDwLTXklIMzs%2BVqS213WAjIWWrEARrb7YC3ExcpjgIjU9DAZiQVXnrxeyc2Gx007W9H570zvBN15uNa2r9GyEFA5%2F0PXJfaRbHj%2BNX7gCojAukSjFWgN1sVZYGDvPcIAEk83pHWCkmvct6f%2FThkqKcMvCi3EBuixFtKyw72O9Egqi9xI6lRNYQPIKonVNJ2%2B7xxbcbbaW2dmej38LNWDl7mHyqrT5PSnYxDBAp%2BJKWbLNxeqEAFC%2F%2FtNlNBqH8cuOABBmrs8SnL37e76ImwsyGxP%2BbD%2FDw7fGKJLLlQdm2bMZlL6%2F48MTc5pQRTKj7AuoJGc7hmne96rs%2B13BPhgzcG0Ke%2BbSId%2F8%2FOTOAIR3Ah8IL8%2F0e6KBgIT5qnPWmh62ZxMVygMzbxO0ESd%2BZ7kqP8zdsMOELlcn4ResC4VDTIQNT5EenKx4B5GmTKV7TPkDBuCDZX9k%2BwjsauNWNYD%2BhpXDV7Om1a2QQQ3gCaxaDqLi7B7A9Z%2B6Df5v99GqVBNGIvRaD6UGHnd91qZXBZo2H8DUyZW7ZYWsoWkmttcb7Zs8Tks71iHum6wRnLXe7WO1iLW8T3v1VLj%2BZm8EtJsgQh8IGhX%2F6evOxxnogJEoIGgpeF4gZowmQKlK5Ok9Nwt%2FCH5ml%2BYztcEX4g7vWAxxjMxepwMXc1kT1F%2BtoCkbmiK7vvQ%2BZymO9%2BtYcctqn9zedkCETRQ%2BeNXHY5QD%2BAB5AOAYLg2WgSAGIX%2BUmdPCS0kXwCJXsNzid1qJs1mTMsT7AcpBpnKZU3gPmHa1J6bolsPOk%2BRh7O1eWSGcknJywtEcKEI41q1MJYpYvcd07xe%2B7FrZb5ooTPc0BMkDzwptJA8QeRKSNf5eE8GkPp7SItfKoqHUi4AYv0G6wfaA0r%2FH%2F640fGQLJhHmIOt6utrJLmDCFLZFyR6%2BngLaxBO%2FSA3lkXYhIFfpZAyUS2GZXvXY90kdVwnQCRPEOE2ji6NtIhXXkfJyXKWKSoCzTabnK31P4AIA4luUHRsjh4CkDjskgZn68nucdLX6fqWM4gkNJ3eqRxwhG7WDQGAHj%2FaRIvpYrq1iFJI%2F0%2BldEpe2i8AJE8AYWdq%2FTaKl29yXCMDLUTpfp2zUgtJdry4VmgkSEiDtu%2FkgY990SFtvdYbOYPI%2BZllx04bC0T2Haims%2F2TjJqFbsJYAmAkZ0jpf1yASJ4gIrXsoPhKSNd%2BoZ1pxjF2h6AAACAASURBVNxLulR6Zowlg5nvWFcYx%2BKG7xJd6D9qGF7TPMwNRFIpno8LVHKCahaIPJqeDVMsAALmaYtNJHf6W7Eb9pDtRteXGdKNO%2BjABgCJR24gfcmcnVtMcpUJDPl8Bg3QeLpxeNrxmsWaR1MjNJLO9soJRNBFHXMx3AAQAAnQcVFKZruegvwfGJZExW6eT%2BGNFlkxf8%2FOVHSjd8OMObuDEuePkGFo6C1YkDLkxUVDLpG4ibEs1gPc9ntZhEZnY1kvM2cQefk7sy7G9kVkOHjQJmBZKZ74PYRX6X9MmDJ5gCjS2%2BPVWzkvxEnTodiZTSS1%2FIZ0ZWZNdTur5JfAPwGneFjf8a79Qj1rvUOB6J9czEq13EDEMFzVRNClHT1HiuGFB58W6yO541pRK5MjiLAW0ryD4mc2OaqRgRkTq7yetOW0vS60kJ8tqfH5OO094J4mks1UzAlEsOP3nZd4zJ%2BFTE7e7%2F2wns5NLf3shgvxHylDp8Twy0ILyRFAYKJxSNdhrxDTD3I9JSdOUSrHzMpClC8n14x1%2B0XbqGM3BLSQhz9qIAkJoVkuKGcQGZ2J0f1HGhxfEINPWYSON4%2F4Mp0ryz27%2Bi8jOUvK4LMk9z9OSv%2BjpPQ%2FTEr%2Fg6T0YbuflL77SOm9l5TeX5HS%2B0tOiVd67iKlG9sdpKDat%2Bu29HYrKV37SOncQ0rnLaREbyYlupuU6E2kRG8ghYv6riM5em3a%2F4IxFLmPosjFZwMtAZtX%2FhjWQurMcRYcUbHpUMW%2Bcs9fSVcLt8mQq4KY5WCLUoLu%2FcBZGjzWK0DkaOP5NXNvcgaRpKrRsaYRx63ZrItCZ6bOMczCyIZtWSgSwn8B6c1EOYNHD6RSBj8V8W4Yep6bxo5B%2BFdWNl3l2g%2FUf%2Fx8SxIyZHnTFE7xRrm7ocVJ12Kkq8ukq0ukq4ukJxd4Cp%2BenCM0j9YTM6QnpklPTJGeuEy6MkG6Mk6adIHkvoe9BZHWnRRDA2gHpf6shdTcTtryiPCDrLEuMG4Cs66dBENugh%2BzLEK%2FP9FG00trD%2FjKGUSwYJbkBB2MDDouusONYXvwowZqGZ2x3QxlDfr59m%2FQxNrMk6Y4OnD1%2F7y8HFQ2XLkG87xmgALugXw3PdZPUvQGz0DE1EKQWLaZ7IZ0sS%2F8IMmZhqLJdHZbQjTdoE%2BbztPtLsyrefp4Mw1eXly3qjcnEMFNWgtD13V664w5jNuJX8TSSBB%2FHp1ddpuO4nh5UgD8TVx8m%2BSOnd6ZMm070x3LkJ1qbyZOvGIrKcMfpjW%2BwtVi82RPzj9Hpur7dUP8kHakhZRFuMQFI1o2KkvJGURwFxaQXF6U6KV0K0QnQLKikRypp86x%2BYI2bXLmcgh%2FiKVoqIsk93jXWNrqWIa8ELumDO%2FX8jRpUv6Nc0JIdtcvCRmq8F3sPWC%2Fitdak3%2F8qj0959rUdNe72LxAxDoQkGlsLsb1L07QztJG0A4A%2Bfldl%2BaFjWsR2cd3PBwwI0fuhCPX%2FebSMGMwU8YpgMTO7iJ1Pmo6%2BHykTyGcCibMR%2FVDhMbLN71dacsXYgEIfCDo7bORBmLRxRaIWBrJ%2BEKcHnVYcmxpMgASlC%2BPzccEkFjc8ekdjuDkxMee9UFhLYQTy%2ByZMaYPZTslx77JWbB9Il0oTgMnKibkWSBgrSk77%2BhvnIsJk3njtkAEBwCQwP6CYxR5H25pJHC2RmHaiMShTD55%2BtnQFVLOPeeZQ1VCevtKkV3%2BvhD4QeTu10hX5RWT2lOCFNDBWQNpGObUdidrEPuiuyCqdXPVQCwy2QYRHICBRDeo9cIs3eKw5DjTtHnoowb2COfSVcm6EfFunwK6PEJy9CZPQIS1kMotjtoextPhXAg3ZU13sn%2FvhbwnAOQ%2FFf10M6Kdb9vvcwwAee3HbpKSat4AAvo5AhEcAEAC5qJ1PXozOkHDTCB59Ggj5%2BoXch5JIQgo%2BJe49K43AIK%2BqekhVJKNvBA2Y85eQ8mJM7aEuxDob%2FcaUXv2bvW5Ff%2BHnXWHfbD9%2FVQ3zS6beSCQh3xfroAITgzP8GfNI6yR2LHFMvfBjVk%2BEnRosnNj%2BRKiVH9vqEskdXvTWBrDveO2O5Yhl2QrKefeJV0vjv67bslYUtNof9UA7XMQheH1Vhahf53p4zG1%2BZowmffiGESsg2Ghq5pG%2F1fRxzU2dpAxE0jwGV5mOG4RCRJAYlHavXfm2UI9SR07XddErMQys9Tfhh%2BkfAtJLU%2BRroiHiMVx8EtJmmvMbgSG11VZhDCi5f%2FK%2B3gAltO15SqImDep0r%2FKe%2BmWjNL%2F1eCQ69%2Bsbr1dyaHknokF4Wy1pMmld4z7TF74NyeYYdG7Gd510jeVzZjIDaTONAozJoPXmIhwsHpwxf9o50HN%2B5RF6D9n%2B2kunnDl4ewaiOBeASJQi9AIBaEiOzeZCTAMImy3VdKvjzat2c8gg87iYx4UQN2MF31Q5PadFK%2B270yNlW%2BhZHpmjNOnZB7kCPVPEyo0kP6V2jU7awv7oOfqezVDK2FcN27aVRCxLghAgs7waMZsAUEmONj5fFNZJT15rHllwJV1LvFunwLaYjPJqBh2McGMzRhOLLM3hCoOMyb6v8IPksFWaCD%2FPdvPfkI74GGttz37q%2Bhg1SDJ6RlPbgG0JyBiaSRDU0v05PEW1zrEA0ie%2BLSJ%2BiaLb7Zqhsz48hE8SowfJqnD3QxVaCGx6nSVro2IjFR3D2mL%2Fa6o2b4Q0uOTqJpO79Wec5zKfsv%2BKq7qxeA5t8DDunVPQMQ6ODSSgcuLrnWJt7QaaDgX57L3e7TOLd7XpwD8IXLvA647VCUehWkvMxWtDpOXTppNhmyEGte%2F48L7Nqnp9M%2FTvY41EJgwaOOB9hQmgOQfxl2Pep6CiKWR9E8u0DOfuaORQDUDmPz281aCpuM2qq5HrGL5DjTTFltI6rjWVRCRoIVE8u8VYqa1byOl7y3S9aTgKREtyUnaHxkwE8lsBimwThDg%2BLBuiGKKFSZ3F0CwJjwHEQtIzk8v0zOftTp2tlogAgI98WkzDQjTJm9sS6U0UoZfcRVA2BfSsI2gTQAU8in159%2B3PLkSznVfzPMmUaA7wImKTFQn1bhYJ%2FCBHG8eXQEQr%2BjqKYhc4YQZtRmdWaYHPzJnhAIELIePnXfsj%2B2Zz1sJzWiFRnKF2ht9MpQJkjr3ugYiABCpdYet%2BhjWQqp2kzrdUPI9QiDD0Bj%2BdabXUUAC6wID4j5lEwZd9zYu599IZtb73icQuRL%2BRYkxCn1gp9kBj8x9LCB59vNWbvwsgGQ9VpvfgUbqzEmeGexWVIa1EPRNtdErBOHcxNBhMjT3HX4bUyNcv8BwqLLKAdq731k%2FEGggnzSep5himoZerwvfQATsws2gFgaaw%2FNftjk2bSwQwftTx1toZEY4WzdaFildocToG65pIQAipLfHOL09P4cqtBC5%2FfcrzZa9FvaNaBPk98hERQ2Lk0JWrANEYU60X%2BAyFNDTD5r6CiJXgMSgqSWZ%2FvR1O980bj5Tw8j3swUmf%2FiqnSYXRffv9RaDrlwmue8h10CEtZCa%2FLu3sxlTdzdpS%2BbMGD%2BEfT26BPndgpTgchFLjvOVf%2Fwe%2B%2B47WM2dzeBT8ZOevoNIJpAgs%2FUfp3ocAYhFcIsBT3%2FWQhhv4ScRgxTAfM%2BtzteRHL3RFRBhX0izOQqTnaN59E2NV2ynxMWvuYt9KfMKhav%2FLu9zxYT5vHWUkJjmpJguX3nC7wMBEetC0VELdturP3Q67iBvoTHA5PkTbXR50WxgY51LvMOcNEgZed21WhnuFRLJLzOVNRCYMdGXSS9hPwiAc1lJ0svfRh3lgbAGcqCKfugcM8EjgH4rAYOIGbUBkLxTOcDqmKVZOHkHYV%2F4uoMuzomojQWeEFojMUVS1z5XtBD4QuKN29IDuXOv0mUQaXqMNGW2pLVFFL%2F983SPo4cn5HzP%2FgidaLtAStLKA7E47t97oCCC22ThNgxOrjlY5WzYjgU8IC42RG0uivAvSxPonJz%2B1kUtJJ1YhoHa%2BZgx1beUfHUuxlH%2B5YcuR%2F5AyDf6iZzunSD4QGDCBPUKHESsGwcRQIwDVYOO%2B0VmggmqiWdia0%2Fvss5f7O9mH9XfuaKFwBcSQ2IZhlDlmFiG3yGcqwweIENPFju5s94fgHw2lqA%2Ff9%2Fp2IS5%2Fd0a%2Bt4yYXyKwmS9qaB9IpkXBQLz01LVeXrXbQ6ndwFIgNYYA2iaNqXrbAVd9fggyd13OAcRTizbSbEKMzM1HxCRWn6zkpWayftS%2BbwoJ%2Bnvp3q4IRDLpo10dksD%2BTY6RujyHoZXaDQREMMCEmgkx5pHVvpHWpqFnXcQHRvCv4gGleILdFWnvyG543rHZf8riWVIb8%2FRjGE%2FSPVeUpeGfI8chIXfcUUlDITCQ80pgJztn3SlI5lbtAkViFg3xUKv6fRF6wW663AtE94OgFj7MNPKIvT6D10ladqgYlcZedW5FoLEspYd6cSy3Otj4hU7KDFytGTDuXh4%2FfVkN4OHEwCBCfNNx0VCj1XrgWutmSDfQwsiIBI0ku%2BiY%2BZULxcS0ti0%2BSZKkyUW%2FtWTMyR33%2BkYRNgXUruV4nkU2UELkdufJz2BManBOf%2BCWmTQQAAgTjNRbz1YRT92XeIeq2ECENA1lCBiMRzEwmyN8r4JuuOQ83EU0EzwJHj5uyibNjh%2Bsb9wj%2BrM9yR17HIEIgCQfEdhshlTcwfpynSonpx%2B8Bx0n40phJGUaKblRAP5xaFqquibDK0pGGoQAbPBDF03qGrgMj1wpME2MzJNGxT%2F%2FeX7rpJIkUdURu5%2F0lFolwGkzQzpIiKT6wyZeGQ3JScryUiVlgYCmb28JDtOogTwYLbut9GLrJXjuGF8FQSIgHiqrlPT%2BRnae8C%2BY8rSRPipAGfriXau4Qkrc5wKDGROj%2FU5bj4EEDETy%2FII6Z7ZRErfv8jQSixzOJWiRSnJsuXUiXrboRqqOTdFaJHodyp7PrIXehCxbgYLHYTsHJsnjNkEgyztws67qV5G6G8nu11rnW9da1jezUHdRwh9T52U%2FUttu%2FLqWMZmDHqlSpOsSYaFHl5fB2R0YlGiP33d4diEuePdGvqh6xJHYby%2BbqfHLxgQwY1aQILZv4980uiaaYPkH1QVF5tGYqiLJA86SzBjUyaPxDIznLuHtIXuUD89nS6cbPvDB%2FLK952OeuWwCXOomk52X3GiZjtXmP5XUCACwllAMjy9RHcfrnUMJJaJ89K3UUJJdjG99FgvJ5g500KQWGaZMRuHdbk6d%2FR40QHyenIBmYTs%2FOZYs2MNxDJhLPOlEB5sBQcimUBybmqJGzY7NW3YHCqL0Bs%2F9dC8By311xNAL79LTn3J%2FhC7IMK%2BkNrce4Ug9MtNhlBc5%2BWNhezYl%2Bbj3K0P86NNM7kqb1Mb%2B8GEOdk9TujyDvAoBAABKwoSRHDhILBuGNwW8YljTVyLYMc3Yu0DJiJq88p3nRyaKxQGrrWeUimdlHPPOQrrcmLZihayfqUuzJhY1c2kLQ0WjPCvRbt8%2Fr8gJemFr8x2n04ABGHcyMBkupiusCC4YEHEAhKofdNLMj33ZRvXJFigYPcdg5KRHAT7tpCBRJdGuPmQfS1kJ8XRsSyHAjv2g1ReR8nLkZJptgzZGJ%2BXeCojwMMJgPzy%2FTqKDFwuWB9SQYNIJpBApUR5tV1mWqCD%2FdGnspCBBFGZxNh%2B%2B1pIxzUkoWNZushuo1L%2FeMU2Uvr%2FTbpafM7pbFpJilI0sWCaME4BBGUd0ECS6ZaGhfjgKngQyQQS%2BDNQaGcyNn%2B7NBNIoJG8%2BA2crYVXto6ojNR9t20Q4Y5llbk5U1kLqb2LdNnMqMy26Irtf3MxhX7zqXMn6p2Ha6lzbI50vbB8IKv5WRQgYt0UUBxd0l5DwxcbZdYWiOAdQAQfyVune2lRKpxxBqCBtlBPUscNtnJDOKSLjmU51McwgERuJHWmmQw4Ai1GFOk7aIvxrUhSxEMGMpIpM7l%2Bxn4wYSoHJtMAUtgEKzoQAaPRXxXt9%2B0y2RIG7A%2FT5vUfu8yoTQEsE1TsJscOkGxzULeUTm8HQGxsxqSrcw1%2Fu4sHseQgV6jGRTk%2FHi52ZQv73f1eLdUNTbEJA59eob%2BKCkQsZoDhclKlf5zqdtQAJhNM%2Fn6ymzUS6xxhfTeS8yQPPm3LlOGQLieWbdzyMH5mM0ltvyNdmS9oB3QufIQ8YRTJox%2BbUUAnAHLP%2B7XUOjq74kTFsQv9VbQgAubAR4KZpnhyWIBg5x1Cg6li%2Fz3bT7FEcA1xcxE2LdZNss0RmVeGUK2vhUBLiVXeSOpcBy%2BGXK6rUH8DOULDb3THc5oHcs97tWzCoA6sGMDD4mlRgoh1c1AVkUn4dmW%2Fo0xCAA%2BABD0h0N4Orf7DKAR4qCXGPySpPf%2Byf2ghMSSWbdQ3Fd9XbKfk%2BElKFbkZAx7DhPndF22OO5LBhGkZmeVC0jDKjrVm7LwXNYiAIGAYqiA%2FrB92pbnR7nci9K%2FyPo7ahE0YDC1Gcs%2B9eZsy7ExFx7IcQroczu17kwyjuJ6mqxcPHMUorXjyOKIwznwgKBhtHplhWQybzKy%2Bbzt%2FFz2IgCjQSBC1Qd9WJ04xSyPZc6CK3jrTyxPc7RDdi30YLDkqc40tEImzFrJp%2FV4hcLY2PEBabNTUxIrAnl%2BLF6OzMU5gdFJSAfD51Qd11DQyww%2ByYgQQ0K8kQAQ3iieLpuvco9INIIF9DCDBGMQwvFIpjZTzr%2BUNIMholdqghVh5IWult2Pkw2ZSp2uK2g%2BChX55SaIHjtS74gMZmlripkzFCiAlBSJgIjZkBmJi2B2HnbVbxFNm74FqerfmXLp1f4BedvRaUcbZlMk3zR29RmJVWyhevrYWwvkgaLZ87hAZevGGcyEfg5fNok6nTlSYMI3np7m%2Bq5gBpKRAxNIWwFDM68DksFsPVtuO91umzd79VTyQGVPNKCD1Hvekzp0lKbo7rwQzDuk2bjyQGyBiVucWbzgXNETpxDOftTiqwcLD5f4P6yl6ca4onajWOsp8LxlzJvOmITDwk1QPXubEHzDeTujXAhI8tQ5UDZCUCMa0QZQkcfG%2F3Iw5H02EtZAItJC1Q7qshVTdTOpcOxfXZdKxWD7D1D0%2Fs0z3fVjvihO1d2KB5QtyVgqvkgQRMBYMRt8GdJK%2FywXTBlrN%2B3VD7CPxOwHcUJdJ7ns4L3%2FIlcSytX0hphmzjRKjx8kwwp0fY3exQg6svjROHybwoyAKgwkFpQIgoHvJgogFJAj%2Ftl2YdUUjuWV%2FhHNSYC75KUTqYgvJHdflByLtuyjGRXZrZ6cCRJTu10nXrNqh4nqygkdIJHvsaBMhdO9EG33wSD2du7xUEj6Q1YBd8iACQYJp035hlh4%2FauYEOBEmJKQdqhn0LfwLU0YZ%2FnN%2BAILu7Rt0LGMTp%2FEh0mIXfAXE1QLq1d%2BGkaLOS%2FP08MfOxpBAe0FbxO7x0jJhMvlS0iBiEQJAgvAvhOpBh7NtIFT7DlTRgapBSqi6dQpP3qEX6Mo4O1RhnuTqD%2BGOZeXmQO7sRXYI524ldbKcjCLNSh24vERPHGtmDcSuGYP9EIXpGV8oORMmU6AFiGRQA818Ls1L9NgnjY5GUkC4sAFIOI%2FEIwcbwC85%2FR0PplJyBBGATaxmC8UQ0s0ykJv9IOVbSOn7d1GGc%2BFERe4G6ljsggdrqgCQIw0sLzgmeFGqLwEiGZy3TJu%2BiQV69otWR0IGAYWz9YO6Ic5NyTiNax8NTSJl%2BOU8TBmMwty%2B7kDuePkWszpXjfPCKKbFgXvpuDhHjx9tcsxb%2BFHaL8yVVBRmLcEVILKKMhA0NIBG85lnP3cOJMgjOVQ9yJGgVady%2FKcuj5Dce2%2FOZgxrIdVb1m04FK%2FeS%2BpsmxnOLbKn68jMMj3qcF4RHg4Pf9xIA5cX2QQuJpC1K5ACRLJQDoIBZ%2BuluTg9%2FyUGMjsrwMJA5%2B%2BiYwxOWU5n%2B1%2FqXDnJ0dw6mHFId53EMpgxMZgxQ%2B%2BRoau2rymMO4Kfk4sy3X%2FEzANx4jgHCPWOm0l3AkBMbgsQWVPqASSo5FymP31t9W21FwYECKEaFILs1oubMY%2F8NSdTBgDCHcvSfVM58rLKHwIzRu54gYzEUtHZ96pucA4P%2BGAHQKyHyIMfNbAJU2p5IBvJrACRdSiEJw22JTlBGLVpVwghuPsOVFPD%2Bel1zpbfV4a6QHLXbTmDSLx%2Bm%2BlMzZKdyqBSeydp8fGiHPkwG0vQs1%2BYGqVdEMHY1rG5OOkllkiWi1QKENmAShaQYFYvJuTZnfQOAPq89cIGZ8vta1xTcurrnJsPyeibutK9fXWV7maKVeyg5Ni3RdsjBGX9DxxpsK2FPH28heBsh4kL2ovX1RQQIHI1PbL%2BBcGBAM0uy1xsZwdIACIfNQxnPX6%2B%2F0zpMsn9v2EtBKbKevkh7AupQ8ey7Hkh6Ooud71GRjoak%2B%2B1FMLvh6aW6d4P6vMGEfDssaONJZuJmitvBYjkSinU2xhmA2j0WkXP1fzMmwh9Gx1z%2FCQDoGkY1B29cUNThn0hLajSzV4fwzkhDQ%2BSnkDPi%2BJ9wo7Nxzmiko8pA97Cj3VhNsY8ExrI2gtFgMjatMnyjekjmY8rdKj6HI%2BTyBVIMKgoOjbnAojolJw8Zo6E2EgLad9J8WqrSndVpS6ApXoPJafritIPksm8RTlJL30bzRn0wdOnP2shVOMKH0gmJbN%2FFiCSnS5r%2FtcybeSExolkmEuz0RMOQvmnrzsI4OP0iYY%2Bqsrwi%2BwPWc%2BMwXdS89ody9CESBl4h4yV4ro1b7ngv0Dez9cdF3MCEfAKtTDj8%2FGSLKazw2wBInaolm4lgL6tSCRD9W42jQT%2Fw4Z5q%2Bhy5dRkAADp0nmSu%2B%2Fa0JSR0LEMWsiZn6e3c1Zq82OkJxYcg5pN8vm6G%2BiGDv2vfBddU3tk%2FpVF6JnPWml4ygxzOwV8X28ywJMJELFJfAgYnK3LcpJ9HSjmglZigQne0T7xhW86qGUUPSacd0fHOZPT35LUsX4zZnamNmX3hXA4t%2B4u0paGit6MsVgLumGDJni45hyPsAR%2FMnkFcxM9c7mcX4RxLdLl9C5AJCcyrf0jC0yglaAhzccN52l%2F1SB92jTC1Z0owMNv3HilUjrJAxtPt%2BPEsrPZozFx9Eq9%2BDWHc924pkI6BvgAMMeY1Z96x7k%2FLjTJk93jbL5YIVy3%2BFVItHFyrQJEnFAvY18I3npbxk9tf9TiAyRHr984pIvEMpgxmYllSGs%2Fs5nkrj%2BTnlw0a2NsX0nh7rgejwR42OOrABF7dPN9L05zH9u%2FsS8kM7EsA0Q4nFv3S9KkSZE05Tv3ivuEAkQKhL%2BGOkdy3yPrgoiVWLZ6%2FAMDSGQ3qTNNrplWBUI2cZk%2BUECAiA9EdnoKqNnaUgtJnXtpzeZDKLK7ahTmlbwQdClTBveToTkPMTu9F7F%2F8VFAgEgB8BSmTHLiI5I7rl0TRKCFxKq38vgHjsCkq3TjZzZTvP4e0pVZoYUUAK8L8RIFiBQA1wxdJuXc79Y0Za6EdK%2FOCWEzpnofaQs9JRPOLQB2Ft0lChApAJbq0hDJnbesDSIY%2F8Dp7atA5Ow1lLjwxZXqXJdCzQVAMnGJPlJAgIiPxLZzKvhDEuPvETJQoXGsTnXP1EKuMmMw%2BrLjj6QnFoUZY4fwYp%2BcKSBAJGdS%2Bf9DAIihLpHcffeaALLSsSwjL4TNmNrbSVseIvhTxEtQwEsKCBDxkroOj81RmcVmkjrW1kJi3CvkSqk%2FA0jldZScaaaU4TzV3uEtiN1LgAICRELMZB7UPfZOVi2Eq3Rbd%2Fxs%2FEO8Yhspg%2B9ws2WAkHgJCnhNAQEiXlPYwfGN5CwpA0%2F%2FzA%2FCfhGMwqwzQ7rWECpOdW96hLT4JdMPIkDEAfXFrrlSQIBIrpQK4HfacifJnXuyggj7QiquNmNiFTtJne8UjtQAeFXKpxQgElLuQ4lIjL%2BftfmQ3L6LO5ax5pEGkjjCuaPHzbqYkN6TuKzipIAAkZDy1dAVknsf%2Fpk%2FJFtIF85UOfqSWZ0rTJiQcrR4L0uASAh5y1GZpTaS2n%2FefAhaCBLL0HwZvhAASKxqN2mLfayFhPB2xCUVOQUEiISQwYjKKKNvkNy%2B8yp%2FCGshPArT9IVwOPfsNZQc%2F%2FFKVmoI70dcUnFTQIBIyPgLa0RXJkjqvvPnpgy0kLNXAMSszkU4173uaSEjh7icAqCAAJGQMQmmjDp3lufKZKa4sxZSv424V0jajJGaH78Szg3ZfYjLKR0KCBAJGa8NQ6XExf%2Bac2Wi17A5AwDhXiEZWki8Yiclp%2Bs5K5WEMzVkXCytyxEgEjJ%2BG8l5kvsfu8qUYS0kYxQmmzHnjwg%2FSMh4V6qXI0AkZJzXFltNU8aq2IUWkpHejpkxcsefyEiK8Y4hY13JXo4AkRCxHv4QZfQfV2kh1hAqayB3vHofqfNdotlyiPhW6pciQCREEmAkZ0jq3LcCImzGNG%2Fn8Q%2BcD1KxPZ2VKqpzQ8S2kr8UASIhEQGOysz8SFLHrisgstKxDGHdraT0%2FoMMTRbFdSHhmbgMkwICREIiCUhzV4ZfWAEQLvXPHIXZ9Ajp8pQorgsJv8RlXKGAAJErtAj0ky4Nk9zzyxUQYV9IZAubMrGz11JyspIMXQ%2F0GsXJBQWyUUCASDaqBPC%2F5MwpkqI3MoiwL6TBTCxDjYxy7iAZWkJoIQHwRZxyYwoIENmYRp7%2FImUgKvP3lWbMHNKtSA%2FkbnmKDFUAiOdMECewTQEBIrZJ596OZjPmu65oIXXbuEo3Xn0rqbMtwpHqHqnFkTyggAARD4iazyHNWpkKbj7EZkw6sQwNhxLDH3GvVJHWng9FxW%2F9poAAEb8pvup8hp4keeApUwtBSLdmK8XObCap%2FQ%2Bkq5Lwg6yil%2FgzfBQQIBIwT7T4OZI7rmMQkTiku4niDfeRtjzCAAJNRbwEBcJMAQEiAXLHHNT9SVoL2Ukx8eH3bQAAAP5JREFUhHQrdlFy%2FBQX1wkzJkDmiFPnTAEBIjmTyv0fprTllQSzODqWVWwhuecfwoxxn9TiiB5SQICIh8Td6NA8qLvHjMpAC4k3P056Yt40YzbaWXwvKBASCggQCYgRcHWo09%2BS1HEtxRu3Ubx6D6lzbcIPEhA%2FxGntU0CAiH3aOdqTmzEP%2FZ7iCOlWbKbE8PtkaIqIxjiiqtg5CAoIEAmC6kSkyxdI6rjRHIWJ4rrkMhkciRHRmIBYIk5rkwICRGwSzsluHJUZP0Lx5h0Ub7ibtPhFYcY4IajYN1AKCBDxmfzQMzjNve8RijfcSMlLP5hDp0Q%2BiM%2BcEKdziwL%2FH%2Bzh3PCP5KDEAAAAAElFTkSuQmCC%3B%22%20vertex%3D%221%22%20parent%3D%221%22%3E%3CmxGeometry%20x%3D%22-40%22%20y%3D%221440%22%20width%3D%2292.54%22%20height%3D%2280%22%20as%3D%22geometry%22%2F%3E%3C%2FmxCell%3E%3C%2Froot%3E%3C%2FmxGraphModel%3E&lt;/span&gt;" style="verticalLabelPosition=bottom;html=1;verticalAlign=top;align=center;strokeColor=none;fillColor=#00BEF2;shape=mxgraph.azure.sql_database;fontFamily=Garamond;fontSize=20;" vertex="1" parent="un9lTaKR_ojWKBwgLZ8Q-1">
          <mxGeometry x="538.4500000000002" y="1133" width="37.5" height="50" as="geometry" />
        </mxCell>
        <mxCell id="hI8kfkjxQy-ftBVGHC26-72" value="" style="aspect=fixed;html=1;points=[];align=center;image;fontSize=12;image=img/lib/azure2/databases/Azure_Cosmos_DB.svg;strokeColor=#1A1A1A;" vertex="1" parent="un9lTaKR_ojWKBwgLZ8Q-1">
          <mxGeometry x="525.2" y="1361" width="64" height="64" as="geometry" />
        </mxCell>
        <mxCell id="hI8kfkjxQy-ftBVGHC26-73" value="&lt;span style=&quot;color: rgba(0 , 0 , 0 , 0) ; font-family: monospace ; font-size: 0px&quot;&gt;%3CmxGraphModel%3E%3Croot%3E%3CmxCell%20id%3D%220%22%2F%3E%3CmxCell%20id%3D%221%22%20parent%3D%220%22%2F%3E%3CmxCell%20id%3D%222%22%20value%3D%22%22%20style%3D%22rounded%3D0%3BwhiteSpace%3Dwrap%3Bhtml%3D1%3BstrokeColor%3D%231A1A1A%3BfontFamily%3DGaramond%3BfontSize%3D20%3Bdashed%3D1%3B%22%20vertex%3D%221%22%20parent%3D%221%22%3E%3CmxGeometry%20x%3D%22-250%22%20y%3D%221070%22%20width%3D%22350%22%20height%3D%22490%22%20as%3D%22geometry%22%2F%3E%3C%2FmxCell%3E%3CmxCell%20id%3D%223%22%20value%3D%22%22%20style%3D%22endArrow%3Dnone%3Bhtml%3D1%3BfontFamily%3DGaramond%3BfontSize%3D20%3B%22%20edge%3D%221%22%20parent%3D%221%22%3E%3CmxGeometry%20width%3D%2250%22%20height%3D%2250%22%20relative%3D%221%22%20as%3D%22geometry%22%3E%3CmxPoint%20x%3D%22-266%22%20y%3D%221520%22%20as%3D%22sourcePoint%22%2F%3E%3CmxPoint%20x%3D%22-266%22%20y%3D%221070%22%20as%3D%22targetPoint%22%2F%3E%3C%2FmxGeometry%3E%3C%2FmxCell%3E%3CmxCell%20id%3D%224%22%20value%3D%22Service-1%22%20style%3D%22rounded%3D1%3BwhiteSpace%3Dwrap%3Bhtml%3D1%3BstrokeColor%3D%236c8ebf%3BfontFamily%3DGaramond%3BfontSize%3D20%3BfillColor%3D%23dae8fc%3B%22%20vertex%3D%221%22%20parent%3D%221%22%3E%3CmxGeometry%20x%3D%22-240%22%20y%3D%221090%22%20width%3D%22120%22%20height%3D%2260%22%20as%3D%22geometry%22%2F%3E%3C%2FmxCell%3E%3CmxCell%20id%3D%225%22%20value%3D%22Service-1%22%20style%3D%22rounded%3D1%3BwhiteSpace%3Dwrap%3Bhtml%3D1%3BstrokeColor%3D%236c8ebf%3BfontFamily%3DGaramond%3BfontSize%3D20%3BfillColor%3D%23dae8fc%3B%22%20vertex%3D%221%22%20parent%3D%221%22%3E%3CmxGeometry%20x%3D%22-230%22%20y%3D%221100%22%20width%3D%22120%22%20height%3D%2260%22%20as%3D%22geometry%22%2F%3E%3C%2FmxCell%3E%3CmxCell%20id%3D%226%22%20value%3D%22Service-1%22%20style%3D%22rounded%3D1%3BwhiteSpace%3Dwrap%3Bhtml%3D1%3BstrokeColor%3D%236c8ebf%3BfontFamily%3DGaramond%3BfontSize%3D20%3BfillColor%3D%23dae8fc%3B%22%20vertex%3D%221%22%20parent%3D%221%22%3E%3CmxGeometry%20x%3D%22-220%22%20y%3D%221110%22%20width%3D%22120%22%20height%3D%2260%22%20as%3D%22geometry%22%2F%3E%3C%2FmxCell%3E%3CmxCell%20id%3D%227%22%20value%3D%22Service-2%22%20style%3D%22rounded%3D1%3BwhiteSpace%3Dwrap%3Bhtml%3D1%3BstrokeColor%3D%23d79b00%3BfontFamily%3DGaramond%3BfontSize%3D20%3BfillColor%3D%23ffe6cc%3B%22%20vertex%3D%221%22%20parent%3D%221%22%3E%3CmxGeometry%20x%3D%22-230%22%20y%3D%221210%22%20width%3D%22120%22%20height%3D%2260%22%20as%3D%22geometry%22%2F%3E%3C%2FmxCell%3E%3CmxCell%20id%3D%228%22%20value%3D%22Service-2%22%20style%3D%22rounded%3D1%3BwhiteSpace%3Dwrap%3Bhtml%3D1%3BstrokeColor%3D%23d79b00%3BfontFamily%3DGaramond%3BfontSize%3D20%3BfillColor%3D%23ffe6cc%3B%22%20vertex%3D%221%22%20parent%3D%221%22%3E%3CmxGeometry%20x%3D%22-220%22%20y%3D%221220%22%20width%3D%22120%22%20height%3D%2260%22%20as%3D%22geometry%22%2F%3E%3C%2FmxCell%3E%3CmxCell%20id%3D%229%22%20value%3D%22Service-2%22%20style%3D%22rounded%3D1%3BwhiteSpace%3Dwrap%3Bhtml%3D1%3BstrokeColor%3D%23d79b00%3BfontFamily%3DGaramond%3BfontSize%3D20%3BfillColor%3D%23ffe6cc%3B%22%20vertex%3D%221%22%20parent%3D%221%22%3E%3CmxGeometry%20x%3D%22-210%22%20y%3D%221230%22%20width%3D%22120%22%20height%3D%2260%22%20as%3D%22geometry%22%2F%3E%3C%2FmxCell%3E%3CmxCell%20id%3D%2210%22%20value%3D%22Service%20-3%22%20style%3D%22rounded%3D1%3BwhiteSpace%3Dwrap%3Bhtml%3D1%3BstrokeColor%3D%23d6b656%3BfontFamily%3DGaramond%3BfontSize%3D20%3BfillColor%3D%23fff2cc%3B%22%20vertex%3D%221%22%20parent%3D%221%22%3E%3CmxGeometry%20x%3D%22-220%22%20y%3D%221330%22%20width%3D%22120%22%20height%3D%2260%22%20as%3D%22geometry%22%2F%3E%3C%2FmxCell%3E%3CmxCell%20id%3D%2211%22%20value%3D%22Service%20-3%22%20style%3D%22rounded%3D1%3BwhiteSpace%3Dwrap%3Bhtml%3D1%3BstrokeColor%3D%23d6b656%3BfontFamily%3DGaramond%3BfontSize%3D20%3BfillColor%3D%23fff2cc%3B%22%20vertex%3D%221%22%20parent%3D%221%22%3E%3CmxGeometry%20x%3D%22-210%22%20y%3D%221340%22%20width%3D%22120%22%20height%3D%2260%22%20as%3D%22geometry%22%2F%3E%3C%2FmxCell%3E%3CmxCell%20id%3D%2212%22%20value%3D%22Service%20-3%22%20style%3D%22rounded%3D1%3BwhiteSpace%3Dwrap%3Bhtml%3D1%3BstrokeColor%3D%23d6b656%3BfontFamily%3DGaramond%3BfontSize%3D20%3BfillColor%3D%23fff2cc%3B%22%20vertex%3D%221%22%20parent%3D%221%22%3E%3CmxGeometry%20x%3D%22-200%22%20y%3D%221350%22%20width%3D%22120%22%20height%3D%2260%22%20as%3D%22geometry%22%2F%3E%3C%2FmxCell%3E%3CmxCell%20id%3D%2213%22%20value%3D%22Service-4%22%20style%3D%22rounded%3D1%3BwhiteSpace%3Dwrap%3Bhtml%3D1%3BstrokeColor%3D%2382b366%3BfontFamily%3DGaramond%3BfontSize%3D20%3BfillColor%3D%23d5e8d4%3B%22%20vertex%3D%221%22%20parent%3D%221%22%3E%3CmxGeometry%20x%3D%22-220%22%20y%3D%221470%22%20width%3D%22120%22%20height%3D%2260%22%20as%3D%22geometry%22%2F%3E%3C%2FmxCell%3E%3CmxCell%20id%3D%2214%22%20value%3D%22Service-4%22%20style%3D%22rounded%3D1%3BwhiteSpace%3Dwrap%3Bhtml%3D1%3BstrokeColor%3D%2382b366%3BfontFamily%3DGaramond%3BfontSize%3D20%3BfillColor%3D%23d5e8d4%3B%22%20vertex%3D%221%22%20parent%3D%221%22%3E%3CmxGeometry%20x%3D%22-210%22%20y%3D%221480%22%20width%3D%22120%22%20height%3D%2260%22%20as%3D%22geometry%22%2F%3E%3C%2FmxCell%3E%3CmxCell%20id%3D%2215%22%20value%3D%22Service-4%22%20style%3D%22rounded%3D1%3BwhiteSpace%3Dwrap%3Bhtml%3D1%3BstrokeColor%3D%2382b366%3BfontFamily%3DGaramond%3BfontSize%3D20%3BfillColor%3D%23d5e8d4%3B%22%20vertex%3D%221%22%20parent%3D%221%22%3E%3CmxGeometry%20x%3D%22-200%22%20y%3D%221490%22%20width%3D%22120%22%20height%3D%2260%22%20as%3D%22geometry%22%2F%3E%3C%2FmxCell%3E%3CmxCell%20id%3D%2216%22%20value%3D%22%22%20style%3D%22aspect%3Dfixed%3Bhtml%3D1%3Bpoints%3D%5B%5D%3Balign%3Dcenter%3Bimage%3BfontSize%3D12%3Bimage%3Dimg%2Flib%2Fmscae%2FDocker.svg%3BstrokeColor%3D%231A1A1A%3B%22%20vertex%3D%221%22%20parent%3D%221%22%3E%3CmxGeometry%20x%3D%22-20%22%20y%3D%221209%22%20width%3D%2250%22%20height%3D%2241%22%20as%3D%22geometry%22%2F%3E%3C%2FmxCell%3E%3CmxCell%20id%3D%2217%22%20value%3D%22%22%20style%3D%22aspect%3Dfixed%3Bhtml%3D1%3Bpoints%3D%5B%5D%3Balign%3Dcenter%3Bimage%3BfontSize%3D12%3Bimage%3Dimg%2Flib%2Fazure2%2Fcompute%2FKubernetes_Services.svg%3BstrokeColor%3D%231A1A1A%3B%22%20vertex%3D%221%22%20parent%3D%221%22%3E%3CmxGeometry%20x%3D%22-20%22%20y%3D%221350%22%20width%3D%2268%22%20height%3D%2260%22%20as%3D%22geometry%22%2F%3E%3C%2FmxCell%3E%3CmxCell%20id%3D%2218%22%20value%3D%22%22%20style%3D%22shape%3Dimage%3BverticalLabelPosition%3Dbottom%3BlabelBackgroundColor%3D%23ffffff%3BverticalAlign%3Dtop%3Baspect%3Dfixed%3BimageAspect%3D0%3Bimage%3Ddata%3Aimage%2Fpng%2CiVBORw0KGgoAAAANSUhEUgAAAREAAADsCAYAAABT75L9AAAgAElEQVR4Ae19B3sbZdb29wveH5We0ANJYKm79LYsZVnYAi%2BwC2xhYffdxaQQSoCQUEInIbFjuXdb7nbs2IljO%2B5Fmhlpis533Wc0jmJkW5ou6dF1zSXZ0rRzznPP6ef%2F%2Fc%2F%2F%2FA%2BJTdBAyICQAbsy8P9IvAQFBAUEBRxQQICIA%2BKJXQUFBAWIBIgIKRAUEBRwRAEBIo7IVzg7p1IGpfQkpfSE2PKlgaFTKpUqHGb7fKUCRHwmeBCnwwLQlXFKXHiLlOFXwrMNvUJy14skR0O8db5CmjQhQGQdwRUgsg5xiuUrgIg6e5rk6I2kRK8JxSZ37CKpaTvFyjeRVLEldFu8fDPFy7eQ3PcWGbomQGSdxSBAZB3iFMtXKUOlxOgbJHeEA0AAZACReM1WiocYRKSmR0mXJhlAhDmz9moQILI2bYrmGz05T3LPL3nhhkUTkdp2UOwsnvabQ6eFQDOKn91FyfFTZBg6kfCHrLsWBIisS57C%2FxJP0OTsKZLazad%2FGECEtZC6beEFEJgx3a%2BSoSnCjMlhCQgQyYFIhfwTQ0%2BQPPAUayFydFfw%2FhD4Qlp3UKwinFoIa0YND5AuXxYAkqPgCxDJkVCF%2BDMEJbV4H0lh84XUb6P4mU0UD6NDtfJaUqdqyWATRoR1c5F7ASK5UKlAf5NK6ZQc%2F4Dk9p3BayDpqJDctpNikS0hNGU2U%2BzMJpK7Xyc9uSz8IHnIvACRPIhVaD814FAdfCZcDtWm7RQPoSkDMyYWuYm05SFKGUahsTrQ6xUgEij5vT25thwlueu28GghCOtWb6FYyCIynBNydiclJytMABHRmLwEU4BIXuQqnB9zVGbi49DkhnByGRyq5ZtCZ8rEK7aS3PM3MgyRVGZHwgWI2KFaAeyTMjSS%2Bx8PjSnDYd1aJJeFLCqD66m9ndTFfhGNsSnXAkRsEi7Mu0EL0ZY7SO64PhSmzIoWUrGJpBCZMiagbaPkhc9ZCyES0Rg7ci1AxA7VQr4PtBDl%2FF%2FCpYXUbwtVnQw7Uss3k9z5MulqXGghDmRagIgD4oVxV2ghqNiVOveGBkQkDutuDh2IxGvvID0%2BJgDEoSALEHFIwLDtjr4h6syPJHVcFxoQiYcwrBuv2EGJ0eMErQ3AK172KSBAxD7tQrmnocuUGPlbqKIyYUsugykjtT5DemJBAIgLUixAxAUihukQunKJ5N77QqGFsEO1eQdngoYlxZ19IdW3kLo8zAAidBDn0itAxDkNQ3MEaOXJuQqSOq4PB4i076IYksvOhKfxUPzsTkqMfk4G2kUKM8YV2RUg4goZw3GQlKGTMvwiAwi0gKDL%2FqWWcFXrQguR254lPTFvaiECRFwRXAEirpAx%2BINgPWjSCEnRm8KhhSDFPZ1cFob2h2zGVF5P6mw7wfksXu5RQICIe7QM9EhYGInx90iCBhICLQSVw2HqXBYv30qJdFKZMGPcFVUBIu7SM5CjYVEY6gLJ%2FY8FbsKs9E9tTCeXhSBDFQ2XpfbnRG2MR9IpQMQjwvp5WICIttRMcufecIAIkstC0j8VZky8ei%2Bps63CkeqRUAoQ8Yiwfh7WbD70fig6mHGhXSNGQYSj0A4gkjh3iAwtKUDEI6EUIOIRYf08rKHFSUn3UQ06IiMjrFu1JRSFdgAQqekRM6nMEBkhXsmkABGvKOvjcbVYL8mdu0MRlZGQXFaxOXAQYTOm6hZS5zpEONdjWRQg4jGBvT48%2FCGJC%2F8huWNn4FEZNmVqt4YiuQzRGGXwABm66jULSv74AkQKWASQG6InpkjqvDUcWkhIRkGwGdP4MOlihq4v0i1AxBcye3MSaCHqDAZT7QwcRKCFxJBcFnCKO5sxZ68hdbaNDEOktnsjeVcfVYDI1fQoqL8MTSbl%2FJ9DASDcMyQEXdxj5dtI6f8PA4gYf%2BmPOAsQ8YfOnpxFl0a4YjfoDFX2hTSYyWVBVuuaZsxDpMVGRTjXE4nLflABItnpUhD%2FVWfPkBy9IfAEM2gh8SqMggi2Whcgkpz4iWtjYOqJlz8UECDiD51dPwvXyoSgjyrm%2B1phXdYEAhiNyX4QHsL9mkgqc13SNj6gAJGNaRTKX%2BgKojL7QuEPwUCqoAAEFcJ87sYHSZfEEO4ghFWASBBUd3hOqOrJyWNcsQt%2FRFBZqjg3ayEBDqRiLeTsNZQcPyWiMQ7lyu7uAkTsUi7A%2FQx1ieTeB8OlhQRUrRs7s5nk7r%2FwEG7hBwlGKAWIBEN322fFQtEWm0nuuCFwEOHOZQFW60ILidXcSpo0KVLbbUuU8x0FiDinoa9HSBkqJS8dCrybO4d16xDW3UxBdC5jM6byOkpOlJMhIjG%2ByuDqkwkQWU2RkP9tJOdIHng6cC2EO5dVBlfuj0ZDcvdrpCdjIickYJkVIBIwA%2FI9vbbcTVL05kBBhLWQpu2BFdqxGVN5A2lLQwJA8hUgD34vQMQDonp1SOSGmKbMLpKj1wQXlUH%2F1IC0EAaQih2UvPgVGYYuQMQrYcvjuAJE8iDWWj%2BFs1NRNZqLJ2gurpCS1MjwoAmOocVI7rkncC1EghYSUFgXPhi58xXSNcWRMxU8U3WDluQkzcYUWlZU0kXB3loivu7%2FBYisS571v4RDDwL4XecYPXG0ifYdqOLt8aNNdKL9Al1elFkw1z9Kbt%2By0M9FAgUQbsKcHkjFzY99zk5lZ2rt7aQt9trWQEBHKaFS24U5evWHTrr93Wras7%2BK7j5cS%2F%2F8qYcGLi%2BSqonq39yk0vyVAJF8qJXxWwjjwOQi%2FeFEO91UVkk3lUWu2m58u5J%2B%2FWkzVQ%2B6k0WZ0hOkDL8cOIggrBvnat0tPkdlNnMkKHH%2BYzL0ZAYn8vt4aT5Ob57upb0Hqlb4tfsd8zN49sv36%2BjLtguU1ISplCtlBYjkSqmM3wFARmaW6d4P6uimtytp9zsRgiBmbhao3PFuDQ1PLdl%2BcuK0KCXTpWGSu%2B8MFETMsO7WQFLcuU9J6zOE9gegv50XzJW%2Fney%2BCjyy8ezmdyJ0qHqQEqpm%2B1x2rq9Q9xEgkifnYMJ0js3RI580sjBmCmG2zwCTxz5ppAUpkeeZrvwci0ad%2BZ7k6I2BOVMVFNq17QhkFMSKGbNsv8QfNDzdO04ACPAkG6%2Bs%2F%2BF7mDjv1w1RTBFd4q9IYvZPAkSy0yXrfyGIXZfmCT6Pm7JoH5YQrn6HuXO6Z8L2Uy1lJCkx8po53S6gqAxrIfVbA3GomkO4j%2FHwqayMyeGfcKDe%2F2HDhgBi8Q5AcuvBanonMkDxhEop1gdzOFEJ%2FkSASI5MR7Sl89I83XbwalvaErr13iGQ%2Fz3bz9GAHE%2B38jM2ZZIzJHffEZgpAwDhzmUBpLhDC5GaHl8Zwr1CmDw%2FdF1ayBlAMnkJP8m%2FK%2Foopqi2HwJ5XmrB%2FVyASA4sgwnTNDJDD39smjAbqcOZQmh9%2FvupHlJUPYezXf0TaD%2FJ6e9Iat8VKIjEG7exL4QXtU9RGTZjqnaTOhflBQxa2H3VDU3TjRuYMRavMt%2FB670HqqksMiCAZA3iCxBZgzDWvwEgzSMzdO8H9baeZBBICOK%2Fz%2FSxx986bq7vhp4gqf%2BxwAAEYV00gsZAKj%2BbMANAYhXbKTF63HFSGcAHIV07IGLx75Z3IvTqD120KCWERrJKeAWIrCJI5p%2BablDt0BT94mC1IwABiHzdcTHvQjEIvxbrYwCBSRFI3xCYMi3mQCp%2FtZAtJLc9S0Zi3rE3AnScWVbozsO1jvgI0%2BaNn3poLmYmumXKSil%2FFiCShfsQOoQDqwYv0%2F1HTA3EjgljPcUe%2FaSJJhelvJ9gPGN34kigWgg7VGvM7mF%2BgQibMZXXkjrdwP1Ss7Aor39Z%2FET%2BB6IudnkJfkIj%2BcepHpqPC43EYoIAEYsSGe8AkDM9E3RzOoEMwmNng7AiFDyzbC%2B3IaUukDL4bDAaSDoKJGEglc8p7mg0lBg6TIaOzNEMxjj4CCDBHJr3aofoFpv8tGQAfH36sxbOVsZxS%2F0lQGSVBKCe4vvOMUKSmN0nFvZDEtpvP2%2BlgctmopkdYdOWu0juujUwEGEtBGMxfezizun0bb8lXc1fc1vFyp%2F9CR4sy0n6oG6InaVO%2BLu7LEKvfN9JU0v2HhA%2Fu7gC%2FocAkTTzIGDwgXzVfsEVAPnNsWY6P7PMhXh2AASXlWRTJrhqXdZCfK7WjVfvIXW2JW%2FTL9c1CF6gdgamzT6Hvi4AyfNfttGEDVM11%2BsthN8JEEFaeboK90TbBdY%2BnDyhsO9Tx1toYsF8ktoFEENXSO57ODB%2FCGsh9f51LuNoTPlmUgb%2By7UxdumWy6LDsZOqRp82nad9B5w7zVE%2FZfE7l%2FMX229KHkQgUKqm85PpDofee5gwTx5rpt6JBXOMo01pwTVpiy0kd1wXHIggrBvxbxQEO1Mb7idddqdgcSPSg8ZxRaWjTefpNgcaCfwkSKV%2F6dsojacfHBudu9i%2BL2kQ4SeSptNHDcMrVZ2W8yzfdwDIE5820%2Fi85Hh0QcrQKDHyeqChXanJP4eqGY25ntT5Lse0y3WBgvfMf1Wjbzoucop7vjy3fs8%2BsLII%2FfrTJro4W3rtGksWRCBAsI2PNp53FIWxBAje%2BuHpZce2PK5LV8ZJ6gqmYhcd0%2BT2XRT3TQtBif82UgbLyND9Ty0HvdFE6njziCumze%2B%2FbKPREgOSkgQRFhxVoyP1Q%2FSLQ86jMI8dbaL%2ByUVHTlTrCYprU2dP84zdIBLM2BfSvJ3iPoV1WQupvzfQIdwWkCAqd7vDqBycrYjKDTls%2F2DJQyG8lxyIQGBQlYmCOEuLsNTSfN7NfSvZiboomeXiOLbTF9LcldE3AqvYBYjEqv3pGcLO1IrtpE7VUsowzQun9LO7P3iHEoefesZXgOSmMvv5QQ8caeAHixsyYfee%2FNqvpEAEDF1Wklze7SRzEQCCFOjnvrjyxHFLWHTlMsm99wbmULUGUnk9S4Y1kIq0GWOEo%2FkPeJhUdTrZNb6SIg9e5%2FNwsX6L%2FeBk7x6fZ3BySz78AoZ8zlMyIAImwhv%2F95PdtGf%2Fxo1pLGFY%2Fc4ayNuV3FNkbD7uKAqTjVHqXCXJHdcGAiKshfBAqk2etz4EiEhNj5Imp%2FusuKDFZaNnvv%2BDnGi6TnXD03SX02hdWYR%2B9UEdF%2F8hW7ZYXyUBIhCM%2BbhC%2FzzdYzsLFWDCAFJmmjBeOM8QlVHOPRcYgHC1rg%2FJZayFnN1JyfGTlDLyb4%2Fgx2LUdYPO9E7QnYdNn5kTjeShjxqo%2FeJc0XaTL3oQAYCgfPvN0z2Oiq8sDQSZqH0Ti54IhC6dI6kjmBaI7FBt8CO5zGy4LHe%2FToYHqe1uAQzkBvlDkYHLZi9dm2aN9fB55ONGajw%2Fw1nROHYxvYoaRMAs9DZ9%2FkTbSkf21eZJrn%2FDB%2FLEp01cTAcHnNuCgMFUifH3A2s%2BxGMxz27yvAkzayF195CeSDevDumCAn%2BxwQxpHZ2he96vs63FmhpshH5xqJpbS6DAs5heRQsiEAAUR73O3b3NkQ65Akbm7ywN5OnjLTTooJhuI6Ex1HlSBp4KzJSJ%2BzGQCo2GKq%2Bn5MSZvHurbEQ%2Fr76HHMG0iQxM0j3vmf1InJg2Dxypp%2FqhadZIXCtR9urmczxuUYIIGD%2B9rHAq8i0O%2BkdYAIJMRACIl08Qbamd5K7bSOnwv%2BCOk8tqvA%2FrQguRu%2F5CRtJ5Ul6O8u3KzyBPKM5suzBLAAEnIIJ9MdumvG%2BCHbg4dqG%2Fig5EwJSLc3Hu92CX2dBEeN%2ByCD37eetK3wivGI7jJsbRfOjaQMr%2BuVqXB1Jt9iwqw2ZM1c2kxcfISBWeOg8eYeu4OEdwlDqVLdTrnOoZJ1Uv%2FCFZRQMiFpMxuvKPX7UTMgftMhr7oRbmd%2Bk8EK%2FDc4ahkjzwZHCmDHqGnNlEEsKuHjRhZgCpvJajMaAleFWoL5g27Rfm6NH03CEnMnb3e3U8grXQp%2B0VFYhgRCKY6waAIAqDPhFeCz3WkxYfJDl6fSAgIrXu9LxzmWnGvEKGGk8DSOGCCAAQMjE8tUyPfdLk7EHFneSr6PPWUVtNvMMCxEUBImDshdkY%2FYGjMPYyDC0TBoOmYMLgeJZ24yWzkCehjL4ZCIBwWLfe21EQAJBY1R5S582xD17S0q9jW0CC3A83evDefqiau%2BkhpIxjF9qr4EEEREcHMZge0EAyIyv5fIZaijDuU8eb6dzUkivFdLkIg56YIrlzTyAgwgOpvEwuK99MaHeIsQ8pw%2F8K3Vzob%2Fc3kDs42rsvzXPo365ZYz28bj9Uw71NUFFcaEBS0CCCqXSjMzG678M6BoB8QGP1bwEgvz7aTIuye8V0GwkohEWdORUIgPA8GQ7reuMHgW8Fc2rktucdz43ZiI5BfQ%2F%2BYUPk7kEXnK27yyq5NQU0kkJ6FSyIgHnQGH73BRLJnGkgVlNlHM8SDD%2BYmNJlSoz%2BNRAQMat1vetcxs7UmttIm%2B9xZeyDH%2Fywew74SBC1ccPZetvBGvqsZZR7nEAWC%2BFVkCAC4vaML7jCNM5ETTdVhnrqJ%2BN0ZYzk3vtJ8XswFQZSeTwKAmMflKEPPO%2BXGoZFBpkBkKCHCJpT2X2oofUA9t17oIoOVg2ag8QLAEgKCkTALGwIsTlJ%2BrHsUPhQfn%2BibSUPxE%2BBhGyg%2BZDUcb3vuSFeaiGsgaQrdPUCSypzwv9MIEGjboCBfTCJcN%2FWg9WFASQFAyIWk%2BARRzGTXQZZAGLmgbSlxzr4q4FAWFOGQcrwy76bMgAQ7hniUecyBpHqfaQtDRd9H43VoGPJ6PnpZR4l4RRI0PPmP2f7aSntp1t9vrD8XTAgAnWx%2BfzMytAhuyDCjH27kpAHMhOTPc8DWYvRujJBUufuQEAk7uFAqnj5VkoMvU%2BGGiNDixfRpqzFyqv%2BDyDBNrkg0bNftDp%2B2EFbfuNUD5s2V50oRH8UAIiY9mbd0DTd%2F6HzdGPkgSCj9dKCmfgEhvv9QsVucvITQv8OaAZ%2BDur2eiAVayIV2ylesaN4tspreaxnrrKC3%2BGhB40Ejn%2BnyY%2BY%2F7s%2FMrASOfRbXjc6X7hBJF1BWdE3wR2i7GoflgkDJyqa6KKhEJgcxAuYZahLJPc94juAALDijegZ4n3Jvxfp80EcE6AoNT9OujSZl9PdAhIMtXrlu07HOUyYbfO3k92B%2BO82WiehBREwAdGSqoHLdOuBKwVxq%2FM7cvnbtE3NjmSWfZnrU2UjAub7Pc6rLbWRHL3ZVw0EAMI9QyJIANvsWZ1MEAvdi3OyRoVs24odpM612w5Tg9%2BXl2THPhKW87IIvXm6l2JKuBL3QgsiSLip6Jukez%2BwX3qdqYFg1OHIjFmCHhSAAHBSKY2S4x%2F4XrHLWgiSy85sorgHRXZeLOQgjwkQiVXspMTIMcfJcpA3VJa%2F9E0HR13satTYDxrJmz%2F1hGqQeChBBI1yv%2B64SKgpMLUIe8lk2BcmzDOft9D4gtlUOUgAAYgY2jIpg7%2F135Rp30WxqrQWIkBkw2plpOvLnS9f6X3iwHcGmcM2F1Po9R%2B7HJs28LFgbCc0nKDlGTIdKhABQdD8BWMN0UrOLmJbGgiI%2FcI3HTQfTzCxw0BwLdZDctTfqAxrIc3bKSbMmA3BA9oPmzK1t5O2OOjqIoX8zSzL9OoPJpA4le%2BXv%2BukmWXFvEYHIJevSb7696EBERAYfRU%2Bax6hOxxMIbMABHkgMGEuzJlO1DAACK4hMfY2ayFY2H5FZRhEar3vXBak%2BeHWuS0zJjlZwbk8bsoNjoVtNqbQW2d66War%2BdU7%2BQ%2FJMgEowr6W0dnlwAIFodJE4AP5tHGEzQ8nCA0QgQmDatygnairEZujMl23%2Bm7KSG07KHZWmDK5AA2n6w%2B87WmiHIAEQ9T%2BdqrbkbZtPTCf%2FbyFppak1eLm29%2BBayIgaELV6FjLCKFlnBMAwb4AkBe%2F6aDJRSk0Jgy4ifs009z9zQ1hLaR%2Bm%2BlQhTkj%2FCFr0gBaiNTya9Kl9EAtD5chayTLMr1xuoducaCRWEDyhxMdK4EDDy8766EDBREQUlE1erdmkPZZYVwbqp1FSAAIhmujwxnyQHD8sLxSukLK%2BT%2BT3LHTNzOGy%2F3bdlLM4%2F6pxQBMbMaUbyV1qs6MxngsOJBNbMtyksoiAxx1gRzb2fDwxIaxnUPT%2FjfBDgxEGECSGn1UP0zoyG6HeNY%2BFhGf%2FqyVFuXwOFEz5VCTRkju%2BZWvFbuWFsJPWKGFrKuBxDAX%2BNxBx%2BHcTJ7n%2BnlJStAbP%2FXQ7nfsF%2B1hLWAdPPN5K3kx3nW9ewkERAAgSJg5XHOObnXJhHn%2BRDunGVsIv95N%2B%2F0dFCJuPhT1d7oddy6LeNczpBg0ENwDh3OjL5ChmQ8g%2F%2BUjRQvxBA%2BaRxsAgIH1gMzn3XqYoooYHdf8ysoOBETiCZXeKu9zVFNgIS9MmCePt3DM3IvJdG4IFIAtMeJ%2F8yEJyWXClFlTAzEBZDPFa35B6kIfpYxgzF%2FrwSclNH6wwkeSD3hk%2FtYCkkc%2BaaS%2BiQV449wQ4XWP4SuIgFgAkLLKAUJRUebN5%2FuZ0boswsV0mHRnMWLduw3gS1yXnpwnqesXvkZl2JSpEVrIetqS6QfZTsmLX6XNmAAEJOOU1vo4UDVIe9KmjROtBJ3WACReN9vyDURAICR9vfZDF%2FtA7BIHYIN9oYE892Ubd2UPmxM1Qy4Y3JJTX5Hs82Q7PwZSrbdAw%2F4dAARmjNL7JhlaOmErk3EBfLYehHJSpWPNI46CDVgj2O79oI7qh6c9nd7oC4iAOMjZePX7Ll78%2BWodmb83iYPBUm0U87Gpsl2ZMnSFHarQDHxNLqtJD6QSId2s5gwARGp6lPTEXKiieJAzrBckXn7ccN6stXGgtWO9YGwnugF69bD1HEQsDeSfp3schbEyNRCksiOMi2OH%2BYXr44rdjmt8M2UAVl73Tw27lrHR9bEWgsHiU9W2q3O9ljvIjpzUeIzErS6UgEAjqTk3xWUlbq8bT0EEF4uio1e%2Bi7rmRH3i02azmC4dZ%2FeamU6OnzI0Slw66BuAQNNhX0id1TNkS9an8EaLrJi%2FZz%2FImU2kDB4MdRNprB1syOT%2Bqv0CoVUitIpMrTyfz9gXYzsjA5ddN208AxEQYEFKcCMVFMLlc8Orf8vEK4twLQyScywCO1ngfuyrJ2dJHnjKNzOGk8vad1G8ZivFK7eQFFljw3c5bDhG5iad3UK8rbEvn9P6zvptHu%2Fxs1vI2vg86WI4N0GNw7mtv73iBykAbRYZ3R%2FUDdHeNJDYBRMTSGqpYXjaVY3EExDBIp9YlOnP35sdnezeNMAE%2B8KJ%2BsLXHdyToVAABCClLbWT1LXXVxCBJiK3X9mkjM%2BZ%2F%2F%2FZ57ZdJPO2k%2BS2DbZW6%2FsdJONzesNcX2uz%2Fie37iC5JYeteQdJGZuMz%2BjCVoFUfXfS9dmMqbuLtAXMwkn5EPx051GFawWQnGi7QLe7UJx65%2BEa%2BqlnnLUcN67QdRDBDSMK8%2BI3UQYAgIBdELEA5MljLXxMrxxDbhBy9TGY8ePv8YL2y6HK50EUKCMSJEevcRfEVo6%2Fy8y%2BXXUunM%2BNc7JZ1mCaZa6ByJlN6SZDhTWqkgEvbdp82TbqimmDSnn4SHBspy9XQQQXNL3svPGKpYHADHr52yj3YHDjZp0SK9f9wRdDi5Hce5%2Bv%2FhBfwcptcMo4HjuHUXns0pxgK5wrd75EhmYWZubKyzD9DmsAPhJoJG60y7jrcC1VDkzyMZ2sL9dABBeBytnnTzjrbm35Q2DC%2FOGrdppYlDwLTXklIMzs%2BVqS213WAjIWWrEARrb7YC3ExcpjgIjU9DAZiQVXnrxeyc2Gx007W9H570zvBN15uNa2r9GyEFA5%2F0PXJfaRbHj%2BNX7gCojAukSjFWgN1sVZYGDvPcIAEk83pHWCkmvct6f%2FThkqKcMvCi3EBuixFtKyw72O9Egqi9xI6lRNYQPIKonVNJ2%2B7xxbcbbaW2dmej38LNWDl7mHyqrT5PSnYxDBAp%2BJKWbLNxeqEAFC%2F%2FtNlNBqH8cuOABBmrs8SnL37e76ImwsyGxP%2BbD%2FDw7fGKJLLlQdm2bMZlL6%2F48MTc5pQRTKj7AuoJGc7hmne96rs%2B13BPhgzcG0Ke%2BbSId%2F8%2FOTOAIR3Ah8IL8%2F0e6KBgIT5qnPWmh62ZxMVygMzbxO0ESd%2BZ7kqP8zdsMOELlcn4ResC4VDTIQNT5EenKx4B5GmTKV7TPkDBuCDZX9k%2BwjsauNWNYD%2BhpXDV7Om1a2QQQ3gCaxaDqLi7B7A9Z%2B6Df5v99GqVBNGIvRaD6UGHnd91qZXBZo2H8DUyZW7ZYWsoWkmttcb7Zs8Tks71iHum6wRnLXe7WO1iLW8T3v1VLj%2BZm8EtJsgQh8IGhX%2F6evOxxnogJEoIGgpeF4gZowmQKlK5Ok9Nwt%2FCH5ml%2BYztcEX4g7vWAxxjMxepwMXc1kT1F%2BtoCkbmiK7vvQ%2BZymO9%2BtYcctqn9zedkCETRQ%2BeNXHY5QD%2BAB5AOAYLg2WgSAGIX%2BUmdPCS0kXwCJXsNzid1qJs1mTMsT7AcpBpnKZU3gPmHa1J6bolsPOk%2BRh7O1eWSGcknJywtEcKEI41q1MJYpYvcd07xe%2B7FrZb5ooTPc0BMkDzwptJA8QeRKSNf5eE8GkPp7SItfKoqHUi4AYv0G6wfaA0r%2FH%2F640fGQLJhHmIOt6utrJLmDCFLZFyR6%2BngLaxBO%2FSA3lkXYhIFfpZAyUS2GZXvXY90kdVwnQCRPEOE2ji6NtIhXXkfJyXKWKSoCzTabnK31P4AIA4luUHRsjh4CkDjskgZn68nucdLX6fqWM4gkNJ3eqRxwhG7WDQGAHj%2FaRIvpYrq1iFJI%2F0%2BldEpe2i8AJE8AYWdq%2FTaKl29yXCMDLUTpfp2zUgtJdry4VmgkSEiDtu%2FkgY990SFtvdYbOYPI%2BZllx04bC0T2Haims%2F2TjJqFbsJYAmAkZ0jpf1yASJ4gIrXsoPhKSNd%2BoZ1pxjF2h6AAACAASURBVNxLulR6Zowlg5nvWFcYx%2BKG7xJd6D9qGF7TPMwNRFIpno8LVHKCahaIPJqeDVMsAALmaYtNJHf6W7Eb9pDtRteXGdKNO%2BjABgCJR24gfcmcnVtMcpUJDPl8Bg3QeLpxeNrxmsWaR1MjNJLO9soJRNBFHXMx3AAQAAnQcVFKZruegvwfGJZExW6eT%2BGNFlkxf8%2FOVHSjd8OMObuDEuePkGFo6C1YkDLkxUVDLpG4ibEs1gPc9ntZhEZnY1kvM2cQefk7sy7G9kVkOHjQJmBZKZ74PYRX6X9MmDJ5gCjS2%2BPVWzkvxEnTodiZTSS1%2FIZ0ZWZNdTur5JfAPwGneFjf8a79Qj1rvUOB6J9czEq13EDEMFzVRNClHT1HiuGFB58W6yO541pRK5MjiLAW0ryD4mc2OaqRgRkTq7yetOW0vS60kJ8tqfH5OO094J4mks1UzAlEsOP3nZd4zJ%2BFTE7e7%2F2wns5NLf3shgvxHylDp8Twy0ILyRFAYKJxSNdhrxDTD3I9JSdOUSrHzMpClC8n14x1%2B0XbqGM3BLSQhz9qIAkJoVkuKGcQGZ2J0f1HGhxfEINPWYSON4%2F4Mp0ryz27%2Bi8jOUvK4LMk9z9OSv%2BjpPQ%2FTEr%2Fg6T0YbuflL77SOm9l5TeX5HS%2B0tOiVd67iKlG9sdpKDat%2Bu29HYrKV37SOncQ0rnLaREbyYlupuU6E2kRG8ghYv6riM5em3a%2F4IxFLmPosjFZwMtAZtX%2FhjWQurMcRYcUbHpUMW%2Bcs9fSVcLt8mQq4KY5WCLUoLu%2FcBZGjzWK0DkaOP5NXNvcgaRpKrRsaYRx63ZrItCZ6bOMczCyIZtWSgSwn8B6c1EOYNHD6RSBj8V8W4Yep6bxo5B%2BFdWNl3l2g%2FUf%2Fx8SxIyZHnTFE7xRrm7ocVJ12Kkq8ukq0ukq4ukJxd4Cp%2BenCM0j9YTM6QnpklPTJGeuEy6MkG6Mk6adIHkvoe9BZHWnRRDA2gHpf6shdTcTtryiPCDrLEuMG4Cs66dBENugh%2BzLEK%2FP9FG00trD%2FjKGUSwYJbkBB2MDDouusONYXvwowZqGZ2x3QxlDfr59m%2FQxNrMk6Y4OnD1%2F7y8HFQ2XLkG87xmgALugXw3PdZPUvQGz0DE1EKQWLaZ7IZ0sS%2F8IMmZhqLJdHZbQjTdoE%2BbztPtLsyrefp4Mw1eXly3qjcnEMFNWgtD13V664w5jNuJX8TSSBB%2FHp1ddpuO4nh5UgD8TVx8m%2BSOnd6ZMm070x3LkJ1qbyZOvGIrKcMfpjW%2BwtVi82RPzj9Hpur7dUP8kHakhZRFuMQFI1o2KkvJGURwFxaQXF6U6KV0K0QnQLKikRypp86x%2BYI2bXLmcgh%2FiKVoqIsk93jXWNrqWIa8ELumDO%2FX8jRpUv6Nc0JIdtcvCRmq8F3sPWC%2Fitdak3%2F8qj0959rUdNe72LxAxDoQkGlsLsb1L07QztJG0A4A%2Bfldl%2BaFjWsR2cd3PBwwI0fuhCPX%2FebSMGMwU8YpgMTO7iJ1Pmo6%2BHykTyGcCibMR%2FVDhMbLN71dacsXYgEIfCDo7bORBmLRxRaIWBrJ%2BEKcHnVYcmxpMgASlC%2BPzccEkFjc8ekdjuDkxMee9UFhLYQTy%2ByZMaYPZTslx77JWbB9Il0oTgMnKibkWSBgrSk77%2BhvnIsJk3njtkAEBwCQwP6CYxR5H25pJHC2RmHaiMShTD55%2BtnQFVLOPeeZQ1VCevtKkV3%2BvhD4QeTu10hX5RWT2lOCFNDBWQNpGObUdidrEPuiuyCqdXPVQCwy2QYRHICBRDeo9cIs3eKw5DjTtHnoowb2COfSVcm6EfFunwK6PEJy9CZPQIS1kMotjtoextPhXAg3ZU13sn%2FvhbwnAOQ%2FFf10M6Kdb9vvcwwAee3HbpKSat4AAvo5AhEcAEAC5qJ1PXozOkHDTCB59Ggj5%2BoXch5JIQgo%2BJe49K43AIK%2BqekhVJKNvBA2Y85eQ8mJM7aEuxDob%2FcaUXv2bvW5Ff%2BHnXWHfbD9%2FVQ3zS6beSCQh3xfroAITgzP8GfNI6yR2LHFMvfBjVk%2BEnRosnNj%2BRKiVH9vqEskdXvTWBrDveO2O5Yhl2QrKefeJV0vjv67bslYUtNof9UA7XMQheH1Vhahf53p4zG1%2BZowmffiGESsg2Ghq5pG%2F1fRxzU2dpAxE0jwGV5mOG4RCRJAYlHavXfm2UI9SR07XddErMQys9Tfhh%2BkfAtJLU%2BRroiHiMVx8EtJmmvMbgSG11VZhDCi5f%2FK%2B3gAltO15SqImDep0r%2FKe%2BmWjNL%2F1eCQ69%2Bsbr1dyaHknokF4Wy1pMmld4z7TF74NyeYYdG7Gd510jeVzZjIDaTONAozJoPXmIhwsHpwxf9o50HN%2B5RF6D9n%2B2kunnDl4ewaiOBeASJQi9AIBaEiOzeZCTAMImy3VdKvjzat2c8gg87iYx4UQN2MF31Q5PadFK%2B270yNlW%2BhZHpmjNOnZB7kCPVPEyo0kP6V2jU7awv7oOfqezVDK2FcN27aVRCxLghAgs7waMZsAUEmONj5fFNZJT15rHllwJV1LvFunwLaYjPJqBh2McGMzRhOLLM3hCoOMyb6v8IPksFWaCD%2FPdvPfkI74GGttz37q%2Bhg1SDJ6RlPbgG0JyBiaSRDU0v05PEW1zrEA0ie%2BLSJ%2BiaLb7Zqhsz48hE8SowfJqnD3QxVaCGx6nSVro2IjFR3D2mL%2Fa6o2b4Q0uOTqJpO79Wec5zKfsv%2BKq7qxeA5t8DDunVPQMQ6ODSSgcuLrnWJt7QaaDgX57L3e7TOLd7XpwD8IXLvA647VCUehWkvMxWtDpOXTppNhmyEGte%2F48L7Nqnp9M%2FTvY41EJgwaOOB9hQmgOQfxl2Pep6CiKWR9E8u0DOfuaORQDUDmPz281aCpuM2qq5HrGL5DjTTFltI6rjWVRCRoIVE8u8VYqa1byOl7y3S9aTgKREtyUnaHxkwE8lsBimwThDg%2BLBuiGKKFSZ3F0CwJjwHEQtIzk8v0zOftTp2tlogAgI98WkzDQjTJm9sS6U0UoZfcRVA2BfSsI2gTQAU8in159%2B3PLkSznVfzPMmUaA7wImKTFQn1bhYJ%2FCBHG8eXQEQr%2BjqKYhc4YQZtRmdWaYHPzJnhAIELIePnXfsj%2B2Zz1sJzWiFRnKF2ht9MpQJkjr3ugYiABCpdYet%2BhjWQqp2kzrdUPI9QiDD0Bj%2BdabXUUAC6wID4j5lEwZd9zYu599IZtb73icQuRL%2BRYkxCn1gp9kBj8x9LCB59vNWbvwsgGQ9VpvfgUbqzEmeGexWVIa1EPRNtdErBOHcxNBhMjT3HX4bUyNcv8BwqLLKAdq731k%2FEGggnzSep5himoZerwvfQATsws2gFgaaw%2FNftjk2bSwQwftTx1toZEY4WzdaFildocToG65pIQAipLfHOL09P4cqtBC5%2FfcrzZa9FvaNaBPk98hERQ2Lk0JWrANEYU60X%2BAyFNDTD5r6CiJXgMSgqSWZ%2FvR1O980bj5Tw8j3swUmf%2FiqnSYXRffv9RaDrlwmue8h10CEtZCa%2FLu3sxlTdzdpS%2BbMGD%2BEfT26BPndgpTgchFLjvOVf%2Fwe%2B%2B47WM2dzeBT8ZOevoNIJpAgs%2FUfp3ocAYhFcIsBT3%2FWQhhv4ScRgxTAfM%2BtzteRHL3RFRBhX0izOQqTnaN59E2NV2ynxMWvuYt9KfMKhav%2FLu9zxYT5vHWUkJjmpJguX3nC7wMBEetC0VELdturP3Q67iBvoTHA5PkTbXR50WxgY51LvMOcNEgZed21WhnuFRLJLzOVNRCYMdGXSS9hPwiAc1lJ0svfRh3lgbAGcqCKfugcM8EjgH4rAYOIGbUBkLxTOcDqmKVZOHkHYV%2F4uoMuzomojQWeEFojMUVS1z5XtBD4QuKN29IDuXOv0mUQaXqMNGW2pLVFFL%2F983SPo4cn5HzP%2FgidaLtAStLKA7E47t97oCCC22ThNgxOrjlY5WzYjgU8IC42RG0uivAvSxPonJz%2B1kUtJJ1YhoHa%2BZgx1beUfHUuxlH%2B5YcuR%2F5AyDf6iZzunSD4QGDCBPUKHESsGwcRQIwDVYOO%2B0VmggmqiWdia0%2Fvss5f7O9mH9XfuaKFwBcSQ2IZhlDlmFiG3yGcqwweIENPFju5s94fgHw2lqA%2Ff9%2Fp2IS5%2Fd0a%2Bt4yYXyKwmS9qaB9IpkXBQLz01LVeXrXbQ6ndwFIgNYYA2iaNqXrbAVd9fggyd13OAcRTizbSbEKMzM1HxCRWn6zkpWayftS%2BbwoJ%2Bnvp3q4IRDLpo10dksD%2BTY6RujyHoZXaDQREMMCEmgkx5pHVvpHWpqFnXcQHRvCv4gGleILdFWnvyG543rHZf8riWVIb8%2FRjGE%2FSPVeUpeGfI8chIXfcUUlDITCQ80pgJztn3SlI5lbtAkViFg3xUKv6fRF6wW663AtE94OgFj7MNPKIvT6D10ladqgYlcZedW5FoLEspYd6cSy3Otj4hU7KDFytGTDuXh4%2FfVkN4OHEwCBCfNNx0VCj1XrgWutmSDfQwsiIBI0ku%2BiY%2BZULxcS0ti0%2BSZKkyUW%2FtWTMyR33%2BkYRNgXUruV4nkU2UELkdufJz2BManBOf%2BCWmTQQAAgTjNRbz1YRT92XeIeq2ECENA1lCBiMRzEwmyN8r4JuuOQ83EU0EzwJHj5uyibNjh%2Bsb9wj%2BrM9yR17HIEIgCQfEdhshlTcwfpynSonpx%2B8Bx0n40phJGUaKblRAP5xaFqquibDK0pGGoQAbPBDF03qGrgMj1wpME2MzJNGxT%2F%2FeX7rpJIkUdURu5%2F0lFolwGkzQzpIiKT6wyZeGQ3JScryUiVlgYCmb28JDtOogTwYLbut9GLrJXjuGF8FQSIgHiqrlPT%2BRnae8C%2BY8rSRPipAGfriXau4Qkrc5wKDGROj%2FU5bj4EEDETy%2FII6Z7ZRErfv8jQSixzOJWiRSnJsuXUiXrboRqqOTdFaJHodyp7PrIXehCxbgYLHYTsHJsnjNkEgyztws67qV5G6G8nu11rnW9da1jezUHdRwh9T52U%2FUttu%2FLqWMZmDHqlSpOsSYaFHl5fB2R0YlGiP33d4diEuePdGvqh6xJHYby%2BbqfHLxgQwY1aQILZv4980uiaaYPkH1QVF5tGYqiLJA86SzBjUyaPxDIznLuHtIXuUD89nS6cbPvDB%2FLK952OeuWwCXOomk52X3GiZjtXmP5XUCACwllAMjy9RHcfrnUMJJaJ89K3UUJJdjG99FgvJ5g500KQWGaZMRuHdbk6d%2FR40QHyenIBmYTs%2FOZYs2MNxDJhLPOlEB5sBQcimUBybmqJGzY7NW3YHCqL0Bs%2F9dC8By311xNAL79LTn3J%2FhC7IMK%2BkNrce4Ug9MtNhlBc5%2BWNhezYl%2Bbj3K0P86NNM7kqb1Mb%2B8GEOdk9TujyDvAoBAABKwoSRHDhILBuGNwW8YljTVyLYMc3Yu0DJiJq88p3nRyaKxQGrrWeUimdlHPPOQrrcmLZihayfqUuzJhY1c2kLQ0WjPCvRbt8%2Fr8gJemFr8x2n04ABGHcyMBkupiusCC4YEHEAhKofdNLMj33ZRvXJFigYPcdg5KRHAT7tpCBRJdGuPmQfS1kJ8XRsSyHAjv2g1ReR8nLkZJptgzZGJ%2BXeCojwMMJgPzy%2FTqKDFwuWB9SQYNIJpBApUR5tV1mWqCD%2FdGnspCBBFGZxNh%2B%2B1pIxzUkoWNZushuo1L%2FeMU2Uvr%2FTbpafM7pbFpJilI0sWCaME4BBGUd0ECS6ZaGhfjgKngQyQQS%2BDNQaGcyNn%2B7NBNIoJG8%2BA2crYVXto6ojNR9t20Q4Y5llbk5U1kLqb2LdNnMqMy26Irtf3MxhX7zqXMn6p2Ha6lzbI50vbB8IKv5WRQgYt0UUBxd0l5DwxcbZdYWiOAdQAQfyVune2lRKpxxBqCBtlBPUscNtnJDOKSLjmU51McwgERuJHWmmQw4Ai1GFOk7aIvxrUhSxEMGMpIpM7l%2Bxn4wYSoHJtMAUtgEKzoQAaPRXxXt9%2B0y2RIG7A%2FT5vUfu8yoTQEsE1TsJscOkGxzULeUTm8HQGxsxqSrcw1%2Fu4sHseQgV6jGRTk%2FHi52ZQv73f1eLdUNTbEJA59eob%2BKCkQsZoDhclKlf5zqdtQAJhNM%2Fn6ymzUS6xxhfTeS8yQPPm3LlOGQLieWbdzyMH5mM0ltvyNdmS9oB3QufIQ8YRTJox%2BbUUAnAHLP%2B7XUOjq74kTFsQv9VbQgAubAR4KZpnhyWIBg5x1Cg6li%2Fz3bT7FEcA1xcxE2LdZNss0RmVeGUK2vhUBLiVXeSOpcBy%2BGXK6rUH8DOULDb3THc5oHcs97tWzCoA6sGMDD4mlRgoh1c1AVkUn4dmW%2Fo0xCAA%2BABD0h0N4Orf7DKAR4qCXGPySpPf%2Byf2ghMSSWbdQ3Fd9XbKfk%2BElKFbkZAx7DhPndF22OO5LBhGkZmeVC0jDKjrVm7LwXNYiAIGAYqiA%2FrB92pbnR7nci9K%2FyPo7ahE0YDC1Gcs%2B9eZsy7ExFx7IcQroczu17kwyjuJ6mqxcPHMUorXjyOKIwznwgKBhtHplhWQybzKy%2Bbzt%2FFz2IgCjQSBC1Qd9WJ04xSyPZc6CK3jrTyxPc7RDdi30YLDkqc40tEImzFrJp%2FV4hcLY2PEBabNTUxIrAnl%2BLF6OzMU5gdFJSAfD51Qd11DQyww%2ByYgQQ0K8kQAQ3iieLpuvco9INIIF9DCDBGMQwvFIpjZTzr%2BUNIMholdqghVh5IWult2Pkw2ZSp2uK2g%2BChX55SaIHjtS74gMZmlripkzFCiAlBSJgIjZkBmJi2B2HnbVbxFNm74FqerfmXLp1f4BedvRaUcbZlMk3zR29RmJVWyhevrYWwvkgaLZ87hAZevGGcyEfg5fNok6nTlSYMI3np7m%2Bq5gBpKRAxNIWwFDM68DksFsPVtuO91umzd79VTyQGVPNKCD1Hvekzp0lKbo7rwQzDuk2bjyQGyBiVucWbzgXNETpxDOftTiqwcLD5f4P6yl6ca4onajWOsp8LxlzJvOmITDwk1QPXubEHzDeTujXAhI8tQ5UDZCUCMa0QZQkcfG%2F3Iw5H02EtZAItJC1Q7qshVTdTOpcOxfXZdKxWD7D1D0%2Fs0z3fVjvihO1d2KB5QtyVgqvkgQRMBYMRt8GdJK%2FywXTBlrN%2B3VD7CPxOwHcUJdJ7ns4L3%2FIlcSytX0hphmzjRKjx8kwwp0fY3exQg6svjROHybwoyAKgwkFpQIgoHvJgogFJAj%2Ftl2YdUUjuWV%2FhHNSYC75KUTqYgvJHdflByLtuyjGRXZrZ6cCRJTu10nXrNqh4nqygkdIJHvsaBMhdO9EG33wSD2du7xUEj6Q1YBd8iACQYJp035hlh4%2FauYEOBEmJKQdqhn0LfwLU0YZ%2FnN%2BAILu7Rt0LGMTp%2FEh0mIXfAXE1QLq1d%2BGkaLOS%2FP08MfOxpBAe0FbxO7x0jJhMvlS0iBiEQJAgvAvhOpBh7NtIFT7DlTRgapBSqi6dQpP3qEX6Mo4O1RhnuTqD%2BGOZeXmQO7sRXYI524ldbKcjCLNSh24vERPHGtmDcSuGYP9EIXpGV8oORMmU6AFiGRQA818Ls1L9NgnjY5GUkC4sAFIOI%2FEIwcbwC85%2FR0PplJyBBGATaxmC8UQ0s0ykJv9IOVbSOn7d1GGc%2BFERe4G6ljsggdrqgCQIw0sLzgmeFGqLwEiGZy3TJu%2BiQV69otWR0IGAYWz9YO6Ic5NyTiNax8NTSJl%2BOU8TBmMwty%2B7kDuePkWszpXjfPCKKbFgXvpuDhHjx9tcsxb%2BFHaL8yVVBRmLcEVILKKMhA0NIBG85lnP3cOJMgjOVQ9yJGgVady%2FKcuj5Dce2%2FOZgxrIdVb1m04FK%2FeS%2BpsmxnOLbKn68jMMj3qcF4RHg4Pf9xIA5cX2QQuJpC1K5ACRLJQDoIBZ%2BuluTg9%2FyUGMjsrwMJA5%2B%2BiYwxOWU5n%2B1%2FqXDnJ0dw6mHFId53EMpgxMZgxQ%2B%2BRoau2rymMO4Kfk4sy3X%2FEzANx4jgHCPWOm0l3AkBMbgsQWVPqASSo5FymP31t9W21FwYECKEaFILs1oubMY%2F8NSdTBgDCHcvSfVM58rLKHwIzRu54gYzEUtHZ96pucA4P%2BGAHQKyHyIMfNbAJU2p5IBvJrACRdSiEJw22JTlBGLVpVwghuPsOVFPD%2Bel1zpbfV4a6QHLXbTmDSLx%2Bm%2BlMzZKdyqBSeydp8fGiHPkwG0vQs1%2BYGqVdEMHY1rG5OOkllkiWi1QKENmAShaQYFYvJuTZnfQOAPq89cIGZ8vta1xTcurrnJsPyeibutK9fXWV7maKVeyg5Ni3RdsjBGX9DxxpsK2FPH28heBsh4kL2ovX1RQQIHI1PbL%2BBcGBAM0uy1xsZwdIACIfNQxnPX6%2B%2F0zpMsn9v2EtBKbKevkh7AupQ8ey7Hkh6Ooud71GRjoak%2B%2B1FMLvh6aW6d4P6vMGEfDssaONJZuJmitvBYjkSinU2xhmA2j0WkXP1fzMmwh9Gx1z%2FCQDoGkY1B29cUNThn0hLajSzV4fwzkhDQ%2BSnkDPi%2BJ9wo7Nxzmiko8pA97Cj3VhNsY8ExrI2gtFgMjatMnyjekjmY8rdKj6HI%2BTyBVIMKgoOjbnAojolJw8Zo6E2EgLad9J8WqrSndVpS6ApXoPJafritIPksm8RTlJL30bzRn0wdOnP2shVOMKH0gmJbN%2FFiCSnS5r%2FtcybeSExolkmEuz0RMOQvmnrzsI4OP0iYY%2Bqsrwi%2BwPWc%2BMwXdS89ody9CESBl4h4yV4ro1b7ngv0Dez9cdF3MCEfAKtTDj8%2FGSLKazw2wBInaolm4lgL6tSCRD9W42jQT%2Fw4Z5q%2Bhy5dRkAADp0nmSu%2B%2Fa0JSR0LEMWsiZn6e3c1Zq82OkJxYcg5pN8vm6G%2BiGDv2vfBddU3tk%2FpVF6JnPWml4ygxzOwV8X28ywJMJELFJfAgYnK3LcpJ9HSjmglZigQne0T7xhW86qGUUPSacd0fHOZPT35LUsX4zZnamNmX3hXA4t%2B4u0paGit6MsVgLumGDJni45hyPsAR%2FMnkFcxM9c7mcX4RxLdLl9C5AJCcyrf0jC0yglaAhzccN52l%2F1SB92jTC1Z0owMNv3HilUjrJAxtPt%2BPEsrPZozFx9Eq9%2BDWHc924pkI6BvgAMMeY1Z96x7k%2FLjTJk93jbL5YIVy3%2BFVItHFyrQJEnFAvY18I3npbxk9tf9TiAyRHr984pIvEMpgxmYllSGs%2Fs5nkrj%2BTnlw0a2NsX0nh7rgejwR42OOrABF7dPN9L05zH9u%2FsS8kM7EsA0Q4nFv3S9KkSZE05Tv3ivuEAkQKhL%2BGOkdy3yPrgoiVWLZ6%2FAMDSGQ3qTNNrplWBUI2cZk%2BUECAiA9EdnoKqNnaUgtJnXtpzeZDKLK7ahTmlbwQdClTBveToTkPMTu9F7F%2F8VFAgEgB8BSmTHLiI5I7rl0TRKCFxKq38vgHjsCkq3TjZzZTvP4e0pVZoYUUAK8L8RIFiBQA1wxdJuXc79Y0Za6EdK%2FOCWEzpnofaQs9JRPOLQB2Ft0lChApAJbq0hDJnbesDSIY%2F8Dp7atA5Ow1lLjwxZXqXJdCzQVAMnGJPlJAgIiPxLZzKvhDEuPvETJQoXGsTnXP1EKuMmMw%2BrLjj6QnFoUZY4fwYp%2BcKSBAJGdS%2Bf9DAIihLpHcffeaALLSsSwjL4TNmNrbSVseIvhTxEtQwEsKCBDxkroOj81RmcVmkjrW1kJi3CvkSqk%2FA0jldZScaaaU4TzV3uEtiN1LgAICRELMZB7UPfZOVi2Eq3Rbd%2Fxs%2FEO8Yhspg%2B9ws2WAkHgJCnhNAQEiXlPYwfGN5CwpA0%2F%2FzA%2FCfhGMwqwzQ7rWECpOdW96hLT4JdMPIkDEAfXFrrlSQIBIrpQK4HfacifJnXuyggj7QiquNmNiFTtJne8UjtQAeFXKpxQgElLuQ4lIjL%2BftfmQ3L6LO5ax5pEGkjjCuaPHzbqYkN6TuKzipIAAkZDy1dAVknsf%2Fpk%2FJFtIF85UOfqSWZ0rTJiQcrR4L0uASAh5y1GZpTaS2n%2FefAhaCBLL0HwZvhAASKxqN2mLfayFhPB2xCUVOQUEiISQwYjKKKNvkNy%2B8yp%2FCGshPArT9IVwOPfsNZQc%2F%2FFKVmoI70dcUnFTQIBIyPgLa0RXJkjqvvPnpgy0kLNXAMSszkU4173uaSEjh7icAqCAAJGQMQmmjDp3lufKZKa4sxZSv424V0jajJGaH78Szg3ZfYjLKR0KCBAJGa8NQ6XExf%2Bac2Wi17A5AwDhXiEZWki8Yiclp%2Bs5K5WEMzVkXCytyxEgEjJ%2BG8l5kvsfu8qUYS0kYxQmmzHnjwg%2FSMh4V6qXI0AkZJzXFltNU8aq2IUWkpHejpkxcsefyEiK8Y4hY13JXo4AkRCxHv4QZfQfV2kh1hAqayB3vHofqfNdotlyiPhW6pciQCREEmAkZ0jq3LcCImzGNG%2Fn8Q%2BcD1KxPZ2VKqpzQ8S2kr8UASIhEQGOysz8SFLHrisgstKxDGHdraT0%2FoMMTRbFdSHhmbgMkwICREIiCUhzV4ZfWAEQLvXPHIXZ9Ajp8pQorgsJv8RlXKGAAJErtAj0ky4Nk9zzyxUQYV9IZAubMrGz11JyspIMXQ%2F0GsXJBQWyUUCASDaqBPC%2F5MwpkqI3MoiwL6TBTCxDjYxy7iAZWkJoIQHwRZxyYwoIENmYRp7%2FImUgKvP3lWbMHNKtSA%2FkbnmKDFUAiOdMECewTQEBIrZJ596OZjPmu65oIXXbuEo3Xn0rqbMtwpHqHqnFkTyggAARD4iazyHNWpkKbj7EZkw6sQwNhxLDH3GvVJHWng9FxW%2F9poAAEb8pvup8hp4keeApUwtBSLdmK8XObCap%2FQ%2Bkq5Lwg6yil%2FgzfBQQIBIwT7T4OZI7rmMQkTiku4niDfeRtjzCAAJNRbwEBcJMAQEiAXLHHNT9SVoL2Ukx8eH3bQAAAP5JREFUhHQrdlFy%2FBQX1wkzJkDmiFPnTAEBIjmTyv0fprTllQSzODqWVWwhuecfwoxxn9TiiB5SQICIh8Td6NA8qLvHjMpAC4k3P056Yt40YzbaWXwvKBASCggQCYgRcHWo09%2BS1HEtxRu3Ubx6D6lzbcIPEhA%2FxGntU0CAiH3aOdqTmzEP%2FZ7iCOlWbKbE8PtkaIqIxjiiqtg5CAoIEAmC6kSkyxdI6rjRHIWJ4rrkMhkciRHRmIBYIk5rkwICRGwSzsluHJUZP0Lx5h0Ub7ibtPhFYcY4IajYN1AKCBDxmfzQMzjNve8RijfcSMlLP5hDp0Q%2BiM%2BcEKdziwL%2FH%2Bzh3PCP5KDEAAAAAElFTkSuQmCC%3B%22%20vertex%3D%221%22%20parent%3D%221%22%3E%3CmxGeometry%20x%3D%22-40%22%20y%3D%221440%22%20width%3D%2292.54%22%20height%3D%2280%22%20as%3D%22geometry%22%2F%3E%3C%2FmxCell%3E%3C%2Froot%3E%3C%2FmxGraphModel%3E&lt;/span&gt;" style="verticalLabelPosition=bottom;html=1;verticalAlign=top;align=center;strokeColor=none;fillColor=#00BEF2;shape=mxgraph.azure.sql_database;fontFamily=Garamond;fontSize=20;" vertex="1" parent="un9lTaKR_ojWKBwgLZ8Q-1">
          <mxGeometry x="40" y="1282.5" width="37.5" height="55" as="geometry" />
        </mxCell>
      </root>
    </mxGraphModel>
  </diagram>
</mxfile>
